<?xml version="1.0" encoding="UTF-8"?>
<svg width="40px" height="40px" viewBox="0 0 40 40" version="1.1" xmlns="http://www.w3.org/2000/svg" xmlns:xlink="http://www.w3.org/1999/xlink">
    <!-- Generator: sketchtool 41.2 (35397) - http://www.bohemiancoding.com/sketch -->
    <title>C42EA432-AB7D-4162-B32F-9AFBBA38B043</title>
    <desc>Created with sketchtool.</desc>
    <defs></defs>
    <g id="Page-1" stroke="none" stroke-width="1" fill="none" fill-rule="evenodd">
        <g id="Main-Page" transform="translate(-1040.000000, -4020.000000)">
            <g id="Group-21" transform="translate(1040.000000, 4020.000000)">
                <g id="facebook'">
                    <path d="M20,40 C31.045695,40 40,31.045695 40,20 C40,8.954305 31.045695,0 20,0 C8.954305,0 0,8.954305 0,20 C0,31.045695 8.954305,40 20,40 Z" id="Oval-32" fill="#3B5998"></path>
                    <path d="M14,16.2752778 L16.3565548,16.2752778 L16.3565548,14.0655 C16.3565548,13.0901667 16.3818873,11.5868333 17.1152628,10.6555 C17.888537,9.66977778 18.949335,9 20.7745408,9 C23.7479417,9 25,9.40883333 25,9.40883333 L24.4103863,12.7791111 C24.4103863,12.7791111 23.4287524,12.5041111 22.5123496,12.5041111 C21.5953135,12.5041111 20.7745408,12.8212778 20.7745408,13.7055556 L20.7745408,16.2752778 L24.5332489,16.2752778 L24.2710576,19.5667222 L20.7745408,19.5667222 L20.7745408,31 L16.3565548,31 L16.3565548,19.5667222 L14,19.5667222 L14,16.2752778" id="Fill-3" fill="#FFFFFF"></path>
                </g>
            </g>
        </g>
    </g>
</svg>