<?xml version="1.0" encoding="UTF-8"?>
<svg width="170px" height="62px" viewBox="0 0 170 62" version="1.1" xmlns="http://www.w3.org/2000/svg" xmlns:xlink="http://www.w3.org/1999/xlink">
    <!-- Generator: sketchtool 41.2 (35397) - http://www.bohemiancoding.com/sketch -->
    <title>651FC98C-CB82-44D0-8A9D-F5B7D8076FBD</title>
    <desc>Created with sketchtool.</desc>
    <defs></defs>
    <g id="Page-1" stroke="none" stroke-width="1" fill="none" fill-rule="evenodd">
        <g id="Main-Page" transform="translate(-635.000000, -714.000000)" stroke="#F28422" stroke-width="0.5" fill="#F28422">
            <g id="Group-22" transform="translate(636.000000, 715.000000)">
                <path d="M15.0052235,34.6670118 C15.5566588,34.6670118 16.0750588,34.8817412 16.4649882,35.2716706 C16.6855059,35.4921882 16.9744941,35.6025882 17.2636235,35.6024471 C17.5526118,35.6024471 17.8417412,35.4921882 18.0622588,35.2716706 C18.5034353,34.8306353 18.5034353,34.1155765 18.0622588,33.6744 C17.2456941,32.8578353 16.1600471,32.4081882 15.0053647,32.4081882 C13.8506824,32.4081882 12.7650353,32.8578353 11.9484706,33.6744 C11.5072941,34.1154353 11.5072941,34.8304941 11.9484706,35.2716706 C12.3896471,35.7128471 13.1047059,35.7127059 13.5456,35.2716706 C13.9353882,34.8817412 14.4537882,34.6670118 15.0052235,34.6670118 Z" id="Shape"></path>
                <path d="M35.3361882,33.6744 C34.8950118,34.1154353 34.8950118,34.8304941 35.3361882,35.2716706 C35.7772235,35.7127059 36.4922824,35.7127059 36.9333176,35.2716706 C37.7381647,34.4666824 39.048,34.4668235 39.8528471,35.2716706 C40.0733647,35.4921882 40.3623529,35.6024471 40.6514824,35.6024471 C40.9406118,35.6024471 41.2296,35.4921882 41.4501176,35.2716706 C41.8912941,34.8306353 41.8912941,34.1155765 41.4501176,33.6744 C39.7647529,31.9888941 37.0219765,31.9887529 35.3361882,33.6744 Z" id="Shape"></path>
                <path d="M38.3870118,44.8160471 C31.9423059,51.2607529 21.4561412,51.2607529 15.0112941,44.8160471 C14.5702588,44.3750118 13.8552,44.3750118 13.4141647,44.8160471 C12.9729882,45.2570824 12.9729882,45.9722824 13.4141647,46.4133176 C17.0768471,50.076 21.888,51.9073412 26.6991529,51.9073412 C31.5104471,51.9073412 36.3216,50.076 39.9842824,46.4133176 C40.4254588,45.9722824 40.4254588,45.2572235 39.9842824,44.8160471 C39.5432471,44.3750118 38.8280471,44.3750118 38.3870118,44.8160471 Z" id="Shape"></path>
                <path d="M53.3479059,35.8839529 C53.3479059,32.8160471 51.1300235,30.2579294 48.2138824,29.7244235 L48.2138824,10.8303529 C48.2138824,8.37924706 46.9945412,6.10687059 44.9521412,4.75171765 C43.0336941,3.47901176 40.6523294,3.19016471 38.4988235,3.94898824 L31.4080941,1.54221176 C25.9595294,-0.307341176 20.2242353,-0.497082353 14.8224,0.993317647 C7.75058824,2.94451765 3.69628235,7.07054118 3.07044706,12.9355765 C2.51661176,13.6660235 2.07656471,14.4864 1.77755294,15.3715765 L1.22752941,16.9994824 C0.932329412,17.8735059 1.25774118,18.792 2.0376,19.2849882 C2.81731765,19.7779765 3.78677647,19.6783059 4.44974118,19.0366588 C4.67618824,18.8174118 4.92381176,18.6327529 5.18442353,18.4783059 L5.18442353,29.7244235 C2.26828235,30.2579294 0.0504,32.8159059 0.0504,35.8839529 C0.0504,39.0746824 2.44912941,41.7139765 5.53764706,42.0976941 C6.31327059,46.3804235 8.35143529,50.3309647 11.4679059,53.4923294 C15.5367529,57.6197647 20.9457882,59.8927059 26.6991529,59.8927059 L26.7012706,59.8927059 C32.4472941,59.8921412 37.8492706,57.6542118 41.9123294,53.5912941 C45.0861176,50.4175059 47.1461647,46.4267294 47.8962353,42.0931765 C50.9675294,41.6935059 53.3479059,39.0622588 53.3479059,35.8839529 Z M43.7032941,6.63402353 C45.1344,7.58343529 45.9550588,9.11294118 45.9550588,10.8303529 L45.9550588,25.6099765 C42.4495059,25.0651765 39.7578353,22.0264941 39.7578353,18.3705882 L39.6643765,5.95270588 C41.0435294,5.58917647 42.4816941,5.82352941 43.7032941,6.63402353 Z M3.69811765,16.7440941 L3.91764706,16.0945412 C4.49265882,14.3926588 5.7696,13.0109647 7.42094118,12.3039529 C9.07214118,11.5969412 10.9533176,11.6263059 12.5817882,12.3848471 C16.0019294,13.9777412 20.1365647,13.1165647 22.6362353,10.2907765 L22.9160471,9.9744 C23.3294118,9.50724706 23.2856471,8.79345882 22.8184941,8.38023529 C22.3512,7.96701176 21.6374118,8.01063529 21.2241882,8.47778824 L20.9443765,8.79416471 C19.1023059,10.8765176 16.0555765,11.5109647 13.5354353,10.3372235 C11.3256,9.30790588 8.77270588,9.26795294 6.53181176,10.2275294 C6.32781176,10.3149176 6.12945882,10.4124706 5.93421176,10.5145412 C7.24701176,7.01463529 10.4243294,4.54997647 15.4233882,3.17068235 C20.3872941,1.80098824 25.6636235,1.9776 30.6823059,3.68103529 L37.4055529,5.96315294 L37.4936471,11.7989647 C34.5,15.8692235 30.1339765,18.6245647 25.1586353,19.572 C20.064,20.5420235 14.8667294,19.5155294 10.5238588,16.6815529 C8.40183529,15.2970353 5.7264,15.3561882 3.69811765,16.7440941 Z M2.30922353,35.8839529 C2.30922353,34.068 3.52461176,32.5314353 5.18442353,32.0425412 L5.18442353,38.1642353 C5.18442353,38.6930824 5.20348235,39.2189647 5.24061176,39.7414588 C3.55228235,39.2709176 2.30922353,37.7203765 2.30922353,35.8839529 Z M40.3152,51.9938824 C36.6787765,55.6303059 31.8439059,57.6331765 26.7011294,57.6337412 L26.6991529,57.6337412 C21.5556706,57.6337412 16.7172706,55.5995294 13.0764706,51.9064941 C9.44385882,48.2215059 7.44324706,43.3410353 7.44324706,38.1640941 L7.44324706,17.9457882 C8.08291765,17.9935059 8.71764706,18.2004706 9.28912941,18.5733176 C14.1238588,21.7281882 19.9095529,22.8710118 25.5808941,21.7910118 C30.1845176,20.9143059 34.3201412,18.648 37.4988706,15.3056471 L37.4988706,18.3704471 C37.4988706,23.2736471 41.2000941,27.3262588 45.9549176,27.8871529 L45.9549176,38.3776941 C45.9550588,43.5213176 43.9521882,48.3570353 40.3152,51.9938824 Z M48.1702588,39.7377882 C48.1982118,39.2868706 48.2138824,38.8335529 48.2138824,38.3778353 L48.2138824,32.0425412 C49.8736941,32.5314353 51.0890824,34.068 51.0890824,35.8839529 C51.0890824,37.7157176 49.8523765,39.2631529 48.1702588,39.7377882 Z" id="Shape"></path>
                <path d="M108.813546,29.8116129 C108.813546,27.0353548 106.802837,24.7214194 104.161546,24.2452903 C104.05845,20.9987097 103.620514,16.9912258 102.297159,13.7868387 C101.734063,12.4234839 102.045417,10.851871 103.090192,9.78309677 L106.683482,6.10722581 C106.958192,5.82619355 107.049546,5.41341935 106.918966,5.04270968 C106.788385,4.672 106.458579,4.4076129 106.068385,4.36077419 C105.77703,4.32580645 100.06374,3.67290323 95.0291594,5.46180645 C95.6481271,4.52348387 96.4286433,3.47535484 97.3428368,2.5203871 C97.6287723,2.22180645 97.7089013,1.78129032 97.5464497,1.40116129 C97.3841271,1.02103226 97.0105787,0.774322581 96.5971594,0.774322581 C91.7068368,0.774322581 87.04374,2.9523871 84.1938046,4.61729032 C84.7482562,3.72206452 85.5522562,2.73612903 86.7094175,1.85303226 C87.09174,1.56129032 87.2219336,1.04412903 87.0233529,0.606193548 C86.8246433,0.168129032 86.3498046,-0.0747096774 85.8787078,0.0206451613 C81.615611,0.882451613 77.407611,2.61625806 76.3571594,3.15019355 C73.0805142,4.816 70.3245142,7.35329032 68.3868368,10.4877419 C66.427611,13.6571613 65.3921271,17.3037419 65.3921271,21.0332903 L65.3921271,24.2500645 C62.7638691,24.7367742 60.7665787,27.0446452 60.7665787,29.8117419 C60.7665787,32.5788387 62.7638691,34.8867097 65.3921271,35.3734194 L65.3921271,39.5723871 C65.3656755,41.4870968 65.9867078,43.3815484 67.1414175,44.9073548 L74.7612884,54.9776774 C77.1245142,58.1009032 80.8736755,59.9654194 84.7900626,59.9654194 C88.7064497,59.9654194 92.455482,58.1009032 94.8187078,54.9776774 L102.438708,44.9073548 C103.570708,43.4113548 104.175611,41.6276129 104.187998,39.7396129 C104.188385,39.684 104.187998,35.3732903 104.187998,35.3732903 C106.816256,34.8865806 108.813546,32.5787097 108.813546,29.8116129 Z M62.8309658,29.8116129 C62.8309658,28.1890323 63.9122562,26.8148387 65.3919981,26.3703226 L65.3919981,33.2530323 C63.9123852,32.8083871 62.8309658,31.4343226 62.8309658,29.8116129 Z M102.123482,39.7350968 C102.114063,41.1654194 101.653805,42.5230968 100.792514,43.6615484 L93.1725142,53.731871 C91.1971594,56.3423226 88.063611,57.9007742 84.7900626,57.9007742 C81.5165142,57.9007742 78.3829658,56.3423226 76.407611,53.731871 L68.78774,43.6615484 C67.9078691,42.4985806 67.4350949,41.0543226 67.4566433,39.5948387 C67.4566433,39.5896774 67.4567723,39.5846452 67.4567723,39.5796129 L67.4566433,21.0332903 C67.4566433,17.6876129 68.3855465,14.4163871 70.1429658,11.5734194 C71.8814175,8.76103226 74.3538046,6.48464516 77.2927723,4.99058065 C77.9599981,4.65135484 80.1771594,3.72425806 82.8336755,2.92387097 C81.307611,5.08464516 80.9980626,7.0236129 80.9810304,7.13767742 C80.9187078,7.55432258 81.11574,7.96696774 81.4789658,8.1803871 C81.8421917,8.39380645 82.2987078,8.36503226 82.6322562,8.10787097 C82.6929013,8.06116129 88.0830949,3.95445161 94.2189658,3.02451613 C92.5387078,5.25741935 91.5803852,7.33032258 91.5295465,7.44154839 C91.3370304,7.86206452 91.4478691,8.35935484 91.8007723,8.65845161 C92.1536755,8.95754839 92.6624497,8.98529032 93.0456755,8.72658065 C96.2607723,6.5563871 100.901546,6.25458065 103.616256,6.2916129 L101.613934,8.33987097 C99.9910949,10 99.5101917,12.4473548 100.38903,14.5749677 C101.180256,16.4909677 102.123482,20.0149677 102.123482,25.9234839 L102.123482,25.9234839 C102.123611,25.9234839 102.123869,39.6818065 102.123482,39.7350968 Z M104.187998,33.2530323 L104.188127,26.3703226 C105.66774,26.8149677 106.74903,28.1891613 106.74903,29.8116129 C106.74903,31.4340645 105.66774,32.8083871 104.187998,33.2530323 Z" id="Shape"></path>
                <ellipse id="Oval" cx="74.7974175" cy="32.2154839" rx="1.80645161" ry="1.80645161"></ellipse>
                <ellipse id="Oval" cx="94.7827078" cy="32.2154839" rx="1.80645161" ry="1.80645161"></ellipse>
                <path d="M91.5665787,23.5340645 C91.1633529,23.9371613 91.1633529,24.5907097 91.5665787,24.9938065 C91.9696755,25.3969032 92.6232239,25.3969032 93.0263207,24.9938065 C93.9947078,24.0254194 95.5704497,24.0254194 96.5388368,24.9938065 C96.7403852,25.1953548 97.0045142,25.296129 97.2687723,25.296129 C97.5330304,25.296129 97.7971594,25.1953548 97.9987078,24.9938065 C98.4019336,24.5907097 98.4019336,23.9371613 97.9987078,23.5340645 C96.2254175,21.7607742 93.3398691,21.7607742 91.5665787,23.5340645 Z" id="Shape"></path>
                <path d="M71.5812884,23.5340645 C71.1781917,23.9371613 71.1780626,24.5907097 71.5812884,24.9938065 C71.9843852,25.3970323 72.6379336,25.3970323 73.0410304,24.9938065 C74.0094175,24.0254194 75.5852884,24.0254194 76.5535465,24.9938065 C76.7550949,25.1953548 77.0192239,25.296129 77.283482,25.296129 C77.54774,25.296129 77.8118691,25.1953548 78.0134175,24.9938065 C78.4166433,24.5907097 78.4166433,23.9371613 78.0134175,23.5340645 C76.2401271,21.7607742 73.3547078,21.7606452 71.5812884,23.5340645 Z" id="Shape"></path>
                <path d="M89.2656755,40.1623226 L80.3144497,40.1623226 C79.6322562,40.1623226 79.0064497,40.5695484 78.6401271,41.251871 C78.143482,42.1774194 78.2007723,43.4059355 78.7793529,44.2393548 C79.1696755,44.8015484 79.7645142,45.3110968 80.5980626,45.7972903 C81.9300626,46.5741935 83.3601271,46.9625806 84.7900626,46.9625806 C86.2201271,46.9625806 87.6500626,46.5740645 88.9821917,45.7972903 C89.815611,45.3110968 90.4104497,44.8015484 90.8007723,44.2393548 L90.8007723,44.2393548 C91.3793529,43.4059355 91.4366433,42.1774194 90.9398691,41.2517419 C90.5736755,40.5695484 89.9478691,40.1623226 89.2656755,40.1623226 Z M89.1049013,43.0619355 C88.9592239,43.2717419 88.6392239,43.6072258 87.9419336,44.0138065 C85.9094175,45.1993548 83.6707078,45.1993548 81.6381917,44.0138065 C80.9409013,43.6070968 80.6209013,43.2717419 80.4752239,43.0619355 C80.3569013,42.8914839 80.3233529,42.4814194 80.4592239,42.2282581 C80.459482,42.2277419 80.45974,42.2273548 80.4598691,42.2268387 L89.1201271,42.2268387 C89.1202562,42.2272258 89.1205142,42.2276129 89.1207723,42.228129 C89.2567723,42.4814194 89.2232239,42.8913548 89.1049013,43.0619355 Z" id="Shape"></path>
                <path d="M146.316114,45.2866351 C144.145877,47.456872 140.614692,47.456872 138.444597,45.2866351 C138.000427,44.8424645 137.280284,44.8424645 136.836114,45.2866351 C136.391801,45.7308057 136.391801,46.4509479 136.836114,46.8951185 C138.364692,48.4236967 140.372559,49.1879147 142.380427,49.1879147 C144.388294,49.1879147 146.396161,48.4236967 147.924739,46.8951185 C148.369052,46.4509479 148.369052,45.7308057 147.924739,45.2866351 C147.480569,44.8424645 146.760284,44.8424645 146.316114,45.2866351 Z" id="Shape"></path>
                <path d="M168.120569,56.5710427 C165.456114,53.6205213 165.343365,46.1023223 165.65872,38.3233649 C166.819336,37.2332701 167.546445,35.6866351 167.546445,33.9725118 C167.546445,32.4672512 166.985403,31.0913744 166.063081,30.0399526 C166.450664,22.1057346 166.656256,16.7998578 164.139526,11.9006161 C162.422559,8.55767773 159.64436,5.76454976 155.882275,3.59886256 C151.497583,1.07488152 146.495972,-0.164075829 141.417583,0.0174881517 C136.956825,0.176445498 132.803886,2.25469194 129.940095,5.74165877 C126.242275,5.96161137 122.878436,7.97402844 121.068626,11.0843602 C120.913223,11.3513744 120.762938,11.6259242 120.621896,11.9004739 C118.103744,16.8024171 118.309194,22.1078673 118.696777,30.0412322 C117.775024,31.0925118 117.21455,32.4678199 117.21455,33.9725118 C117.21455,35.6860664 117.94109,37.2322749 119.101137,38.3223697 C119.416493,46.1018957 119.303744,53.6206635 116.639289,56.5711848 C116.387346,56.8501422 116.289526,57.2357346 116.377962,57.6011374 C116.466398,57.9665403 116.729716,58.2646919 117.081327,58.3976303 C120.080332,59.5308057 122.984787,59.936019 125.606161,59.936019 C128.329336,59.936019 130.746967,59.4983886 132.644929,58.9851185 C135.942796,58.0933649 138.268863,56.8416114 139.062512,56.3796682 C140.142654,56.5576777 141.250664,56.6519431 142.380427,56.6519431 C143.509905,56.6519431 144.61763,56.5578199 145.697488,56.3798104 C146.49128,56.8418957 148.817204,58.0933649 152.114787,58.9851185 C154.646588,59.6697156 156.993697,59.9374408 159.117014,59.9374408 C162.654028,59.9374408 165.569431,59.1942654 167.678389,58.397346 C168.030142,58.2644076 168.293318,57.9663981 168.381754,57.6008531 C168.470332,57.2355924 168.372512,56.8501422 168.120569,56.5710427 Z M162.71218,36.3203318 L162.71218,30.6736493 C162.712464,30.6587204 162.712464,30.6436493 162.71218,30.6285782 L162.71218,30.455545 C164.195545,30.9365403 165.271422,32.3309005 165.271422,33.9723697 C165.271422,35.6269194 164.178768,37.03109 162.677062,37.5011374 C162.699526,37.1102844 162.71218,36.716872 162.71218,36.3203318 Z M122.645403,12.9399526 C122.768389,12.7006635 122.899336,12.4612322 123.034834,12.2284834 C124.532986,9.65374408 127.398341,8.03232227 130.512654,7.99691943 C130.516209,7.99691943 130.524739,7.99677725 130.528436,7.99663507 C130.873934,7.98938389 131.197251,7.82559242 131.407536,7.55146919 C133.862275,4.34943128 137.540332,2.43199052 141.498626,2.29080569 C146.150616,2.12488152 150.732085,3.25905213 154.747109,5.57033175 C158.123175,7.51379147 160.60237,9.99327014 162.115735,12.9399526 C164.130142,16.8612796 164.189858,21.1268246 163.859573,28.4560664 C163.493886,28.3040758 163.11,28.1879147 162.71218,28.1107109 L162.71218,26.9540758 C162.71218,26.3259242 162.202891,25.8166351 161.574739,25.8166351 C160.946588,25.8166351 160.437299,26.3259242 160.437299,26.9540758 L160.437299,29.537346 C144.769194,29.7046919 136.287299,22.1579147 134.024076,19.7967299 C133.757773,19.51891 133.369052,19.3946445 132.991422,19.4661611 C132.613365,19.5376777 132.297156,19.7954502 132.150853,20.151327 C130.498009,24.1718957 127.61019,26.2754502 123.062986,26.77109 C122.485877,26.8339336 122.048815,27.321327 122.048815,27.9018483 L122.048815,28.1105687 C121.650569,28.1877725 121.266256,28.3040758 120.900284,28.4563507 C120.569858,21.1288152 120.63,16.8634123 122.645403,12.9399526 Z M122.083791,37.5012796 C120.582085,37.0312322 119.489431,35.6270616 119.489431,33.9725118 C119.489431,32.3309005 120.565308,30.9365403 122.048673,30.4556872 L122.048673,36.3203318 C122.048673,36.716872 122.061327,37.1102844 122.083791,37.5012796 Z M119.305166,56.7501896 C121.333507,53.2881043 121.685261,47.5327962 121.427346,39.6793365 C121.729336,39.7726066 122.041848,39.8414218 122.362038,39.885782 C123.655735,47.1692417 128.8409,53.1234597 135.683602,55.5174882 C132.392559,56.9336019 126.163649,58.8100948 119.305166,56.7501896 Z M142.380427,54.3770616 C132.423839,54.3770616 124.323555,46.2767773 124.323555,36.3201896 L124.323697,28.8945498 C128.589526,28.1926066 131.626635,26.0926066 133.551896,22.5093839 C135.190664,24.0044076 137.840332,26.0547867 141.57455,27.8518009 C147.189242,30.5537915 153.530047,31.8864455 160.437299,31.812654 L160.437299,36.3201896 C160.437299,46.2769194 152.337014,54.3770616 142.380427,54.3770616 Z M152.78346,56.8091943 C151.324976,56.4193365 150.06654,55.9482938 149.073128,55.51891 C155.917962,53.126019 161.104976,47.1708057 162.398957,39.885782 C162.718863,39.8414218 163.030948,39.7727488 163.332654,39.6796209 C163.074597,47.5340758 163.426209,53.2893839 165.455545,56.751327 C161.438531,57.9648341 157.183081,57.9853081 152.78346,56.8091943 Z" id="Shape"></path>
                <path d="M128.785166,32.9493839 C128.340853,33.3935545 128.340853,34.1136967 128.785166,34.5578673 C129.229336,35.0020379 129.949479,35.0020379 130.393649,34.5578673 C131.122749,33.8290521 132.308815,33.82891 133.037915,34.5578673 C133.26,34.7799526 133.551043,34.8909953 133.842227,34.8909953 C134.133412,34.8909953 134.424455,34.7799526 134.64654,34.5578673 C135.090853,34.1136967 135.090853,33.3935545 134.64654,32.9493839 C133.030664,31.3333649 130.401043,31.3332227 128.785166,32.9493839 Z" id="Shape"></path>
                <path d="M155.975829,34.5578673 C156.420142,34.1136967 156.420142,33.3935545 155.975829,32.9493839 C154.35981,31.3333649 151.730332,31.3333649 150.114455,32.9493839 C149.670142,33.3935545 149.670142,34.1136967 150.114455,34.5578673 C150.558626,35.0020379 151.278768,35.0020379 151.722938,34.5578673 C152.452038,33.82891 153.638246,33.8290521 154.367204,34.5578673 C154.589289,34.7799526 154.880332,34.8909953 155.171517,34.8909953 C155.462701,34.8909953 155.753744,34.7799526 155.975829,34.5578673 Z" id="Shape"></path>
            </g>
        </g>
    </g>
</svg>