<?xml version="1.0" encoding="UTF-8"?>
<svg width="40px" height="40px" viewBox="0 0 40 40" version="1.1" xmlns="http://www.w3.org/2000/svg" xmlns:xlink="http://www.w3.org/1999/xlink">
    <!-- Generator: sketchtool 41.2 (35397) - http://www.bohemiancoding.com/sketch -->
    <title>DDDAD3B4-2F47-4E56-AB68-02E94FFDD055</title>
    <desc>Created with sketchtool.</desc>
    <defs></defs>
    <g id="Page-1" stroke="none" stroke-width="1" fill="none" fill-rule="evenodd">
        <g id="Main-Page" transform="translate(-1150.000000, -4020.000000)">
            <g id="Group-21" transform="translate(1040.000000, 4020.000000)">
                <g id="google-+" transform="translate(110.000000, 0.000000)">
                    <path d="M20,40 C31.045695,40 40,31.045695 40,20 C40,8.954305 31.045695,0 20,0 C8.954305,0 0,8.954305 0,20 C0,31.045695 8.954305,40 20,40 Z" id="Oval-32" fill="#DD4B39"></path>
                    <path d="M16.0985425,19.014837 L16.0985425,21.985163 C16.0985425,21.985163 18.8256411,21.981074 19.9360864,21.981074 C19.3346183,23.9069668 18.3997396,24.9554889 16.0985425,24.9554889 C13.7696534,24.9554889 11.9519569,22.9606683 11.9519569,20.4997079 C11.9519569,18.0393317 13.7696534,16.0445111 16.0985425,16.0445111 C17.3297245,16.0445111 18.1250359,16.5018887 18.8544407,17.1391799 C19.438186,16.5223334 19.3894482,16.4341291 20.8748419,14.9521788 C19.6137526,13.7395148 17.9378387,13 16.0985425,13 C12.1784766,13 9,16.3576074 9,20.4997079 C9,24.6418085 12.1784766,28 16.0985425,28 C21.9581492,28 23.3903744,22.609019 22.9157352,19.014837 L16.0985425,19.014837 Z M29.4481202,19.5518682 L29.4481202,17 L27.625431,17 L27.625431,19.5518682 L25,19.5518682 L25,21.3747132 L27.625431,21.3747132 L27.625431,24 L29.4481202,24 L29.4481202,21.3747132 L32,21.3747132 L32,19.5518682 L29.4481202,19.5518682 Z" id="Google+" fill="#FFFFFF"></path>
                </g>
            </g>
        </g>
    </g>
</svg>