<?xml version="1.0" encoding="UTF-8"?>
<svg width="1389px" height="517px" viewBox="0 0 1389 517" version="1.1" xmlns="http://www.w3.org/2000/svg" xmlns:xlink="http://www.w3.org/1999/xlink">
    <!-- Generator: Sketch 41.2 (35397) - http://www.bohemiancoding.com/sketch -->
    <title>Group 10</title>
    <desc>Created with Sketch.</desc>
    <defs>
        <filter x="-50%" y="-50%" width="200%" height="200%" filterUnits="objectBoundingBox" id="filter-1">
            <feGaussianBlur stdDeviation="0 0" in="SourceGraphic"></feGaussianBlur>
        </filter>
        <filter x="-50%" y="-50%" width="200%" height="200%" filterUnits="objectBoundingBox" id="filter-2">
            <feGaussianBlur stdDeviation="0 0" in="SourceGraphic"></feGaussianBlur>
        </filter>
        <filter x="-50%" y="-50%" width="200%" height="200%" filterUnits="objectBoundingBox" id="filter-3">
            <feGaussianBlur stdDeviation="0 -0" in="SourceGraphic"></feGaussianBlur>
        </filter>
        <path d="M11.1489876,19.4040498 C13.8281278,8.68748899 24.9624569,0 36.0034354,0 L553.996565,0 C565.044157,0 571.826351,8.69459683 569.148988,19.4040498 L558.851012,60.5959502 C556.171872,71.312511 545.037543,80 533.996565,80 L16.0034354,80 C4.95584307,80 -1.82635079,71.3054032 0.851012438,60.5959502 L11.1489876,19.4040498 Z" id="path-4"></path>
        <mask id="mask-5" maskContentUnits="userSpaceOnUse" maskUnits="objectBoundingBox" x="0" y="0" width="569.465951" height="80" fill="white">
            <use xlink:href="#path-4"></use>
        </mask>
        <path d="M341.148988,19.4040498 C343.828128,8.68748899 354.955119,0 366.006595,0 L593.993405,0 C605.042742,0 611.826351,8.69459683 609.148988,19.4040498 L598.851012,60.5959502 C596.171872,71.312511 585.044881,80 573.993405,80 L346.006595,80 C334.957258,80 328.173649,71.3054032 330.851012,60.5959502 L341.148988,19.4040498 Z" id="path-6"></path>
        <mask id="mask-7" maskContentUnits="userSpaceOnUse" maskUnits="objectBoundingBox" x="0" y="0" width="279.465774" height="80" fill="white">
            <use xlink:href="#path-6"></use>
        </mask>
        <text id="text-8" font-family=".SFNSDisplay, .SF NS Display" font-size="45" font-weight="normal" fill="#FFFFFF">
            <tspan x="54.4865723" y="56.5">IT BOWLING </tspan>
        </text>
        <filter x="-50%" y="-50%" width="200%" height="200%" filterUnits="objectBoundingBox" id="filter-9">
            <feOffset dx="2" dy="4" in="SourceAlpha" result="shadowOffsetOuter1"></feOffset>
            <feColorMatrix values="0 0 0 0 0.97254902   0 0 0 0 0.662745098   0 0 0 0 0.160784314  0 0 0 1 0" type="matrix" in="shadowOffsetOuter1"></feColorMatrix>
        </filter>
        <text id="text-10" font-family=".SFNSDisplay, .SF NS Display" font-size="45" font-weight="normal" fill="#FFFFFF">
            <tspan x="390.140381" y="56.5">BATTLE</tspan>
        </text>
        <filter x="-50%" y="-50%" width="200%" height="200%" filterUnits="objectBoundingBox" id="filter-11">
            <feOffset dx="2" dy="4" in="SourceAlpha" result="shadowOffsetOuter1"></feOffset>
            <feColorMatrix values="0 0 0 0 0.031372549   0 0 0 0 0.505882353   0 0 0 0 0.792156863  0 0 0 1 0" type="matrix" in="shadowOffsetOuter1"></feColorMatrix>
        </filter>
    </defs>
    <g id="Page-1" stroke="none" stroke-width="1" fill="none" fill-rule="evenodd">
        <g id="Main-Page" transform="translate(0.000000, -111.000000)">
            <g id="Group-10" transform="translate(-107.000000, 100.000000)">
                <path d="M162.228792,26.5397421 L162.228792,26.7764267 C156.933833,27.0894888 151.461664,28.4738898 146.725886,31.746823 C141.129561,35.6144889 136.652309,41.954408 134.536583,51.0366955 C131.738446,63.0484 134.239991,75.0851388 137.140123,86.8945592 C140.04026,98.7039753 143.25814,110.2465 142.465549,121.568991 C140.863444,144.455557 132.010435,169.417573 123.530704,193.048029 C115.072464,216.618599 107.078352,239.018017 107.436086,257.308156 C107.434516,257.34394 107.437556,257.390713 107.436086,257.426498 C107.051758,266.790101 110.156158,284.112641 115.956764,302.396751 C121.779548,320.75076 130.215395,339.820948 140.808748,351.62735 L140.927091,351.745692 C144.142672,354.591486 149.25856,355.449567 153.708114,356.006029 C158.157664,356.562495 161.755422,356.597745 161.755422,356.597745 L161.992107,356.597745 L165.305705,356.597745 C165.305705,356.597745 165.524287,356.597981 165.54239,356.597745 C165.578175,356.597745 165.625284,356.600494 165.660732,356.597745 C166.159715,356.590588 169.354693,356.521039 173.471356,356.006029 C177.920902,355.449567 183.15514,354.591486 186.370717,351.745692 L186.370717,351.62735 L186.48906,351.62735 C197.082413,339.820948 205.518268,320.75076 211.341044,302.396751 C217.14602,284.098849 220.251721,266.666631 219.861726,257.308156 C219.860526,257.279528 219.86298,257.218357 219.861726,257.189813 C220.228036,238.89453 212.229554,216.630328 203.767105,193.048029 C195.287373,169.417573 186.316021,144.5739 184.71392,121.687333 C183.921321,110.364838 187.257552,98.7039753 190.157685,86.8945592 C193.057822,75.0851388 195.559375,63.0484 192.761229,51.0366955 C190.645495,41.954408 186.049909,35.6144889 180.453579,31.746823 C175.717802,28.4738902 170.337915,26.9776613 165.069021,26.6580836 C164.990294,26.6563339 164.911231,26.6593141 164.832336,26.6580836 C163.95502,26.6110708 163.097061,26.5204469 162.228796,26.5397412 L162.228792,26.5397421 Z M163.648904,35.8073703 C168.076538,35.9216107 172.632104,37.075686 176.491654,39.7430512 C180.713632,42.6608905 184.223968,47.2877171 185.916576,54.5536404 C188.152266,64.1508825 186.157319,74.123381 183.638021,84.3819605 C181.508024,93.055349 178.949417,101.901012 178.666635,110.89602 C168.717929,110.440938 158.723643,110.304572 148.631174,110.999591 C148.364935,101.968736 145.798053,93.0890028 143.659787,84.3819605 C141.140501,74.123381 139.145546,64.1508825 141.381236,54.5536404 C143.073844,47.2877171 146.584184,42.6608905 150.806155,39.7430512 C154.695766,37.0549115 159.202679,35.9011398 163.648904,35.8073703 L163.648904,35.8073703 Z M178.044131,131.562831 C178.645485,136.050567 179.579672,140.553877 180.678552,145.111279 C169.972936,144.188924 158.747159,143.948347 146.619261,145.017193 C147.693148,140.552722 148.656692,136.148823 149.253678,131.751003 C154.120051,131.445985 159.011916,131.297137 163.837077,131.280572 C168.593552,131.264172 173.318445,131.363647 178.044131,131.562831 Z M163.431037,168.959649 C171.38426,168.948413 179.268608,169.150007 187.174405,169.613134 C190.237124,179.632377 193.818496,189.635277 197.303453,199.346802 C205.107454,221.094193 212.352266,241.432594 212.006914,257.180414 L212.006914,257.289328 C212.341677,264.855213 209.438079,281.075537 204.16507,297.696614 C198.909106,314.26396 191.236154,331.423378 182.164336,341.589168 C180.469476,343.089126 176.095278,344.267189 172.253112,344.74769 C168.613168,345.202905 165.70742,345.186326 165.391499,345.18335 L165.173671,345.18335 L162.124064,345.18335 C162.124064,345.18335 158.886785,345.228179 155.044619,344.74769 C151.202454,344.267189 146.828259,342.980212 145.133399,341.480254 C136.100183,331.302131 128.26245,314.209541 123.023751,297.696614 C117.750738,281.075541 114.956039,264.964128 115.290817,257.398242 L115.290817,257.289328 C114.945477,241.541512 122.190281,221.094193 129.994278,199.346802 C133.479235,189.635277 137.060612,179.632377 140.12333,169.613134 C147.904367,169.206998 155.689537,168.970444 163.431037,168.959649 Z" id="Shape-Copy-9" fill="#0881CA" opacity="0.465296649" transform="translate(163.649348, 191.568027) rotate(771.000000) translate(-163.649348, -191.568027) "></path>
                <path d="M435.811063,281.778704 L435.811063,281.998178 C430.90115,282.288474 425.826914,283.572202 421.435519,286.60713 C416.246154,290.193542 412.094486,296.072426 410.132614,304.494256 C407.537955,315.632477 409.857589,326.793912 412.546826,337.744559 C415.236067,348.695202 418.219945,359.398362 417.484991,369.897489 C415.99939,391.119759 407.790166,414.266554 399.927074,436.178619 C392.083912,458.035152 384.671127,478.805699 385.002847,495.765791 C385.001391,495.798973 385.00421,495.842345 385.002847,495.875527 C384.646467,504.558215 387.525117,520.621072 392.903907,537.575573 C398.303262,554.594891 406.12566,572.278307 415.948671,583.226155 L416.058408,583.335892 C419.040154,585.974742 423.784018,586.770424 427.910003,587.28642 C432.035985,587.80242 435.372117,587.835107 435.372117,587.835107 L435.59159,587.835107 L438.664225,587.835107 C438.664225,587.835107 438.866912,587.835325 438.883698,587.835107 C438.916881,587.835107 438.960565,587.837656 438.993435,587.835107 C439.456132,587.82847 442.418773,587.763979 446.236076,587.28642 C450.362053,586.770424 455.215661,585.974742 458.197404,583.335892 L458.197404,583.226155 L458.30714,583.226155 C468.130152,572.278307 475.952557,554.594891 481.351904,537.575573 C486.734746,520.608283 489.614603,504.443724 489.252968,495.765791 C489.251856,495.739245 489.254131,495.682522 489.252968,495.656054 C489.59264,478.691192 482.175803,458.046028 474.328737,436.178619 C466.465646,414.266554 458.146685,391.229496 456.661088,370.007226 C455.926126,359.508095 459.019749,348.695202 461.708985,337.744559 C464.398226,326.793912 466.717868,315.632477 464.123202,304.494256 C462.161322,296.072426 457.899924,290.193542 452.710556,286.60713 C448.319161,283.572203 443.330496,282.184779 438.444752,281.88844 C438.371751,281.886818 438.298437,281.889581 438.225279,281.88844 C437.411761,281.844846 436.616192,281.760812 435.811067,281.778704 L435.811063,281.778704 Z M437.127906,290.372397 C441.233565,290.47833 445.457854,291.548482 449.036739,294.021878 C452.951698,296.727534 456.206765,301.0179 457.776287,307.755451 C459.849399,316.654788 457.999523,325.902093 455.663428,335.414675 C453.688322,343.45734 451.315775,351.659752 451.053557,360.00065 C441.828315,359.578661 432.560807,359.452212 423.202255,360.096688 C422.955377,351.722551 420.575157,343.488547 418.592385,335.414675 C416.256299,325.902093 414.406416,316.654788 416.479528,307.755451 C418.049051,301.0179 421.304121,296.727534 425.219073,294.021878 C428.825834,291.529218 433.005007,290.459348 437.127906,290.372397 L437.127906,290.372397 Z M450.476321,379.164583 C451.033945,383.325974 451.900199,387.501806 452.919168,391.727797 C442.992058,390.872515 432.582613,390.649432 421.336647,391.640553 C422.332441,387.500736 423.225917,383.417085 423.779491,379.339072 C428.291985,379.056234 432.828116,378.918211 437.302395,378.902851 C441.712982,378.887643 446.094284,378.979884 450.476321,379.164583 Z M436.925882,413.84193 C444.300751,413.831511 451.611755,414.018445 458.942648,414.447894 C461.782648,423.738544 465.103585,433.01404 468.335118,442.019349 C475.571618,462.185284 482.289591,481.04469 481.969353,495.647338 L481.969353,495.748332 C482.279772,502.764032 479.587322,517.804824 474.697763,533.217228 C469.824009,548.579806 462.709029,564.491403 454.296908,573.917944 C452.725297,575.308826 448.669187,576.40122 445.106422,576.846779 C441.731172,577.268892 439.036728,577.253518 438.743781,577.250759 L438.541793,577.250759 L435.713951,577.250759 C435.713951,577.250759 432.712084,577.292328 429.149319,576.846779 C425.586553,576.40122 421.530447,575.207832 419.958836,573.81695 C411.58251,564.378973 404.314732,548.529345 399.456987,533.217228 C394.567424,517.804827 391.975954,502.865026 392.286387,495.849326 L392.286387,495.748332 C391.96616,481.145687 398.684126,462.185284 405.920622,442.019349 C409.152156,433.01404 412.473096,423.738544 415.313096,414.447894 C422.528301,414.071291 429.747339,413.851939 436.925882,413.84193 Z" id="Shape-Copy-11" fill="#0881CA" opacity="0.194519928" transform="translate(437.128317, 434.806241) rotate(659.000000) translate(-437.128317, -434.806241) "></path>
                <path d="M1413.38965,26.1979345 L1413.38965,26.44394 C1407.88617,26.7693306 1402.19851,28.2082506 1397.27623,31.6100747 C1391.45952,35.6300526 1386.80595,42.2196431 1384.6069,51.6595987 C1381.69857,64.1443344 1384.29863,76.6550901 1387.31297,88.9295755 C1390.32732,101.204057 1393.67192,113.201136 1392.84812,124.969516 C1391.18292,148.757375 1381.98127,174.702416 1373.1676,199.26346 C1364.37627,223.762258 1356.06734,247.043784 1356.43916,266.054204 C1356.43753,266.091398 1356.44069,266.140013 1356.43916,266.177207 C1356.0397,275.909557 1359.26635,293.914273 1365.29539,312.918427 C1371.34748,331.995232 1380.11554,351.81642 1391.12607,364.087768 L1391.24907,364.210771 C1394.59129,367.168635 1399.90864,368.060508 1404.53342,368.638884 C1409.1582,369.217264 1412.89764,369.253902 1412.89764,369.253902 L1413.14365,369.253902 L1416.58774,369.253902 C1416.58774,369.253902 1416.81493,369.254147 1416.83374,369.253902 C1416.87094,369.253902 1416.9199,369.256759 1416.95675,369.253902 C1417.47538,369.246463 1420.79618,369.174175 1425.07496,368.638884 C1429.69973,368.060508 1435.1401,367.168635 1438.48231,364.210771 L1438.48231,364.087768 L1438.60531,364.087768 C1449.61584,351.81642 1458.38391,331.995232 1464.43599,312.918427 C1470.46957,293.899938 1473.69757,275.781224 1473.29222,266.054204 C1473.29097,266.024449 1473.29352,265.960869 1473.29222,265.931201 C1473.67296,246.915434 1465.35949,223.774449 1456.56378,199.26346 C1447.75011,174.702416 1438.42546,148.880378 1436.76027,125.092519 C1435.93645,113.324134 1439.40407,101.204057 1442.41841,88.9295755 C1445.43276,76.6550901 1448.03282,64.1443344 1445.12448,51.6595987 C1442.92543,42.2196431 1438.14887,35.6300526 1432.33215,31.6100747 C1427.40987,28.208251 1421.81812,26.6530994 1416.34173,26.3209363 C1416.25991,26.3191178 1416.17773,26.3222154 1416.09573,26.3209363 C1415.18386,26.2720722 1414.29212,26.1778795 1413.38966,26.1979336 L1413.38965,26.1979345 Z M1414.86569,35.8305298 C1419.46769,35.949269 1424.20266,37.1487928 1428.2142,39.9212012 C1432.60244,42.9539474 1436.25102,47.7629824 1438.01028,55.3150439 C1440.33402,65.2902336 1438.26051,75.6554575 1435.642,86.3180286 C1433.42812,95.3329825 1430.76875,104.526995 1430.47483,113.876235 C1420.13434,113.403231 1409.74647,113.261495 1399.25655,113.983884 C1398.97983,104.597386 1396.31186,95.3679617 1394.08939,86.3180286 C1391.47089,75.6554575 1389.39737,65.2902336 1391.7211,55.3150439 C1393.48037,47.7629824 1397.12895,42.9539474 1401.51718,39.9212012 C1405.55997,37.1272002 1410.24437,35.927992 1414.86569,35.8305298 L1414.86569,35.8305298 Z M1429.82781,135.356922 C1430.45285,140.021389 1431.42383,144.702043 1432.56598,149.438919 C1421.43877,148.480241 1409.77091,148.23019 1397.16541,149.341128 C1398.28158,144.700842 1399.28307,140.123514 1399.90357,135.552504 C1404.96158,135.235474 1410.04609,135.080765 1415.06127,135.063548 C1420.00506,135.046501 1424.91603,135.149893 1429.82781,135.356922 Z M1414.63924,174.226459 C1422.90567,174.21478 1431.10051,174.424313 1439.31765,174.905678 C1442.50098,185.319488 1446.22339,195.71631 1449.84558,205.810283 C1457.95691,228.414105 1465.48703,249.55345 1465.12808,265.921432 L1465.12808,266.034635 C1465.47603,273.898472 1462.45808,290.757565 1456.97742,308.033195 C1451.51447,325.252976 1443.53935,343.088147 1434.11028,353.654275 C1432.34867,355.213302 1427.80221,356.437758 1423.80874,356.937181 C1420.02545,357.410323 1417.00527,357.393091 1416.67691,357.389998 L1416.4505,357.389998 L1413.2808,357.389998 C1413.2808,357.389998 1409.91603,357.436593 1405.92256,356.937181 C1401.92909,356.437758 1397.38263,355.100099 1395.62103,353.541072 C1386.23208,342.962125 1378.08569,325.196415 1372.64068,308.033195 C1367.16002,290.757569 1364.25526,274.011675 1364.60322,266.147838 L1364.60322,266.034635 C1364.24428,249.666657 1371.77439,228.414105 1379.88572,205.810283 C1383.50791,195.71631 1387.23033,185.319488 1390.41366,174.905678 C1398.50112,174.483548 1406.59288,174.237678 1414.63924,174.226459 Z" id="Shape-Copy-10" fill="#0881CA" opacity="0.682065217" transform="translate(1414.866152, 197.725173) rotate(741.000000) translate(-1414.866152, -197.725173) "></path>
                <g id="Group-6" transform="translate(437.000000, 0.000000)">
                    <path d="M70.3171087,182.877489 L70.3171087,182.974296 C68.1513953,183.102343 65.9132003,183.668583 63.9762,185.007259 C61.6872234,186.589189 59.8559639,189.182306 58.9906018,192.897091 C57.8461238,197.810049 58.8692912,202.733246 60.0554866,207.563467 C61.2416838,212.393686 62.5578425,217.114743 62.2336617,221.745802 C61.5783779,231.106733 57.9573714,241.316552 54.4890406,250.981745 C51.0295003,260.622443 47.7597951,269.784123 47.9061134,277.26505 C47.9054712,277.279686 47.9067144,277.298817 47.9061134,277.313453 C47.7489177,281.1433 49.0186615,288.228465 51.3911918,295.706926 C53.7727933,303.213977 57.2231746,311.013955 61.5560065,315.842941 L61.6044102,315.891344 C62.9196287,317.055315 65.0120994,317.406282 66.8320303,317.633883 C68.6519594,317.861485 70.1234939,317.875903 70.1234939,317.875903 L70.2203013,317.875903 L71.57561,317.875903 C71.57561,317.875903 71.6650131,317.875999 71.6724174,317.875903 C71.6870539,317.875903 71.7063224,317.877027 71.7208211,317.875903 C71.9249122,317.872976 73.2317036,317.844529 74.9154773,317.633883 C76.7354047,317.406282 78.8762826,317.055315 80.1914994,315.891344 L80.1914994,315.842941 L80.2399031,315.842941 C84.572735,311.013955 88.0231197,303.213977 90.4047177,295.706926 C92.7790354,288.222824 94.0493114,281.092799 93.8897978,277.26505 C93.8893071,277.253341 93.890311,277.228321 93.8897978,277.216646 C94.0396237,269.733615 90.7681312,260.62724 87.306869,250.981745 C83.8385382,241.316552 80.169128,231.155137 79.5138459,221.794206 C79.1896617,217.163145 80.5542275,212.393686 81.7404229,207.563467 C82.9266201,202.733246 83.9497909,197.810049 82.8053095,192.897091 C81.939944,189.182306 80.0602842,186.589189 77.7713059,185.007259 C75.8343055,183.668583 73.6338555,183.056604 71.4788026,182.925892 C71.4466024,182.925177 71.4142643,182.926396 71.3819952,182.925892 C71.0231604,182.906663 70.672243,182.869597 70.3171104,182.877489 L70.3171087,182.877489 Z M70.8979549,186.668081 C72.7089202,186.714806 74.5722114,187.18684 76.1508219,188.27783 C77.8776711,189.471268 79.3134485,191.363706 80.0057492,194.335571 C80.9201781,198.26098 80.1042163,202.339873 79.0737878,206.535778 C78.2025886,210.083317 77.156082,213.701319 77.04042,217.380406 C72.9712581,217.19427 68.8834532,217.138495 64.7554898,217.422767 C64.6465943,213.729019 63.5967029,210.097082 62.722122,206.535778 C61.6916981,202.339873 60.8757333,198.26098 61.7901622,194.335571 C62.4824629,191.363706 63.9182417,189.471268 65.645088,188.27783 C67.2359941,187.178343 69.0793854,186.706434 70.8979549,186.668081 L70.8979549,186.668081 Z M76.7858071,225.833425 C77.0317696,227.668973 77.4138653,229.51089 77.8633226,231.374933 C73.4845738,230.997676 68.8930716,230.899277 63.9325886,231.33645 C64.3718236,229.510418 64.7659268,227.709161 65.0101028,225.91039 C67.0005186,225.785633 69.0013607,225.724752 70.9749201,225.717977 C72.9203862,225.711269 74.8529344,225.751956 76.7858071,225.833425 Z M70.8088443,241.129255 C74.0618252,241.124659 77.2866356,241.207114 80.5202191,241.39654 C81.7729146,245.494552 83.2377467,249.585881 84.6631438,253.558032 C87.8550911,262.453025 90.8183221,270.77172 90.6770682,277.212802 L90.6770682,277.257349 C90.8139909,280.351904 89.6263782,286.986246 87.4696426,293.784503 C85.3198784,300.560783 82.1815322,307.579229 78.4710297,311.737182 C77.7778078,312.350686 75.9886986,312.83253 74.4171983,313.029062 C72.9284094,313.215251 71.7399171,313.20847 71.6107011,313.207253 L71.5216062,313.207253 L70.2742736,313.207253 C70.2742736,313.207253 68.9501803,313.225589 67.37868,313.029062 C65.8071796,312.83253 64.0180721,312.306139 63.3248501,311.692634 C59.6301365,307.529637 56.4243924,300.538525 54.2816898,293.784503 C52.1249526,286.986248 50.981881,280.396451 51.11881,277.301896 L51.11881,277.257349 C50.9775609,270.816269 53.9407887,262.453025 57.1327344,253.558032 C58.5581316,249.585881 60.0229653,245.494552 61.2756607,241.39654 C64.4582152,241.230424 67.6424606,241.13367 70.8088443,241.129255 Z" id="Shape-Copy" fill="#F28422" filter="url(#filter-1)" transform="translate(70.898136, 250.376403) rotate(245.000000) translate(-70.898136, -250.376403) "></path>
                    <path d="M694.924142,256.65998 L694.924142,256.774714 C692.35737,256.926473 689.704695,257.597572 687.408991,259.184152 C684.696129,261.059032 682.525748,264.132356 681.500133,268.535064 C680.143715,274.357828 681.356358,280.192729 682.762219,285.917435 C684.168082,291.642139 685.727974,297.237466 685.34376,302.726129 C684.567127,313.820566 680.275564,325.921092 676.16495,337.376135 C672.064754,348.802147 668.189548,359.660435 668.362962,368.526718 C668.362201,368.544065 668.363674,368.566739 668.362962,368.584086 C668.176656,373.123163 669.681538,381.520396 672.493425,390.383757 C675.316064,399.281002 679.405405,408.52542 684.540613,414.248663 L684.59798,414.306031 C686.156758,415.685551 688.636723,416.101512 690.793678,416.371261 C692.950631,416.641012 694.694672,416.6581 694.694672,416.6581 L694.809407,416.6581 L696.415699,416.6581 C696.415699,416.6581 696.521658,416.658214 696.530433,416.6581 C696.54778,416.6581 696.570617,416.659433 696.587801,416.6581 C696.829686,416.654631 698.378476,416.620916 700.37406,416.371261 C702.531011,416.101512 705.068348,415.685551 706.627123,414.306031 L706.627123,414.248663 L706.684491,414.248663 C711.819699,408.52542 715.909044,399.281002 718.731678,390.383757 C721.545684,381.51371 723.051197,373.06331 722.862144,368.526718 C722.861562,368.512841 722.862752,368.483188 722.862144,368.469351 C723.039715,359.600574 719.16239,348.807833 715.060154,337.376135 C710.949539,325.921092 706.600609,313.877933 705.823978,302.783496 C705.43976,297.294831 707.057023,291.642139 708.462884,285.917435 C709.868748,280.192729 711.081395,274.357828 709.724972,268.535064 C708.699354,264.132356 706.471609,261.059032 703.758746,259.184152 C701.463042,257.597573 698.855101,256.872264 696.300964,256.717347 C696.262801,256.716498 696.224474,256.717943 696.186229,256.717347 C695.760944,256.694557 695.345042,256.650626 694.924144,256.659979 L694.924142,256.65998 Z M695.612552,261.152533 C697.758881,261.207912 699.967226,261.767358 701.838172,263.060384 C703.884808,264.474829 705.58647,266.717718 706.406975,270.239929 C707.490742,274.892265 706.523677,279.726509 705.302428,284.699434 C704.269896,288.903925 703.029591,293.191927 702.892511,297.552325 C698.0698,297.331721 693.224994,297.265616 688.332593,297.602532 C688.203532,293.224756 686.959216,288.920239 685.922676,284.699434 C684.701433,279.726509 683.734363,274.892265 684.818131,270.239929 C685.638635,266.717718 687.340299,264.474829 689.386932,263.060384 C691.27245,261.757288 693.45721,261.197988 695.612552,261.152533 L695.612552,261.152533 Z M702.590747,307.570718 C702.882258,309.746183 703.335112,311.929196 703.867803,314.138431 C698.678174,313.691313 693.236394,313.574691 687.357303,314.092822 C687.877878,311.928636 688.344963,309.793813 688.634357,307.661936 C690.993368,307.514076 693.364737,307.441921 695.70377,307.433892 C698.009507,307.425941 700.299935,307.474162 702.590747,307.570718 Z M695.506939,325.69911 C699.362324,325.693663 703.184322,325.791387 707.016717,326.015892 C708.501393,330.872796 710.23749,335.721777 711.92685,340.429513 C715.709899,350.971726 719.221876,360.83092 719.054464,368.464795 L719.054464,368.517592 C719.216743,372.185212 717.809202,380.048137 715.253071,388.10533 C712.705202,396.136476 708.985681,404.454634 704.588048,409.382579 C703.766452,410.109695 701.646026,410.680769 699.783507,410.913696 C698.019017,411.134365 696.610433,411.126328 696.457288,411.124885 L696.351694,411.124885 L694.873374,411.124885 C694.873374,411.124885 693.304078,411.146617 691.441559,410.913696 C689.57904,410.680769 687.458617,410.056898 686.63702,409.329782 C682.258101,404.395859 678.4587,396.110097 675.919201,388.10533 C673.363068,380.048139 672.008316,372.238009 672.170602,368.570389 L672.170602,368.517592 C672.003196,360.883718 675.51517,350.971726 679.298217,340.429513 C680.987576,335.721777 682.723675,330.872796 684.208351,326.015892 C687.980268,325.819014 691.754188,325.704343 695.506939,325.69911 Z" id="Shape-Copy-2" fill="#F28422" transform="translate(695.612767, 336.658692) rotate(333.000000) translate(-695.612767, -336.658692) "></path>
                    <path d="M611.65051,-3.09449666 L611.65051,-2.99338672 C609.388543,-2.85964894 607.050873,-2.26824302 605.027783,-0.870070113 C602.637074,0.782168243 600.724426,3.4905349 599.820603,7.3704211 C598.625259,12.5017327 599.693901,17.6437386 600.932816,22.6886359 C602.171733,27.7335313 603.546388,32.6644128 603.207799,37.5012973 C602.523391,47.2782697 598.741451,57.9418587 595.118972,68.0366152 C591.505675,78.1057884 588.090649,87.6746545 588.243471,95.4880669 C588.2428,95.5033539 588.244098,95.5233349 588.243471,95.5386219 C588.079288,99.538684 589.405465,106.938745 591.883442,114.749582 C594.370892,122.590279 597.974624,130.736923 602.500026,135.780531 L602.550581,135.831086 C603.924253,137.046788 606.109723,137.413354 608.010539,137.65107 C609.911354,137.888788 611.44829,137.903847 611.44829,137.903847 L611.5494,137.903847 L612.964945,137.903847 C612.964945,137.903847 613.058321,137.903948 613.066055,137.903847 C613.081342,137.903847 613.101467,137.905021 613.11661,137.903847 C613.329772,137.90079 614.694643,137.871079 616.453251,137.65107 C618.354064,137.413354 620.590092,137.046788 621.963763,135.831086 L621.963763,135.780531 L622.014318,135.780531 C626.53972,130.736923 630.143455,122.590279 632.630902,114.749582 C635.110745,106.932853 636.437477,99.4859385 636.270874,95.4880669 C636.270362,95.4758374 636.27141,95.4497056 636.270874,95.437512 C636.427359,87.6219018 633.010467,78.110799 629.395371,68.0366152 C625.772892,57.9418587 621.940397,47.3288247 621.255991,37.5518523 C620.917399,32.714966 622.342612,27.7335313 623.581527,22.6886359 C624.820444,17.6437386 625.889089,12.5017327 624.693742,7.3704211 C623.789916,3.4905349 621.826716,0.782168243 619.436005,-0.870070113 C617.412916,-2.26824284 615.114668,-2.90742078 612.863835,-3.04394205 C612.830204,-3.04468949 612.796428,-3.04341636 612.762725,-3.04394205 C612.387942,-3.06402556 612.021428,-3.10273941 611.650512,-3.09449702 L611.65051,-3.09449666 Z M612.257172,0.864565745 C614.148624,0.913368388 616.094729,1.40638085 617.7435,2.54585959 C619.547098,3.79233899 621.046687,5.7688852 621.769757,8.872834 C622.724827,12.972705 621.8726,17.2328828 620.796375,21.6152723 C619.886456,25.3204798 618.793438,29.0992817 618.672635,32.941883 C614.422622,32.7474752 610.153137,32.6892208 605.841708,32.9861275 C605.727973,29.1282129 604.63142,25.3348565 603.717969,21.6152723 C602.641748,17.2328828 601.789518,12.972705 602.744588,8.872834 C603.467658,5.7688852 604.967249,3.79233899 606.770844,2.54585959 C608.432457,1.39750615 610.357777,0.904623387 612.257172,0.864565745 L612.257172,0.864565745 Z M618.406706,41.7705919 C618.663601,43.6877197 619.062678,45.6115005 619.532111,47.558389 C614.958752,47.1643657 610.163183,47.0615929 604.982234,47.5181961 C605.44099,45.6110072 605.852609,43.7296941 606.107637,41.8509777 C608.186516,41.7206761 610.276285,41.6570895 612.337558,41.6500133 C614.369489,41.643007 616.387928,41.685502 618.406706,41.7705919 Z M612.164101,57.746237 C615.561659,57.7414369 618.929794,57.8275563 622.307092,58.0254008 C623.615463,62.3055475 625.145399,66.5787126 626.634147,70.7274043 C629.967959,80.0177295 633.062889,88.7061442 632.915357,95.4334966 L632.915357,95.4800239 C633.058365,98.7121144 631.817969,105.641317 629.565379,112.741719 C627.32007,119.819166 624.042241,127.149543 620.166828,131.492294 C619.442796,132.133065 617.574171,132.636324 615.932826,132.841591 C614.377869,133.036055 613.136555,133.028973 613.001596,133.027702 L612.908541,133.027702 L611.605771,133.027702 C611.605771,133.027702 610.222829,133.046852 608.581485,132.841591 C606.94014,132.636324 605.071516,132.086537 604.347485,131.445766 C600.488562,127.097747 597.14034,119.795919 594.902406,112.741719 C592.649814,105.641318 591.455939,98.7586417 591.598954,95.5265512 L591.598954,95.4800239 C591.451427,88.7526732 594.546354,80.0177295 597.880164,70.7274043 C599.368912,66.5787126 600.898849,62.3055475 602.20722,58.0254008 C605.531221,57.8519024 608.856989,57.7508483 612.164101,57.746237 Z" id="Shape-Copy-3" fill="#F28422" filter="url(#filter-2)" transform="translate(612.257361, 67.404369) rotate(496.000000) translate(-612.257361, -67.404369) "></path>
                    <path d="M245.758363,37.1747054 L245.758363,37.2894401 C243.191592,37.4411993 240.538916,38.1122982 238.243212,39.6988774 C235.530351,41.5737578 233.359969,44.6470817 232.334355,49.0497894 C230.977936,54.8725543 232.190579,60.7074547 233.596441,66.4321608 C235.002304,72.1568649 236.562196,77.7521914 236.177981,83.2408546 C235.401349,94.3352914 231.109785,106.435818 226.999171,117.890861 C222.898975,129.316873 219.023769,140.175161 219.197183,149.041444 C219.196422,149.058791 219.197896,149.081465 219.197183,149.098812 C219.010877,153.637889 220.515759,162.035122 223.327647,170.898483 C226.150285,179.795728 230.239626,189.040146 235.374834,194.763389 L235.432202,194.820756 C236.990979,196.200277 239.470945,196.616238 241.6279,196.885987 C243.784853,197.155738 245.528894,197.172826 245.528894,197.172826 L245.643628,197.172826 L247.24992,197.172826 C247.24992,197.172826 247.355879,197.17294 247.364655,197.172826 C247.382002,197.172826 247.404838,197.174158 247.422022,197.172826 C247.663908,197.169356 249.212698,197.135642 251.208281,196.885987 C253.365232,196.616238 255.902569,196.200277 257.461345,194.820756 L257.461345,194.763389 L257.518712,194.763389 C262.65392,189.040146 266.743265,179.795728 269.5659,170.898483 C272.379906,162.028436 273.885418,153.578036 273.696365,149.041444 C273.695783,149.027567 273.696973,148.997914 273.696365,148.984077 C273.873936,140.115299 269.996612,129.322559 265.894375,117.890861 C261.783761,106.435818 257.43483,94.3926587 256.6582,83.298222 C256.273981,77.8095567 257.891245,72.1568649 259.297106,66.4321608 C260.702969,60.7074547 261.915616,54.8725543 260.559194,49.0497894 C259.533575,44.6470817 257.30583,41.5737578 254.592967,39.6988774 C252.297263,38.1122984 249.689322,37.3869901 247.135185,37.2320724 C247.097022,37.2312242 247.058696,37.2326689 247.020451,37.2320724 C246.595165,37.2092826 246.179263,37.165352 245.758365,37.174705 L245.758363,37.1747054 Z M246.446773,41.6672585 C248.593103,41.7226374 250.801448,42.2820842 252.672393,43.5751097 C254.71903,44.9895544 256.420692,47.2324437 257.241196,50.7546551 C258.324964,55.406991 257.357898,60.2412353 256.136649,65.2141596 C255.104117,69.4186504 253.863813,73.7066525 253.726732,78.0670512 C248.904022,77.8464466 244.059216,77.7803423 239.166815,78.1172576 C239.037753,73.7394823 237.793438,69.4349644 236.756897,65.2141596 C235.535654,60.2412353 234.568585,55.406991 235.652352,50.7546551 C236.472857,47.2324437 238.174521,44.9895544 240.221153,43.5751097 C242.106672,42.2720136 244.291432,41.712714 246.446773,41.6672585 L246.446773,41.6672585 Z M253.424969,88.0854442 C253.71648,90.2609084 254.169334,92.4439221 254.702024,94.6531572 C249.512396,94.2060386 244.070615,94.089417 238.191524,94.6075483 C238.712099,92.4433623 239.179185,90.308539 239.468578,88.1766621 C241.82759,88.0288022 244.198958,87.9566472 246.537991,87.9486174 C248.843729,87.9406671 251.134156,87.9888883 253.424969,88.0854442 Z M246.341161,106.213836 C250.196546,106.208389 254.018543,106.306113 257.850938,106.530617 C259.335614,111.387521 261.071712,116.236503 262.761071,120.944238 C266.54412,131.486451 270.056097,141.345645 269.888685,148.97952 L269.888685,149.032317 C270.050964,152.699938 268.643423,160.562863 266.087292,168.620056 C263.539423,176.651202 259.819902,184.96936 255.422269,189.897305 C254.600673,190.62442 252.480247,191.195495 250.617728,191.428422 C248.853238,191.649091 247.444654,191.641054 247.29151,191.639611 L247.185916,191.639611 L245.707595,191.639611 C245.707595,191.639611 244.1383,191.661342 242.275781,191.428422 C240.413262,191.195495 238.292838,190.571624 237.471242,189.844508 C233.092322,184.910585 229.292921,176.624823 226.753422,168.620056 C224.197289,160.562864 222.842538,152.752735 223.004824,149.085114 L223.004824,149.032317 C222.837418,141.398444 226.349391,131.486451 230.132438,120.944238 C231.821797,116.236503 233.557897,111.387521 235.042573,106.530617 C238.814489,106.33374 242.58841,106.219069 246.341161,106.213836 Z" id="Shape-Copy-7" fill="#F28422" transform="translate(246.446988, 117.173418) rotate(744.000000) translate(-246.446988, -117.173418) "></path>
                    <path d="M560.784216,126.524365 L560.784216,126.596074 C559.179984,126.690923 557.522062,127.11036 556.087247,128.101972 C554.391709,129.273772 553.03522,131.1946 552.394211,133.946292 C551.54645,137.58552 552.304352,141.232333 553.183015,144.810274 C554.06168,148.388214 555.036612,151.885293 554.796478,155.315708 C554.311083,162.249731 551.628856,169.81256 549.059722,176.971962 C546.497099,184.113219 544.075095,190.899649 544.183479,196.441077 C544.183004,196.451918 544.183924,196.466089 544.183479,196.476931 C544.067038,199.313855 545.007589,204.562125 546.765019,210.101726 C548.529168,215.662504 551.085006,221.440265 554.294511,225.017292 L554.330366,225.053147 C555.304602,225.915347 556.85458,226.175323 558.202677,226.343916 C559.550773,226.51251 560.640798,226.52319 560.640798,226.52319 L560.712507,226.52319 L561.71644,226.52319 C561.71644,226.52319 561.782664,226.523261 561.788149,226.52319 C561.798991,226.52319 561.813264,226.524023 561.824003,226.52319 C561.975182,226.521022 562.943176,226.49995 564.190415,226.343916 C565.53851,226.175323 567.124345,225.915347 568.09858,225.053147 L568.09858,225.017292 L568.134435,225.017292 C571.34394,221.440265 573.89978,215.662504 575.663927,210.101726 C577.422681,204.557946 578.363626,199.276446 578.245468,196.441077 C578.245104,196.432403 578.245848,196.41387 578.245468,196.405222 C578.35645,190.862236 575.933122,184.116773 573.369224,176.971962 C570.80009,169.81256 568.082009,162.285586 567.596614,155.351563 C567.356478,151.921147 568.367267,148.388214 569.245931,144.810274 C570.124595,141.232333 570.8825,137.58552 570.034736,133.946292 C569.393724,131.1946 568.001384,129.273772 566.305844,128.101972 C564.871029,127.11036 563.241066,126.657043 561.644731,126.560219 C561.620878,126.559689 561.596924,126.560592 561.573021,126.560219 C561.307218,126.545975 561.047279,126.518519 560.784218,126.524365 L560.784216,126.524365 Z M561.214473,129.33221 C562.555929,129.366822 563.936144,129.716476 565.105486,130.524617 C566.384633,131.408645 567.448172,132.810451 567.960987,135.011833 C568.638342,137.919543 568.033926,140.940946 567.270646,144.049024 C566.625313,146.67683 565.850123,149.356832 565.764447,152.082081 C562.750253,151.944203 559.722249,151.902888 556.664499,152.11346 C556.583835,149.37735 555.806138,146.687027 555.1583,144.049024 C554.395023,140.940946 553.790605,137.919543 554.46796,135.011833 C554.980775,132.810451 556.044315,131.408645 557.32346,130.524617 C558.501909,129.710182 559.867384,129.36062 561.214473,129.33221 L561.214473,129.33221 Z M565.575845,158.343577 C565.758039,159.703242 566.041073,161.067625 566.374005,162.448397 C563.130487,162.168948 559.729374,162.096059 556.054942,162.419892 C556.380302,161.067275 556.67223,159.733011 556.853101,158.400588 C558.327483,158.308175 559.809588,158.263078 561.271484,158.25806 C562.71257,158.253091 564.144087,158.283229 565.575845,158.343577 Z M561.148465,169.673821 C563.558081,169.670417 565.946829,169.731495 568.342076,169.87181 C569.269999,172.907375 570.355059,175.937988 571.410909,178.880323 C573.775315,185.469206 575.9703,191.631202 575.865668,196.402374 L575.865668,196.435372 C575.967092,198.727635 575.087379,203.641963 573.489797,208.677709 C571.897379,213.697175 569.572678,218.896024 566.824158,221.975989 C566.31066,222.430437 564.985394,222.787358 563.82132,222.932937 C562.718513,223.070856 561.838149,223.065832 561.742433,223.064931 L561.676437,223.064931 L560.752487,223.064931 C560.752487,223.064931 559.771677,223.078513 558.607603,222.932937 C557.443528,222.787358 556.118263,222.397439 555.604766,221.942991 C552.867941,218.859289 550.493316,213.680688 548.906128,208.677709 C547.308545,203.641964 546.461826,198.760633 546.563255,196.46837 L546.563255,196.435372 C546.458626,191.664202 548.653609,185.469206 551.018013,178.880323 C552.073863,175.937988 553.158925,172.907375 554.086848,169.87181 C556.444295,169.748761 558.802996,169.677092 561.148465,169.673821 Z" id="Shape-Copy-8" fill="#F28422" filter="url(#filter-3)" transform="translate(561.214607, 176.523560) rotate(417.000000) translate(-561.214607, -176.523560) "></path>
                    <g id="Group-8" transform="translate(86.000000, 99.000000)">
                        <g id="Group" transform="translate(304.500000, 103.500000) rotate(-90.000000) translate(-304.500000, -103.500000) translate(201.000000, 0.000000)" fill="#0881CA">
                            <path d="M103.5,0 C46.4322414,0 0,46.4322414 0,103.5 C0,160.567759 46.4322414,207 103.5,207 C160.567759,207 207,160.567759 207,103.5 C207,46.4322414 160.567759,0 103.5,0 Z M103.5,199.862069 C50.3581034,199.862069 7.13793103,156.641897 7.13793103,103.5 C7.13793103,50.3581034 50.3581034,7.13793103 103.5,7.13793103 C156.641897,7.13793103 199.862069,50.3581034 199.862069,103.5 C199.862069,156.641897 156.641897,199.862069 103.5,199.862069 Z" id="Shape"></path>
                            <g id="Group-9" transform="translate(145.000000, 80.000000) rotate(158.000000) translate(-145.000000, -80.000000) translate(111.000000, 47.000000)">
                                <path d="M15.2816893,30.3007217 C6.88299109,30.3007217 0.0658659434,37.1481556 0.0658659434,45.5841941 C0.0658659434,54.0202326 6.88299109,60.8676664 15.2816893,60.8676664 C23.6803874,60.8676664 30.4975126,54.0202326 30.4975126,45.5841941 C30.4975126,37.1481556 23.6803874,30.3007217 15.2816893,30.3007217 Z M15.2816893,55.4171091 C9.88252615,55.4171091 5.51956606,51.0073617 5.51956606,45.6115838 C5.51956606,40.1884162 9.90979465,35.8060585 15.2816893,35.8060585 C20.6808524,35.8060585 25.0438125,40.2158059 25.0438125,45.6115838 C25.071081,51.0073617 20.6808524,55.4171091 15.2816893,55.4171091 Z" id="Shape"></path>
                                <path d="M6.05599558,53.3020199 C7.98171414,56.1404475 11.2246925,58.0047655 14.9021318,58.0047655 C19.9181803,58.0047655 24.1269535,54.5358741 25.2830251,49.8564492 C23.7730867,46.2296737 20.207732,43.681281 16.0499305,43.681281 C10.6677393,43.6810129 6.27963086,47.9503147 6.05599558,53.3020199 Z" id="Path"></path>
                                <path d="M43.6507644,58.5105597 C45.576483,61.3489873 48.8194614,63.2133054 52.4969006,63.2133054 C57.5129491,63.2133054 61.7217224,59.7444139 62.877794,55.064989 C61.3678556,51.4382136 57.8025008,48.8898208 53.6446993,48.8898208 C48.2625081,48.8895528 43.8743997,53.1588545 43.6507644,58.5105597 Z" id="Path-Copy"></path>
                                <path d="M28.0943083,23.3529158 C30.0200269,26.1913434 33.2630053,28.0556615 36.9404446,28.0556615 C41.9564931,28.0556615 46.1652663,24.58677 47.3213379,19.9073451 C45.8113995,16.2805697 42.2460447,13.7321769 38.0882433,13.7321769 C32.706052,13.7319088 28.3179436,18.0012106 28.0943083,23.3529158 Z" id="Path-Copy-2"></path>
                                <path d="M52.7758776,35.3130433 C44.3771794,35.3130433 37.5600542,42.1604771 37.5600542,50.5965156 C37.5600542,59.0325541 44.3771794,65.9073777 52.7758776,65.9073777 C61.1745757,65.9073777 67.9917009,59.0599439 67.9917009,50.6239054 C67.9917009,42.1878669 61.1745757,35.3130433 52.7758776,35.3130433 Z M52.7758776,60.4294306 C47.3767145,60.4294306 43.0137544,56.0196832 43.0137544,50.6239054 C43.0137544,45.2007378 47.403983,40.8183801 52.7758776,40.8183801 C58.1750407,40.8183801 62.5380008,45.2281275 62.5380008,50.6239054 C62.5652693,56.0196832 58.1750407,60.4294306 52.7758776,60.4294306 Z" id="Shape"></path>
                                <path d="M37.7782022,30.7663472 C46.1769004,30.7663472 52.9940256,23.9189134 52.9940256,15.4828749 C52.9940256,7.04683641 46.1769004,0.172012831 37.7782022,0.172012831 C29.3795041,0.172012831 22.5623789,7.01944667 22.5623789,15.4554852 C22.5623789,23.8915237 29.3795041,30.7663472 37.7782022,30.7663472 Z M37.7782022,5.6499599 C43.1773654,5.6499599 47.5403255,10.0597073 47.5403255,15.4554852 C47.5403255,20.8786528 43.1500969,25.2610104 37.7782022,25.2610104 C32.3790391,25.2610104 28.016079,20.851263 28.016079,15.4554852 C28.016079,10.0597073 32.4063076,5.6499599 37.7782022,5.6499599 Z" id="Shape"></path>
                            </g>
                            <path d="M110.637931,21.4137931 C112.600862,21.4137931 114.206897,19.8077586 114.206897,17.8448276 C114.206897,15.8818966 112.600862,14.2758621 110.637931,14.2758621 C100.502069,14.2758621 90.5446552,15.8462069 80.9798276,18.9155172 C79.0882759,19.5222414 78.0889655,21.5208621 78.6956897,23.4124138 C79.1953448,24.9113793 80.5872414,25.875 82.0862069,25.875 C82.4431034,25.875 82.8356897,25.8036207 83.1925862,25.6965517 C92.007931,22.8413793 101.251552,21.4137931 110.637931,21.4137931 Z" id="Shape"></path>
                            <path d="M69.8803448,23.2696552 C57.1034483,29.2298276 45.5756897,38.1522414 36.5105172,49.0018966 C35.2613793,50.5008621 35.4755172,52.785 36.9744828,54.0341379 C37.6525862,54.6051724 38.4377586,54.855 39.2586207,54.855 C40.2936207,54.855 41.292931,54.4267241 42.0067241,53.5701724 C50.3937931,43.5056897 61.065,35.2613793 72.8782759,29.7294828 C74.6627586,28.9086207 75.447931,26.7672414 74.5913793,24.9827586 C73.7705172,23.2339655 71.6648276,22.4487931 69.8803448,23.2696552 Z" id="Shape"></path>
                            <path d="M32.0136207,61.1363793 C30.3005172,60.137069 28.1234483,60.7437931 27.1241379,62.4568966 C26.4103448,63.6703448 25.7322414,64.9194828 25.0898276,66.1686207 C24.1975862,67.9174138 24.8756897,70.0587931 26.6244828,70.9867241 C27.1598276,71.2365517 27.7308621,71.3793103 28.2662069,71.3793103 C29.5510345,71.3793103 30.8001724,70.6655172 31.4425862,69.452069 C32.0493103,68.31 32.6560345,67.1322414 33.3341379,66.0258621 C34.2977586,64.3127586 33.7267241,62.1356897 32.0136207,61.1363793 Z" id="Shape"></path>
                            <path d="M21.1282759,85.7622414 C19.2010345,85.2982759 17.2737931,86.5117241 16.8455172,88.4032759 C15.1324138,95.6482759 14.2758621,103.143103 14.2758621,110.637931 C14.2758621,112.600862 15.8818966,114.206897 17.8448276,114.206897 C19.8077586,114.206897 21.4137931,112.600862 21.4137931,110.637931 C21.4137931,103.678448 22.1989655,96.7546552 23.805,90.045 C24.2332759,88.1177586 23.0555172,86.1905172 21.1282759,85.7622414 Z" id="Shape"></path>
                        </g>
                        <g id="Group-5" transform="translate(0.000000, 127.000000)">
                            <g id="Group-3">
                                <use id="Rectangle-6" stroke="#F9A929" mask="url(#mask-5)" stroke-width="16" fill="#FECC27" xlink:href="#path-4"></use>
                                <use id="Rectangle-6-Copy" stroke="#0781CB" mask="url(#mask-7)" stroke-width="16" fill="#1EABF4" xlink:href="#path-6"></use>
                                <g id="IT-BOWLING" fill-opacity="1" fill="#FFFFFF">
                                    <use filter="url(#filter-9)" xlink:href="#text-8"></use>
                                    <use xlink:href="#text-8"></use>
                                </g>
                                <g id="BATTLE" fill-opacity="1" fill="#FFFFFF">
                                    <use filter="url(#filter-11)" xlink:href="#text-10"></use>
                                    <use xlink:href="#text-10"></use>
                                </g>
                            </g>
                            <g id="Group-4" transform="translate(40.000000, 101.000000)" fill="#0881CA">
                                <text id="БИТВА-АЙТИШНИКОВ" font-family=".SFNSDisplay, .SF NS Display" font-size="35" font-weight="normal">
                                    <tspan x="80.322998" y="34.5">БИТВА АЙТИШНИКОВ</tspan>
                                </text>
                                <text id="18.01.2017" font-family=".SFNSDisplay, .SF NS Display" font-size="35" font-weight="normal">
                                    <tspan x="177.675293" y="84.5">18.03.2017</tspan>
                                </text>
                                <path d="M50,11.5 C50,10.1192881 51.1196242,9 52.5065308,9 L60.4934692,9 C61.877788,9 63,10.1096621 63,11.5 C63,12.8807119 61.8803758,14 60.4934692,14 L52.5065308,14 C51.122212,14 50,12.8903379 50,11.5 Z M38,11.5 C38,10.1192881 39.1246711,9 40.5073889,9 L42.4926111,9 C43.8774037,9 45,10.1096621 45,11.5 C45,12.8807119 43.8753289,14 42.4926111,14 L40.5073889,14 C39.1225963,14 38,12.8903379 38,11.5 Z M0,21.5 C0,20.1192881 1.1246711,19 2.50738893,19 L4.49261107,19 C5.87740374,19 7,20.1096621 7,21.5 C7,22.8807119 5.8753289,24 4.49261107,24 L2.50738893,24 C1.12259626,24 0,22.8903379 0,21.5 Z M19,11.5 C19,10.1192881 20.1220131,9 21.5029194,9 L30.4970806,9 C31.8794048,9 33,10.1096621 33,11.5 C33,12.8807119 31.8779869,14 30.4970806,14 L21.5029194,14 C20.1205952,14 19,12.8903379 19,11.5 Z M35,21.5 C35,20.1192881 36.1227655,19 37.500016,19 L57.499984,19 C58.8807047,19 60,20.1096621 60,21.5 C60,22.8807119 58.8772345,24 57.499984,24 L37.500016,24 C36.1192953,24 35,22.8903379 35,21.5 Z M46,31.5 C46,30.1192881 47.1152735,29 48.4960703,29 L54.5039297,29 C55.8824713,29 57,30.1096621 57,31.5 C57,32.8807119 55.8847265,34 54.5039297,34 L48.4960703,34 C47.1175287,34 46,32.8903379 46,31.5 Z M8,31.5 C8,30.1192881 9.1168783,29 10.5074491,29 L38.4925509,29 C39.8773768,29 41,30.1096621 41,31.5 C41,32.8807119 39.8831217,34 38.4925509,34 L10.5074491,34 C9.12262321,34 8,32.8903379 8,31.5 Z M12,21.5 C12,20.1192881 13.1259806,19 14.5028229,19 L27.4971771,19 C28.879448,19 30,20.1096621 30,21.5 C30,22.8807119 28.8740194,24 27.4971771,24 L14.5028229,24 C13.120552,24 12,22.8903379 12,21.5 Z" id="Combined-Shape"></path>
                                <path d="M484,11.5 C484,10.1192881 482.880376,9 481.493469,9 L473.506531,9 C472.122212,9 471,10.1096621 471,11.5 C471,12.8807119 472.119624,14 473.506531,14 L481.493469,14 C482.877788,14 484,12.8903379 484,11.5 Z M496,11.5 C496,10.1192881 494.875329,9 493.492611,9 L491.507389,9 C490.122596,9 489,10.1096621 489,11.5 C489,12.8807119 490.124671,14 491.507389,14 L493.492611,14 C494.877404,14 496,12.8903379 496,11.5 Z M529,21.5 C529,20.1192881 527.875329,19 526.492611,19 L524.507389,19 C523.122596,19 522,20.1096621 522,21.5 C522,22.8807119 523.124671,24 524.507389,24 L526.492611,24 C527.877404,24 529,22.8903379 529,21.5 Z M515,11.5 C515,10.1192881 513.877987,9 512.497081,9 L503.502919,9 C502.120595,9 501,10.1096621 501,11.5 C501,12.8807119 502.122013,14 503.502919,14 L512.497081,14 C513.879405,14 515,12.8903379 515,11.5 Z M494,21.5 C494,20.1192881 492.877235,19 491.499984,19 L471.500016,19 C470.119295,19 469,20.1096621 469,21.5 C469,22.8807119 470.122765,24 471.500016,24 L491.499984,24 C492.880705,24 494,22.8903379 494,21.5 Z M479,31.5 C479,30.1192881 477.884727,29 476.50393,29 L470.49607,29 C469.117529,29 468,30.1096621 468,31.5 C468,32.8807119 469.115273,34 470.49607,34 L476.50393,34 C477.882471,34 479,32.8903379 479,31.5 Z M517,31.5 C517,30.1192881 515.883122,29 514.492551,29 L486.507449,29 C485.122623,29 484,30.1096621 484,31.5 C484,32.8807119 485.116878,34 486.507449,34 L514.492551,34 C515.877377,34 517,32.8903379 517,31.5 Z M517,21.5 C517,20.1192881 515.874019,19 514.497177,19 L501.502823,19 C500.120552,19 499,20.1096621 499,21.5 C499,22.8807119 500.125981,24 501.502823,24 L514.497177,24 C515.879448,24 517,22.8903379 517,21.5 Z" id="Combined-Shape"></path>
                            </g>
                        </g>
                    </g>
                </g>
            </g>
        </g>
    </g>
</svg>