<?xml version="1.0" encoding="UTF-8"?>
<svg width="96px" height="58px" viewBox="0 0 96 58" version="1.1" xmlns="http://www.w3.org/2000/svg" xmlns:xlink="http://www.w3.org/1999/xlink">
    <!-- Generator: sketchtool 41.2 (35397) - http://www.bohemiancoding.com/sketch -->
    <title>1780488A-D332-4794-B1D0-35714FFADB14</title>
    <desc>Created with sketchtool.</desc>
    <defs></defs>
    <g id="Page-1" stroke="none" stroke-width="1" fill="none" fill-rule="evenodd">
        <g id="Main-Page" transform="translate(-250.000000, -40.000000)" fill="#FF3D2E">
            <g id="Group-20" transform="translate(250.000000, 31.000000)">
                <g id="Group" transform="translate(0.000000, 9.003721)">
                    <path d="M41.8825437,2.14540934 C41.1728245,4.75993358 37.18171,15.2605608 35.3453643,20.3797393 C33.1134979,26.6025251 31.3186053,33.4657194 30.9191242,36.8643283 C30.7422225,38.3670663 31.1535851,39.130431 32.1093825,39.7869247 C33.4113265,40.6808793 35.7873546,41.312291 37.5840954,41.4488788 C39.1241967,41.5652919 39.5260541,41.3719971 39.7597228,41.0200314 C40.0335245,40.6105407 39.9638199,39.7787458 40.2027693,38.337077 C40.697038,35.3607724 42.1259817,29.2950216 44.3079458,22.6480231 C47.0961285,14.1569535 49.8560598,8.80576671 50.4086797,7.07947187 C50.9499462,5.38534741 50.9681644,4.63316051 50.1053064,3.58407925 C49.2524816,2.54617583 47.807696,1.3198849 45.6880435,0.512899317 C43.9955954,-0.131053368 42.8111459,-0.189123615 42.4140411,0.455919591 C42.153177,0.880677544 42.1724514,1.07697133 41.8825437,2.14540934" id="Fill-1"></path>
                    <path d="M58.0996018,2.14540934 C57.3909387,4.75993358 53.399296,15.2605608 51.5634784,20.3797393 C49.331084,26.6025251 47.5361914,33.4657194 47.1361823,36.8643283 C46.9598086,38.3670663 47.3711711,39.130431 48.3269686,39.7869247 C49.6289126,40.6808793 52.0049407,41.312291 53.8022096,41.4488788 C55.3417828,41.5652919 55.7436402,41.3719971 55.9773089,41.0200314 C56.2511106,40.6105407 56.181406,39.7787458 56.4203554,38.337077 C56.9146241,35.3607724 58.3430397,29.2950216 60.525796,22.6480231 C63.3142427,14.1569535 66.0741739,8.80576671 66.6262658,7.07947187 C67.1675323,5.38534741 67.1857505,4.63316051 66.3228925,3.58407925 C65.4700677,2.54617583 64.0252821,1.3198849 61.9051015,0.512899317 C60.2126535,-0.131053368 59.028732,-0.189123615 58.6310991,0.455919591 C58.370235,0.880677544 58.3895094,1.07697133 58.0996018,2.14540934" id="Fill-3"></path>
                    <path d="M49.1907244,17.606926 C49.6247937,16.7031566 50.1573472,16.2748545 50.7038944,16.1219089 C51.2992875,15.9550592 59.6223825,16.0300325 64.5518684,16.0300325 C68.5503758,16.0300325 68.3090502,15.6614364 68.7188286,15.6614364 C69.1901265,15.6619817 69.4932357,15.9907738 69.3694045,17.1439998 C69.2447812,18.2958626 68.7209408,20.5257056 66.1556015,21.8596855 C64.9262664,22.4992761 62.8182313,22.6511311 61.6057943,22.6920257 C60.6890736,22.7231055 48.9747458,22.7236508 48.5031839,22.7236508 C47.5172867,22.7236508 47.4943159,21.8525971 47.7377538,21.0788724 C48.0601374,20.0548731 48.7447736,18.5365952 49.1907244,17.606926" id="Fill-5"></path>
                    <path d="M71.4500594,18.6529265 C70.8678679,21.2151057 70.3342583,22.4302188 68.5356692,27.0256746 C66.2766076,32.7972573 64.9149922,36.9107027 66.4519251,39.5737551 C67.8431121,41.9824435 71.5799634,42.942102 75.99485,40.9960672 C78.3320653,39.9655248 79.3657524,39.0950164 80.2064317,38.450791 C80.7516587,38.0336667 80.8118581,37.9903185 80.9428182,38.0096753 C81.0999175,38.0325762 81.103878,38.2013344 80.8488226,38.9123541 C79.3179625,43.1730199 77.4639266,49.8936285 68.3558631,49.5397544 C64.3251437,49.3838099 62.0951256,47.0678158 61.3019722,46.9658521 C60.6131115,46.8761567 60.3947566,47.4366846 61.2378123,49.6136372 C62.0428472,51.6897167 66.0400345,57.576622 73.3302345,57.2382878 C81.3631579,56.8672381 85.4825922,51.0114126 87.8142627,46.1457803 C90.1451412,41.2801479 91.6939556,34.9175028 93.3312208,29.3858348 C94.7131667,24.712952 95.9506868,22.4302188 96.0016451,20.726007 C96.0391377,19.4713625 94.6872915,17.8058643 92.6534495,16.8333921 C90.6196076,15.8603747 87.4617794,15.4756934 86.8666503,16.3208472 C86.286835,17.1433727 87.1834892,17.8323094 85.8723041,22.6205147 C84.8829745,26.2336836 83.154354,31.1224895 80.9230158,33.3964986 C78.97208,35.3828827 76.7198832,35.9115128 76.2235021,34.5036501 C75.6463272,32.8629611 78.2533836,27.6061044 79.1751209,25.1944171 C80.1969265,22.518551 80.3115166,20.9615596 79.6699177,19.6990088 C78.850625,18.0893997 77.4652468,17.0506784 75.798938,16.3543807 C74.2366579,15.7011586 72.7015733,15.5144069 71.9947584,16.1141935 C71.4659014,16.5645787 71.7848526,17.1804504 71.4500594,18.6529265" id="Fill-7"></path>
                    <path d="M20.7486998,20.6995074 C20.2443978,22.847016 18.6161097,26.2633458 16.6060306,29.4512115 C14.5977998,32.6401677 12.1718696,34.7615038 10.6668847,34.1889802 C8.90367594,33.5177645 10.6787661,29.0013716 11.6715281,27.0695135 C12.7398034,24.9904351 14.0940259,23.0444003 15.6621146,21.5648358 C16.9244538,20.3739868 18.0766914,19.656424 18.8389531,19.3802495 C19.6247137,19.0956235 21.1576861,18.9538558 20.7486998,20.6995074 M26.3139758,14.8382293 C25.0080713,14.6792859 24.4470024,15.8030678 23.7890335,15.5767847 C21.4079888,14.7578034 18.0228288,13.7970543 13.9379827,15.1135859 C8.45719706,16.8807752 3.42236224,22.2330526 1.30244568,28.1104158 C-0.981699059,34.4403453 0.638404066,38.1857399 2.91172348,39.5655217 C5.24629842,40.9823812 7.92464361,40.8073525 10.5290597,39.8836812 C12.5214486,39.1770235 14.9043415,37.7776124 16.1476703,36.9289144 C16.6894649,36.5586825 16.853429,36.4267294 16.9925741,36.4362715 C17.1251184,36.4449957 17.2426129,36.6451063 17.6545035,37.1110314 C18.0914772,37.6072185 18.7439014,38.2533522 19.5687388,38.8081548 C21.7301084,40.2618194 24.2188783,40.728835 25.5577869,40.728835 C26.7855378,40.728835 26.4840127,39.8883159 26.413252,39.0769682 C26.1698141,36.2838712 26.4000504,33.4959541 27.0015163,30.905694 C27.8083995,27.4394728 29.0100112,24.6079348 29.7308198,23.0185004 C31.2416135,19.6885943 31.5378579,19.2777405 31.5661094,18.442674 C31.6059783,17.2499166 28.5878233,15.1163122 26.3139758,14.8382293" id="Fill-9"></path>
                </g>
            </g>
        </g>
    </g>
</svg>