<?xml version="1.0" encoding="UTF-8"?>
<svg width="80px" height="80px" viewBox="0 0 80 80" version="1.1" xmlns="http://www.w3.org/2000/svg" xmlns:xlink="http://www.w3.org/1999/xlink">
    <!-- Generator: sketchtool 41.2 (35397) - http://www.bohemiancoding.com/sketch -->
    <title>B680B603-F549-4AE6-AAE2-CAFA7BF9762C</title>
    <desc>Created with sketchtool.</desc>
    <defs></defs>
    <g id="Page-1" stroke="none" stroke-width="1" fill="none" fill-rule="evenodd">
        <g id="Main-Page" transform="translate(-360.000000, -704.000000)" fill="#F28422">
            <g id="Group-23" transform="translate(360.000000, 704.000000)">
                <path d="M76.3569591,75.7094737 C76.3569591,76.1693567 75.9840936,76.5422222 75.5242105,76.5422222 L60.2994152,76.5422222 C59.8395322,76.5422222 59.4666667,76.1693567 59.4666667,75.7094737 L59.4666667,40.1852632 C59.4666667,39.7253801 59.8395322,39.3525146 60.2994152,39.3525146 L75.5242105,39.3525146 C75.9840936,39.3525146 76.3569591,39.7253801 76.3569591,40.1852632 L76.3569591,75.7094737 Z M56.0575439,75.7094737 C56.0575439,76.1693567 55.6846784,76.5422222 55.2243275,76.5422222 L52.6872515,76.5422222 C52.2273684,76.5422222 51.8545029,76.1693567 51.8545029,75.7094737 L51.8545029,68.0973099 C51.8545029,67.1574269 51.0895906,66.3925146 50.1497076,66.3925146 C49.2098246,66.3925146 48.4449123,67.1574269 48.4449123,68.0973099 L48.4449123,75.7094737 C48.4449123,76.1693567 48.0720468,76.5422222 47.6121637,76.5422222 L32.3878363,76.5422222 C31.9279532,76.5422222 31.5550877,76.1693567 31.5550877,75.7094737 L31.5550877,68.0973099 C31.5550877,67.1574269 30.7901754,66.3925146 29.8502924,66.3925146 C28.9104094,66.3925146 28.1454971,67.1574269 28.1454971,68.0973099 L28.1454971,75.7094737 C28.1454971,76.1693567 27.7726316,76.5422222 27.3127485,76.5422222 L24.7752047,76.5422222 C24.3153216,76.5422222 23.9424561,76.1693567 23.9424561,75.7094737 L23.9424561,30.0355556 C23.9424561,29.5756725 24.3153216,29.202807 24.7752047,29.202807 L55.2243275,29.202807 C55.6846784,29.202807 56.0575439,29.5756725 56.0575439,30.0355556 L56.0575439,75.7094737 Z M20.5333333,75.7094737 C20.5333333,76.1693567 20.1604678,76.5422222 19.7005848,76.5422222 L4.47578947,76.5422222 C4.01590643,76.5422222 3.64304094,76.1693567 3.64304094,75.7094737 L3.64304094,40.1852632 C3.64304094,39.7253801 4.01590643,39.3525146 4.47578947,39.3525146 L19.7005848,39.3525146 C20.1604678,39.3525146 20.5333333,39.7253801 20.5333333,40.1852632 L20.5333333,75.7094737 Z M41.7047953,4.66152047 C41.7047953,4.20163743 42.0776608,3.82877193 42.5375439,3.82877193 L58.0968421,3.82877193 C58.4037427,3.82877193 58.685848,3.99766082 58.8308772,4.26853801 C58.9759064,4.5394152 58.96,4.86783626 58.7897076,5.12327485 L56.3438596,8.79017544 C55.9611696,9.3651462 55.9611696,10.1076023 56.3438596,10.6816374 L58.7897076,14.3490058 C58.96,14.6044444 58.9759064,14.9328655 58.8308772,15.2037427 C58.685848,15.4746199 58.4037427,15.6439766 58.0968421,15.6439766 L42.5375439,15.6439766 C42.0776608,15.6439766 41.7047953,15.2711111 41.7047953,14.8112281 L41.7047953,4.66152047 Z M78.0612865,35.9433918 L60.2994152,35.9433918 C59.8395322,35.9433918 59.4666667,35.5705263 59.4666667,35.1106433 L59.4666667,27.4980117 C59.4666667,26.5585965 58.7017544,25.7936842 57.7618713,25.7936842 L42.5375439,25.7936842 C42.0776608,25.7936842 41.7047953,25.4208187 41.7047953,24.9609357 L41.7047953,19.885848 C41.7047953,19.4259649 42.0776608,19.0530994 42.5375439,19.0530994 L62.8369591,19.0530994 C63.4671345,19.0530994 64.0435088,18.7083041 64.340117,18.1525146 C64.637193,17.5976608 64.6039766,16.9272515 64.2549708,16.4032749 L60.1197661,10.1983626 C59.9330994,9.91859649 59.9330994,9.55415205 60.1197661,9.27438596 L64.2549708,3.06994152 C64.6039766,2.54502924 64.637193,1.87461988 64.340117,1.31976608 C64.0435088,0.763976608 63.4671345,0.419181287 62.8369591,0.419181287 L40,0.419181287 C39.060117,0.419181287 38.2952047,1.18409357 38.2952047,2.12397661 L38.2952047,24.9609357 C38.2952047,25.4208187 37.9223392,25.7936842 37.4624561,25.7936842 L22.2381287,25.7936842 C21.2982456,25.7936842 20.5333333,26.5585965 20.5333333,27.4980117 L20.5333333,35.1106433 C20.5333333,35.5705263 20.1604678,35.9433918 19.7005848,35.9433918 L1.93871345,35.9433918 C0.998830409,35.9433918 0.233918129,36.7083041 0.233918129,37.6481871 L0.233918129,78.2470175 C0.233918129,79.1864327 0.998830409,79.951345 1.93871345,79.951345 L78.0612865,79.951345 C79.0011696,79.951345 79.7660819,79.1864327 79.7660819,78.2470175 L79.7660819,37.6481871 C79.7660819,36.7083041 79.0011696,35.9433918 78.0612865,35.9433918 L78.0612865,35.9433918 Z" id="Fill-10"></path>
                <polygon id="Fill-11" points="28.1454971 49.5036257 31.5550877 49.5036257 31.5550877 46.0945029 28.1454971 46.0945029"></polygon>
                <polygon id="Fill-12" points="10.3836257 49.5036257 13.7927485 49.5036257 13.7927485 46.0945029 10.3836257 46.0945029"></polygon>
                <polygon id="Fill-13" points="10.3836257 59.6533333 13.7927485 59.6533333 13.7927485 56.2442105 10.3836257 56.2442105"></polygon>
                <polygon id="Fill-14" points="10.3836257 69.8030409 13.7927485 69.8030409 13.7927485 66.3939181 10.3836257 66.3939181"></polygon>
                <polygon id="Fill-15" points="66.2072515 49.5036257 69.6163743 49.5036257 69.6163743 46.0945029 66.2072515 46.0945029"></polygon>
                <polygon id="Fill-16" points="66.2072515 59.6533333 69.6163743 59.6533333 69.6163743 56.2442105 66.2072515 56.2442105"></polygon>
                <polygon id="Fill-17" points="66.2072515 69.8030409 69.6163743 69.8030409 69.6163743 66.3939181 66.2072515 66.3939181"></polygon>
                <polygon id="Fill-18" points="38.2952047 49.5036257 41.7047953 49.5036257 41.7047953 46.0945029 38.2952047 46.0945029"></polygon>
                <polygon id="Fill-19" points="48.4449123 49.5036257 51.8545029 49.5036257 51.8545029 46.0945029 48.4449123 46.0945029"></polygon>
                <polygon id="Fill-20" points="28.1454971 59.6533333 31.5550877 59.6533333 31.5550877 56.2442105 28.1454971 56.2442105"></polygon>
                <polygon id="Fill-21" points="38.2952047 59.6533333 41.7047953 59.6533333 41.7047953 56.2442105 38.2952047 56.2442105"></polygon>
                <polygon id="Fill-22" points="38.2952047 69.8030409 41.7047953 69.8030409 41.7047953 66.3939181 38.2952047 66.3939181"></polygon>
                <polygon id="Fill-23" points="48.4449123 59.6533333 51.8545029 59.6533333 51.8545029 56.2442105 48.4449123 56.2442105"></polygon>
                <polygon id="Fill-24" points="28.1454971 39.3539181 31.5550877 39.3539181 31.5550877 35.9443275 28.1454971 35.9443275"></polygon>
                <polygon id="Fill-25" points="38.2952047 39.3539181 41.7047953 39.3539181 41.7047953 35.9443275 38.2952047 35.9443275"></polygon>
                <polygon id="Fill-26" points="48.4449123 39.3539181 51.8545029 39.3539181 51.8545029 35.9443275 48.4449123 35.9443275"></polygon>
            </g>
        </g>
    </g>
</svg>