<?xml version="1.0" encoding="UTF-8"?>
<svg width="38px" height="34px" viewBox="0 0 38 34" version="1.1" xmlns="http://www.w3.org/2000/svg" xmlns:xlink="http://www.w3.org/1999/xlink">
    <!-- Generator: Sketch 41.2 (35397) - http://www.bohemiancoding.com/sketch -->
    <title>Shape@2x</title>
    <desc>Created with Sketch.</desc>
    <defs></defs>
    <g id="Page-1" stroke="none" stroke-width="1" fill="none" fill-rule="evenodd">
        <g id="Main-Page" transform="translate(-548.000000, -918.000000)" fill="#F28422">
            <g id="Group-11" transform="translate(548.000000, 918.000000)">
                <path d="M37.306,25.558 C35.967,23.14 30.103,21.6 24.925,21.308 C24.457,20.807 23.982,20.28 23.495,19.726 C19.045,14.638 17.243,7.244 16.57,3.327 C16.49,2.497 16.402,1.807 16.328,1.293 C16.268,0.884 16.142,0.031 15.255,0.031 C14.971,0.031 14.697,0.153 14.502,0.37 C14.186,0.731 14.233,1.119 14.289,1.567 C14.352,2.081 14.447,2.769 14.582,3.554 C14.961,7.531 15.14,15.103 12.079,21.118 C11.76,21.745 11.442,22.347 11.126,22.921 C5.398,24.587 0.776,27.558 0.099,30.022 C-0.146,30.914 0.067,31.769 0.7,32.431 C1.437,33.201 2.307,33.591 3.286,33.591 C5.996,33.591 9.085,30.573 12.467,24.624 C13.973,24.228 15.468,23.952 16.913,23.806 C17.476,23.749 18.387,23.63 18.947,23.544 C20.49,23.306 22.236,23.21 24.03,23.269 C28.182,27.585 31.577,29.773 34.121,29.773 C35.487,29.772 36.618,29.106 37.304,27.898 C37.726,27.15 37.728,26.318 37.306,25.558 Z M3.285,31.591 C2.861,31.591 2.499,31.419 2.144,31.048 C1.999,30.897 1.967,30.767 2.027,30.553 C2.376,29.284 5.308,27.109 9.593,25.53 C7.172,29.35 4.855,31.591 3.285,31.591 Z M18.64,21.57 C18.108,21.652 17.244,21.764 16.71,21.82 C15.739,21.916 14.741,22.069 13.734,22.275 C13.776,22.193 13.818,22.11 13.86,22.027 C15.361,19.078 16.291,15.542 16.635,11.489 C18.012,15.343 19.808,18.549 21.989,21.043 C22.053,21.117 22.12,21.192 22.184,21.268 C20.925,21.298 19.737,21.401 18.64,21.57 Z M35.56,26.916 C35.228,27.504 34.756,27.777 34.079,27.777 L34.078,27.777 C32.488,27.777 30.043,26.272 27.116,23.512 C31.646,24.081 34.963,25.452 35.558,26.527 C35.644,26.683 35.644,26.766 35.56,26.916 Z" id="Shape"></path>
            </g>
        </g>
    </g>
</svg>