<?xml version="1.0" encoding="UTF-8"?>
<svg width="1389px" height="434px" viewBox="0 0 1389 434" version="1.1" xmlns="http://www.w3.org/2000/svg" xmlns:xlink="http://www.w3.org/1999/xlink">
    <!-- Generator: Sketch 41.2 (35397) - http://www.bohemiancoding.com/sketch -->
    <title>Group 10@2x</title>
    <desc>Created with Sketch.</desc>
    <defs>
        <filter x="-50%" y="-50%" width="200%" height="200%" filterUnits="objectBoundingBox" id="filter-1">
            <feGaussianBlur stdDeviation="0 0" in="SourceGraphic"></feGaussianBlur>
        </filter>
        <filter x="-50%" y="-50%" width="200%" height="200%" filterUnits="objectBoundingBox" id="filter-2">
            <feGaussianBlur stdDeviation="0 0" in="SourceGraphic"></feGaussianBlur>
        </filter>
        <filter x="-50%" y="-50%" width="200%" height="200%" filterUnits="objectBoundingBox" id="filter-3">
            <feGaussianBlur stdDeviation="0 -0" in="SourceGraphic"></feGaussianBlur>
        </filter>
        <path d="M10.982195,19.3618422 C13.7534522,8.66859203 24.9624569,0 36.0034354,0 L553.996565,0 C565.044157,0 571.754301,8.66531703 568.982195,19.3618422 L559.017805,57.810715 C556.246548,68.5039651 545.037543,77.1725572 533.996565,77.1725572 L16.0034354,77.1725572 C4.95584307,77.1725572 -1.75430092,68.5072401 1.01780501,57.810715 L10.982195,19.3618422 Z" id="path-4"></path>
        <mask id="mask-5" maskContentUnits="userSpaceOnUse" maskUnits="objectBoundingBox" x="0" y="0" width="569.21423" height="77.1725572" fill="white">
            <use xlink:href="#path-4"></use>
        </mask>
        <path d="M340.982195,19.3618422 C343.753452,8.66859203 354.955119,0 366.006595,0 L593.993405,0 C605.042742,0 611.754301,8.66531703 608.982195,19.3618422 L599.017805,57.810715 C596.246548,68.5039651 585.044881,77.1725572 573.993405,77.1725572 L346.006595,77.1725572 C334.957258,77.1725572 328.245699,68.5072401 331.017805,57.810715 L340.982195,19.3618422 Z" id="path-6"></path>
        <mask id="mask-7" maskContentUnits="userSpaceOnUse" maskUnits="objectBoundingBox" x="0" y="0" width="279.214041" height="77.1725572" fill="white">
            <use xlink:href="#path-6"></use>
        </mask>
        <text id="text-8" font-family=".SFNSDisplay, .SF NS Display" font-size="45" font-weight="normal" fill="#FFFFFF">
            <tspan x="54.4865723" y="56.0582121">IT BOWLING </tspan>
        </text>
        <filter x="-50%" y="-50%" width="200%" height="200%" filterUnits="objectBoundingBox" id="filter-9">
            <feOffset dx="2" dy="4" in="SourceAlpha" result="shadowOffsetOuter1"></feOffset>
            <feColorMatrix values="0 0 0 0 0.97254902   0 0 0 0 0.662745098   0 0 0 0 0.160784314  0 0 0 1 0" type="matrix" in="shadowOffsetOuter1"></feColorMatrix>
        </filter>
        <text id="text-10" font-family=".SFNSDisplay, .SF NS Display" font-size="45" font-weight="normal" fill="#FFFFFF">
            <tspan x="390.140381" y="56.0582121">BATTLE</tspan>
        </text>
        <filter x="-50%" y="-50%" width="200%" height="200%" filterUnits="objectBoundingBox" id="filter-11">
            <feOffset dx="2" dy="4" in="SourceAlpha" result="shadowOffsetOuter1"></feOffset>
            <feColorMatrix values="0 0 0 0 0.031372549   0 0 0 0 0.505882353   0 0 0 0 0.792156863  0 0 0 1 0" type="matrix" in="shadowOffsetOuter1"></feColorMatrix>
        </filter>
    </defs>
    <g id="Page-1" stroke="none" stroke-width="1" fill="none" fill-rule="evenodd">
        <g id="Main-Page" transform="translate(0.000000, -110.000000)">
            <g id="Group-10" transform="translate(-103.000000, 99.000000)">
                <path d="M158.228792,26.601747 L158.228792,26.8300665 C152.933833,27.132064 147.461664,28.4675361 142.725886,31.6247939 C137.129561,35.3557648 132.652309,41.4716119 130.536583,50.2329038 C127.738446,61.8200782 130.239991,73.4314021 133.140123,84.8234417 C136.04026,96.2154772 139.25814,107.350054 138.465549,118.272374 C136.863444,140.35006 128.010435,164.429842 119.530704,187.225126 C111.072464,209.96264 103.078352,231.570394 103.436086,249.214104 C103.434516,249.248624 103.437556,249.293744 103.436086,249.328264 C103.051758,258.360929 106.156158,275.071238 111.956764,292.709132 C117.779548,310.414454 126.215395,328.810644 136.808748,340.199772 L136.927091,340.313932 C140.142672,343.059147 145.25856,343.886901 149.708114,344.423695 C154.157664,344.960494 157.755422,344.994498 157.755422,344.994498 L157.992107,344.994498 L161.305705,344.994498 C161.305705,344.994498 161.524287,344.994726 161.54239,344.994498 C161.578175,344.994498 161.625284,344.99715 161.660732,344.994498 C162.159715,344.987594 165.354693,344.920503 169.471356,344.423695 C173.920902,343.886901 179.15514,343.059147 182.370717,340.313932 L182.370717,340.199772 L182.48906,340.199772 C193.082413,328.810644 201.518268,310.414454 207.341044,292.709132 C213.14602,275.057933 216.251721,258.241823 215.861726,249.214104 C215.860526,249.186488 215.86298,249.127479 215.861726,249.099945 C216.228036,231.451272 208.229554,209.973954 199.767105,187.225126 C191.287373,164.429842 182.316021,140.464219 180.71392,118.386534 C179.921321,107.46421 183.257552,96.2154772 186.157685,84.8234417 C189.057822,73.4314021 191.559375,61.8200782 188.761229,50.2329038 C186.645495,41.4716119 182.049909,35.3557648 176.453579,31.6247939 C171.717802,28.4675365 166.337915,27.0241889 161.069021,26.715906 C160.990294,26.7142181 160.911231,26.7170931 160.832336,26.715906 C159.95502,26.6705548 159.097061,26.5831338 158.228796,26.6017462 L158.228792,26.601747 Z M159.648904,35.5418292 C164.076538,35.6520319 168.632104,36.7653187 172.491654,39.3384112 C176.713632,42.1531251 180.223968,46.6164257 181.916576,53.6255491 C184.152266,62.8835956 182.157319,72.5036357 179.638021,82.3996459 C177.508024,90.7664905 174.949417,99.2995207 174.666635,107.976618 C164.717929,107.53762 154.723643,107.406074 144.631174,108.076528 C144.364935,99.3648511 141.798053,90.7989549 139.659787,82.3996459 C137.140501,72.5036357 135.145546,62.8835956 137.381236,53.6255491 C139.073844,46.6164257 142.584184,42.1531251 146.806155,39.3384112 C150.695766,36.7452785 155.202679,35.6322846 159.648904,35.5418292 L159.648904,35.5418292 Z M174.044131,127.913001 C174.645485,132.242127 175.579672,136.586276 176.678552,140.982606 C165.972936,140.09285 154.747159,139.860775 142.619261,140.891845 C143.693148,136.585162 144.656692,132.336911 145.253678,128.094523 C150.120051,127.800284 155.011916,127.656698 159.837077,127.640718 C164.593552,127.624897 169.318445,127.720857 174.044131,127.913001 Z M159.431037,163.988103 C167.38426,163.977263 175.268608,164.171732 183.174405,164.618491 C186.237124,174.283624 189.818496,183.932991 193.303453,193.301281 C201.107454,214.280053 208.352266,233.899633 208.006914,249.090877 L208.006914,249.195942 C208.341677,256.494426 205.438079,272.141474 200.16507,288.175113 C194.909106,304.156917 187.236154,320.70987 178.164336,330.51637 C176.469476,331.963315 172.095278,333.099741 168.253112,333.56326 C164.613168,334.002386 161.70742,333.986393 161.391499,333.983523 L161.173671,333.983523 L158.124064,333.983523 C158.124064,333.983523 154.886785,334.026767 151.044619,333.56326 C147.202454,333.099741 142.828259,331.85825 141.133399,330.411306 C132.100183,320.592908 124.26245,304.104422 119.023751,288.175113 C113.750738,272.141478 110.956039,256.599491 111.290817,249.301007 L111.290817,249.195942 C110.945477,234.004702 118.190281,214.280053 125.994278,193.301281 C129.479235,183.932991 133.060612,174.283624 136.12333,164.618491 C143.904367,164.226709 151.689537,163.998516 159.431037,163.988103 Z" id="Shape-Copy-9" fill="#0881CA" opacity="0.300101902" transform="translate(159.649348, 185.797431) rotate(771.000000) translate(-159.649348, -185.797431) "></path>
                <path d="M363.811063,201.435174 L363.811063,201.646891 C358.90115,201.926927 353.826914,203.165285 349.435519,206.092949 C344.246154,209.552606 340.094486,215.223712 338.132614,223.347889 C335.537955,234.092452 337.857589,244.859408 340.546826,255.423026 C343.236067,265.98664 346.219945,276.311518 345.484991,286.439574 C343.99939,306.911785 335.790166,329.240501 327.927074,350.378127 C320.083912,371.462184 312.671127,391.498637 313.002847,407.859308 C313.001391,407.891317 313.00421,407.933156 313.002847,407.965166 C312.646467,416.340981 315.525117,431.836127 320.903907,448.191406 C326.303262,464.609208 334.12566,481.667639 343.948671,492.228557 L344.058408,492.334415 C347.040154,494.880001 351.784018,495.647561 355.910003,496.14532 C360.035985,496.643083 363.372117,496.674614 363.372117,496.674614 L363.59159,496.674614 L366.664225,496.674614 C366.664225,496.674614 366.866912,496.674825 366.883698,496.674614 C366.916881,496.674614 366.960565,496.677073 366.993435,496.674614 C367.456132,496.668212 370.418773,496.606 374.236076,496.14532 C378.362053,495.647561 383.215661,494.880001 386.197404,492.334415 L386.197404,492.228557 L386.30714,492.228557 C396.130152,481.667639 403.952557,464.609208 409.351904,448.191406 C414.734746,431.82379 417.614603,416.230536 417.252968,407.859308 C417.251856,407.8337 417.254131,407.778982 417.252968,407.753449 C417.59264,391.388177 410.175803,371.472675 402.328737,350.378127 C394.465646,329.240501 386.146685,307.017643 384.661088,286.545432 C383.926126,276.417372 387.019749,265.98664 389.708985,255.423026 C392.398226,244.859408 394.717868,234.092452 392.123202,223.347889 C390.161322,215.223712 385.899924,209.552606 380.710556,206.092949 C376.319161,203.165285 371.330496,201.826897 366.444752,201.541032 C366.371751,201.539467 366.298437,201.542133 366.225279,201.541032 C365.411761,201.498978 364.616192,201.417915 363.811067,201.435174 L363.811063,201.435174 Z M365.127906,209.72514 C369.233565,209.827329 373.457854,210.859658 377.036739,213.245637 C380.951698,215.855666 384.206765,219.994399 385.776287,226.493823 C387.849399,235.078631 385.999523,243.999108 383.663428,253.175487 C381.688322,260.9339 379.315775,268.846414 379.053557,276.892519 C369.828315,276.485444 360.560807,276.363464 351.202255,276.985163 C350.955377,268.906993 348.575157,260.964004 346.592385,253.175487 C344.256299,243.999108 342.406416,235.078631 344.479528,226.493823 C346.049051,219.994399 349.304121,215.855666 353.219073,213.245637 C356.825834,210.841075 361.005007,209.809017 365.127906,209.72514 L365.127906,209.72514 Z M378.476321,295.379141 C379.033945,299.393455 379.900199,303.421701 380.919168,307.498332 C370.992058,306.673279 360.582613,306.45808 349.336647,307.414172 C350.332441,303.420668 351.225917,299.481347 351.779491,295.547462 C356.291985,295.274621 360.828116,295.141476 365.302395,295.126658 C369.712982,295.111988 374.094284,295.200969 378.476321,295.379141 Z M364.925882,328.830885 C372.300751,328.820834 379.611755,329.001161 386.942648,329.415432 C389.782648,338.377722 393.103585,347.325394 396.335118,356.012428 C403.571618,375.465638 410.289591,393.658495 409.969353,407.745042 L409.969353,407.842466 C410.279772,414.610209 407.587322,429.119414 402.697763,443.987097 C397.824009,458.806715 390.709029,474.155948 382.296908,483.249326 C380.725297,484.59105 376.669187,485.644836 373.106422,486.074648 C369.731172,486.481842 367.036728,486.467011 366.743781,486.46435 L366.541793,486.46435 L363.713951,486.46435 C363.713951,486.46435 360.712084,486.504449 357.149319,486.074648 C353.586553,485.644836 349.530447,484.493626 347.958836,483.151902 C339.58251,474.047491 332.314732,458.758038 327.456987,443.987097 C322.567424,429.119418 319.975954,414.707634 320.286387,407.939891 L320.286387,407.842466 C319.96616,393.755923 326.684126,375.465638 333.920622,356.012428 C337.152156,347.325394 340.473096,338.377722 343.313096,329.415432 C350.528301,329.05214 357.747339,328.84054 364.925882,328.830885 Z" id="Shape-Copy-11" fill="#0881CA" opacity="0.255661232" transform="translate(365.128317, 349.054253) rotate(659.000000) translate(-365.128317, -349.054253) "></path>
                <path d="M1409.38965,26.2720199 L1409.38965,26.5093309 C1403.88617,26.8232212 1398.19851,28.2112854 1393.27623,31.4928787 C1387.45952,35.3707784 1382.80595,41.7274727 1380.6069,50.8337917 C1377.69857,62.8772789 1380.29863,74.9458666 1383.31297,86.7865344 C1386.32732,98.627198 1389.67192,110.200264 1388.84812,121.552714 C1387.18292,144.499838 1377.98127,169.527902 1369.1676,193.220884 C1360.37627,216.85382 1352.06734,239.312507 1352.43916,257.651041 C1352.43753,257.686921 1352.44069,257.733817 1352.43916,257.769697 C1352.0397,267.158075 1355.26635,284.52645 1361.29539,302.85894 C1367.34748,321.261513 1376.11554,340.38216 1387.12607,352.219801 L1387.24907,352.338457 C1390.59129,355.191781 1395.90864,356.052133 1400.53342,356.610067 C1405.1582,357.168005 1408.89764,357.203348 1408.89764,357.203348 L1409.14365,357.203348 L1412.58774,357.203348 C1412.58774,357.203348 1412.81493,357.203585 1412.83374,357.203348 C1412.87094,357.203348 1412.9199,357.206105 1412.95675,357.203348 C1413.47538,357.196172 1416.79618,357.126439 1421.07496,356.610067 C1425.69973,356.052133 1431.1401,355.191781 1434.48231,352.338457 L1434.48231,352.219801 L1434.60531,352.219801 C1445.61584,340.38216 1454.38391,321.261513 1460.43599,302.85894 C1466.46957,284.512622 1469.69757,267.034279 1469.29222,257.651041 C1469.29097,257.622337 1469.29352,257.561005 1469.29222,257.532386 C1469.67296,239.188693 1461.35949,216.865581 1452.56378,193.220884 C1443.75011,169.527902 1434.42546,144.618493 1432.76027,121.671369 C1431.93645,110.318915 1435.40407,98.627198 1438.41841,86.7865344 C1441.43276,74.9458666 1444.03282,62.8772789 1441.12448,50.8337917 C1438.92543,41.7274727 1434.14887,35.3707784 1428.33215,31.4928787 C1423.40987,28.2112858 1417.81812,26.7110979 1412.34173,26.3906746 C1412.25991,26.3889203 1412.17773,26.3919084 1412.09573,26.3906746 C1411.18386,26.3435374 1410.29212,26.2526737 1409.38966,26.2720191 L1409.38965,26.2720199 Z M1410.86569,35.5641701 C1415.46769,35.6787128 1420.20266,36.8358417 1424.2142,39.5102647 C1428.60244,42.4358245 1432.25102,47.0748936 1434.01028,54.3600423 C1436.33402,63.9826785 1434.26051,73.981564 1431.642,84.2672875 C1429.42812,92.9636255 1426.76875,101.832694 1426.47483,110.851503 C1416.13434,110.395216 1405.74647,110.25849 1395.25655,110.955347 C1394.97983,101.900597 1392.31186,92.9973684 1390.08939,84.2672875 C1387.47089,73.981564 1385.39737,63.9826785 1387.7211,54.3600423 C1389.48037,47.0748936 1393.12895,42.4358245 1397.51718,39.5102647 C1401.55997,36.8150123 1406.24437,35.6581877 1410.86569,35.5641701 L1410.86569,35.5641701 Z M1425.82781,131.572997 C1426.45285,136.072608 1427.42383,140.587833 1428.56598,145.157294 C1417.43877,144.232498 1405.77091,143.991285 1393.16541,145.062959 C1394.28158,140.586675 1395.28307,136.171124 1395.90357,131.761667 C1400.96158,131.455842 1406.04609,131.3066 1411.06127,131.289992 C1416.00506,131.273548 1420.91603,131.373286 1425.82781,131.572997 Z M1410.63924,169.068767 C1418.90567,169.057501 1427.10051,169.259628 1435.31765,169.723981 C1438.50098,179.769734 1442.22339,189.799102 1445.84558,199.536323 C1453.95691,221.341258 1461.48703,241.733473 1461.12808,257.522961 L1461.12808,257.632164 C1461.47603,265.218068 1458.45808,281.48131 1452.97742,298.146367 C1447.51447,314.757549 1439.53935,331.96237 1430.11028,342.155059 C1428.34867,343.658986 1423.80221,344.840166 1419.80874,345.321938 C1416.02545,345.778358 1413.00527,345.761735 1412.67691,345.758751 L1412.4505,345.758751 L1409.2808,345.758751 C1409.2808,345.758751 1405.91603,345.803698 1401.92256,345.321938 C1397.92909,344.840166 1393.38263,343.549784 1391.62103,342.045857 C1382.23208,331.840802 1374.08569,314.702986 1368.64068,298.146367 C1363.16002,281.481314 1360.25526,265.327271 1360.60322,257.741366 L1360.60322,257.632164 C1360.24428,241.842679 1367.77439,221.341258 1375.88572,199.536323 C1379.50791,189.799102 1383.23033,179.769734 1386.41366,169.723981 C1394.50112,169.31677 1402.59288,169.07959 1410.63924,169.068767 Z" id="Shape-Copy-10" fill="#0881CA" opacity="0.312273551" transform="translate(1410.866152, 191.736965) rotate(741.000000) translate(-1410.866152, -191.736965) "></path>
                <g id="Group-6" transform="translate(435.000000, 0.000000)">
                    <path d="M68.3171087,177.414043 L68.3171087,177.507429 C66.1513953,177.630951 63.9132003,178.177178 61.9762,179.468541 C59.6872234,180.994561 57.8559639,183.496029 56.9906018,187.079522 C55.8461238,191.818841 56.8692912,196.568038 58.0554866,201.227544 C59.2416838,205.887048 60.5578425,210.441249 60.2336617,214.908633 C59.5783779,223.93872 55.9573714,233.787693 52.4890406,243.111288 C49.0295003,252.411254 45.7597951,261.249133 45.9061134,268.465661 C45.9054712,268.479781 45.9067144,268.498235 45.9061134,268.512354 C45.7489177,272.206843 47.0186615,279.041596 49.3911918,286.255746 C51.7727933,293.497474 55.2231746,301.021777 59.5560065,305.680092 L59.6044102,305.726785 C60.9196287,306.849618 63.0120994,307.188181 64.8320303,307.407737 C66.6519594,307.627295 68.1234939,307.641204 68.1234939,307.641204 L68.2203013,307.641204 L69.57561,307.641204 C69.57561,307.641204 69.6650131,307.641297 69.6724174,307.641204 C69.6870539,307.641204 69.7063224,307.642288 69.7208211,307.641204 C69.9249122,307.63838 71.2317036,307.610939 72.9154773,307.407737 C74.7354047,307.188181 76.8762826,306.849618 78.1914994,305.726785 L78.1914994,305.680092 L78.2399031,305.680092 C82.572735,301.021777 86.0231197,293.497474 88.4047177,286.255746 C90.7790354,279.036155 92.0493114,272.158126 91.8897978,268.465661 C91.8893071,268.454366 91.890311,268.43023 91.8897978,268.418968 C92.0396237,261.20041 88.7681312,252.415882 85.306869,243.111288 C81.8385382,233.787693 78.169128,223.985413 77.5138459,214.955326 C77.1896617,210.48794 78.5542275,205.887048 79.7404229,201.227544 C80.9266201,196.568038 81.9497909,191.818841 80.8053095,187.079522 C79.939944,183.496029 78.0602842,180.994561 75.7713059,179.468541 C73.8343055,178.177178 71.6338555,177.586828 69.4788026,177.460736 C69.4466024,177.460046 69.4142643,177.461221 69.3819952,177.460736 C69.0231604,177.442187 68.672243,177.40643 68.3171104,177.414043 L68.3171087,177.414043 Z M68.8979549,181.070664 C70.7089202,181.115738 72.5722114,181.571089 74.1508219,182.62352 C75.8776711,183.774778 77.3134485,185.600331 78.0057492,188.467162 C78.9201781,192.253835 78.1042163,196.188568 77.0737878,200.236177 C76.2025886,203.658335 75.156082,207.148466 75.04042,210.697522 C70.9712581,210.517966 66.8834532,210.464161 62.7554898,210.738387 C62.6465943,207.175187 61.5967029,203.671614 60.722122,200.236177 C59.6916981,196.188568 58.8757333,192.253835 59.7901622,188.467162 C60.4824629,185.600331 61.9182417,183.774778 63.645088,182.62352 C65.2359941,181.562892 67.0793854,181.107662 68.8979549,181.070664 L68.8979549,181.070664 Z M74.7858071,218.851786 C75.0317696,220.62246 75.4138653,222.399279 75.8633226,224.19744 C71.4845738,223.833517 66.8930716,223.738595 61.9325886,224.160318 C62.3718236,222.398823 62.7659268,220.661228 63.0101028,218.926031 C65.0005186,218.805683 67.0013607,218.746954 68.9749201,218.740419 C70.9203862,218.733948 72.8529344,218.773196 74.7858071,218.851786 Z M68.8088443,233.607015 C72.0618252,233.602582 75.2866356,233.682123 78.5202191,233.864853 C79.7729146,237.81803 81.2377467,241.764758 82.6631438,245.596522 C85.8550911,254.177138 88.8183221,262.201825 88.6770682,268.41526 L88.6770682,268.458233 C88.8139909,271.443416 87.6263782,277.843281 85.4696426,284.401267 C83.3198784,290.938053 80.1815322,297.708445 76.4710297,301.719444 C75.7778078,302.311265 73.9886986,302.776079 72.4171983,302.965665 C70.9284094,303.145274 69.7399171,303.138732 69.6107011,303.137558 L69.5216062,303.137558 L68.2742736,303.137558 C68.2742736,303.137558 66.9501803,303.155246 65.37868,302.965665 C63.8071796,302.776079 62.0180721,302.268292 61.3248501,301.676471 C57.6301365,297.660606 54.4243924,290.916582 52.2816898,284.401267 C50.1249526,277.843283 48.981881,271.486389 49.11881,268.501206 L49.11881,268.458233 C48.9775609,262.2448 51.9407887,254.177138 55.1327344,245.596522 C56.5581316,241.764758 58.0229653,237.81803 59.2756607,233.864853 C62.4582152,233.704609 65.6424606,233.611274 68.8088443,233.607015 Z" id="Shape-Copy" fill="#F28422" opacity="0.342900815" filter="url(#filter-1)" transform="translate(68.898136, 242.527341) rotate(245.000000) translate(-68.898136, -242.527341) "></path>
                    <path d="M692.924142,248.588837 L692.924142,248.699516 C690.35737,248.845912 687.704695,249.493292 685.408991,251.023797 C682.696129,252.832413 680.525748,255.797117 679.500133,260.044219 C678.143715,265.66119 679.356358,271.289867 680.762219,276.812245 C682.168082,282.334621 683.727974,287.732191 683.34376,293.026869 C682.567127,303.729194 678.275564,315.402051 674.16495,326.452238 C670.064754,337.47442 666.189548,347.948943 666.362962,356.501866 C666.362201,356.518599 666.363674,356.540472 666.362962,356.557205 C666.176656,360.935858 667.681538,369.036307 670.493425,377.58641 C673.316064,386.169199 677.405405,395.086892 682.540613,400.607858 L682.59798,400.663198 C684.156758,401.993962 686.636723,402.395222 688.793678,402.655437 C690.950631,402.915654 692.694672,402.932138 692.694672,402.932138 L692.809407,402.932138 L694.415699,402.932138 C694.415699,402.932138 694.521658,402.932248 694.530433,402.932138 C694.54778,402.932138 694.570617,402.933424 694.587801,402.932138 C694.829686,402.928791 696.378476,402.896269 698.37406,402.655437 C700.531011,402.395222 703.068348,401.993962 704.627123,400.663198 L704.627123,400.607858 L704.684491,400.607858 C709.819699,395.086892 713.909044,386.169199 716.731678,377.58641 C719.545684,369.029858 721.051197,360.87812 720.862144,356.501866 C720.861562,356.488479 720.862752,356.459873 720.862144,356.446526 C721.039715,347.891198 717.16239,337.479905 713.060154,326.452238 C708.949539,315.402051 704.600609,303.784534 703.823978,293.082208 C703.43976,287.787529 705.057023,282.334621 706.462884,276.812245 C707.868748,271.289867 709.081395,265.66119 707.724972,260.044219 C706.699354,255.797117 704.471609,252.832413 701.758746,251.023797 C699.463042,249.493292 696.855101,248.793619 694.300964,248.644176 C694.262801,248.643358 694.224474,248.644752 694.186229,248.644176 C693.760944,248.622192 693.345042,248.579814 692.924144,248.588836 L692.924142,248.588837 Z M693.612552,252.922609 C695.758881,252.976031 697.967226,253.515705 699.838172,254.763031 C701.884808,256.127485 703.58647,258.291104 704.406975,261.68883 C705.490742,266.176738 704.523677,270.840126 703.302428,275.637292 C702.269896,279.693183 701.029591,283.829634 700.892511,288.035923 C696.0698,287.823115 691.224994,287.759347 686.332593,288.084355 C686.203532,283.861303 684.959216,279.70892 683.922676,275.637292 C682.701433,270.840126 681.734363,266.176738 682.818131,261.68883 C683.638635,258.291104 685.340299,256.127485 687.386932,254.763031 C689.27245,253.505991 691.45721,252.966458 693.612552,252.922609 L693.612552,252.922609 Z M700.590747,297.700236 C700.882258,299.798812 701.335112,301.904672 701.867803,304.035826 C696.678174,303.60451 691.236394,303.49201 685.357303,303.991829 C685.877878,301.904132 686.344963,299.844759 686.634357,297.78823 C688.993368,297.645595 691.364737,297.575991 693.70377,297.568245 C696.009507,297.560575 698.299935,297.607092 700.590747,297.700236 Z M693.506939,315.187915 C697.362324,315.18266 701.184322,315.276931 705.016717,315.4935 C706.501393,320.178747 708.23749,324.856351 709.92685,329.3977 C713.709899,339.567319 717.221876,349.07806 717.054464,356.44213 L717.054464,356.493061 C717.216743,360.031057 715.809202,367.616082 713.253071,375.38851 C710.705202,383.135811 706.985681,391.15998 702.588048,395.913756 C701.766452,396.615173 699.646026,397.166064 697.783507,397.390758 C696.019017,397.603628 694.610433,397.595876 694.457288,397.594484 L694.351694,397.594484 L692.873374,397.594484 C692.873374,397.594484 691.304078,397.615447 689.441559,397.390758 C687.57904,397.166064 685.458617,396.564242 684.63702,395.862825 C680.258101,391.103282 676.4587,383.110364 673.919201,375.38851 C671.363068,367.616084 670.008316,360.081988 670.170602,356.543992 L670.170602,356.493061 C670.003196,349.128992 673.51517,339.567319 677.298217,329.3977 C678.987576,324.856351 680.723675,320.178747 682.208351,315.4935 C685.980268,315.303581 689.754188,315.192963 693.506939,315.187915 Z" id="Shape-Copy-2" fill="#F28422" opacity="0.480298913" transform="translate(693.612767, 325.760152) rotate(333.000000) translate(-693.612767, -325.760152) "></path>
                    <path d="M609.65051,-1.98512776 L609.65051,-1.88759134 C607.388543,-1.75858026 605.050873,-1.18807642 603.027783,0.160680806 C600.637074,1.75452404 598.724426,4.3671688 597.820603,8.10992805 C596.625259,13.0598835 597.693901,18.0201554 598.932816,22.8867506 C600.171733,27.7533442 601.546388,32.5099533 601.207799,37.1758877 C600.523391,46.6073121 596.741451,56.8940175 593.118972,66.6319947 C589.505675,76.3452928 586.090649,85.5759661 586.243471,93.1132288 C586.2428,93.1279755 586.244098,93.1472503 586.243471,93.161997 C586.079288,97.0206848 587.405465,104.159205 589.883442,111.693984 C592.370892,119.257567 595.974624,127.116283 600.500026,131.981635 L600.550581,132.030403 C601.924253,133.203139 604.109723,133.556749 606.010539,133.786064 C607.911354,134.01538 609.44829,134.029906 609.44829,134.029906 L609.5494,134.029906 L610.964945,134.029906 C610.964945,134.029906 611.058321,134.030004 611.066055,134.029906 C611.081342,134.029906 611.101467,134.031039 611.11661,134.029906 C611.329772,134.026957 612.694643,133.998296 614.453251,133.786064 C616.354064,133.556749 618.590092,133.203139 619.963763,132.030403 L619.963763,131.981635 L620.014318,131.981635 C624.53972,127.116283 628.143455,119.257567 630.630902,111.693984 C633.110745,104.153522 634.437477,96.9698035 634.270874,93.1132288 C634.270362,93.1014315 634.27141,93.0762233 634.270874,93.0644606 C634.427359,85.5250778 631.010467,76.3501262 627.395371,66.6319947 C623.772892,56.8940175 619.940397,46.6560803 619.255991,37.2246559 C618.917399,32.5587198 620.342612,27.7533442 621.581527,22.8867506 C622.820444,18.0201554 623.889089,13.0598835 622.693742,8.10992805 C621.789916,4.3671688 619.826716,1.75452404 617.436005,0.160680806 C615.412916,-1.18807625 613.114668,-1.8046637 610.863835,-1.9363599 C610.830204,-1.93708093 610.796428,-1.93585279 610.762725,-1.9363599 C610.387942,-1.95573359 610.021428,-1.99307918 609.650512,-1.98512811 L609.65051,-1.98512776 Z M610.257172,1.83400937 C612.148624,1.88108718 614.094729,2.35667508 615.7435,3.45588119 C617.547098,4.65830622 619.046687,6.56499529 619.769757,9.55924112 C620.724827,13.5142103 619.8726,17.6238204 618.796375,21.851323 C617.886456,25.4255772 616.793438,29.0708248 616.672635,32.7776169 C612.422622,32.59008 608.153137,32.5338845 603.841708,32.8202976 C603.727973,29.0987335 602.63142,25.4394458 601.717969,21.851323 C600.641748,17.6238204 599.789518,13.5142103 600.744588,9.55924112 C601.467658,6.56499529 602.967249,4.65830622 604.770844,3.45588119 C606.432457,2.34811404 608.357777,1.87265125 610.257172,1.83400937 L610.257172,1.83400937 Z M616.406706,41.2942924 C616.663601,43.143663 617.062678,44.9994516 617.532111,46.8775312 C612.958752,46.4974339 608.163183,46.3982934 602.982234,46.8387588 C603.44099,44.9989757 603.852609,43.184154 604.107637,41.3718371 C606.186516,41.2461408 608.276285,41.1848016 610.337558,41.1779754 C612.369489,41.1712168 614.387928,41.2122098 616.406706,41.2942924 Z M610.164101,56.7053097 C613.561659,56.7006793 616.929794,56.7837549 620.307092,56.974607 C621.615463,61.1034803 623.145399,65.2256188 624.634147,69.2276831 C627.967959,78.18966 631.062889,86.5709998 630.915357,93.0605872 L630.915357,93.10547 C631.058365,96.2233286 629.817969,102.907632 627.565379,109.757084 C625.32007,116.584393 622.042241,123.655692 618.166828,127.844957 C617.442796,128.463081 615.574171,128.948554 613.932826,129.146566 C612.377869,129.334157 611.136555,129.327325 611.001596,129.326099 L610.908541,129.326099 L609.605771,129.326099 C609.605771,129.326099 608.222829,129.344573 606.581485,129.146566 C604.94014,128.948554 603.071516,128.418198 602.347485,127.800074 C598.488562,123.605727 595.14034,116.561968 592.902406,109.757084 C590.649814,102.907634 589.455939,96.2682115 589.598954,93.1503529 L589.598954,93.10547 C589.451427,86.6158843 592.546354,78.18966 595.880164,69.2276831 C597.368912,65.2256188 598.898849,61.1034803 600.20722,56.974607 C603.531221,56.8072406 606.856989,56.709758 610.164101,56.7053097 Z" id="Shape-Copy-3" fill="#F28422" opacity="0.627660779" filter="url(#filter-2)" transform="translate(610.257361, 66.022094) rotate(496.000000) translate(-610.257361, -66.022094) "></path>
                    <path d="M243.758363,36.8608385 L243.758363,36.9715181 C241.191592,37.1179137 238.538916,37.7652939 236.243212,39.2957986 C233.530351,41.104415 231.359969,44.0691183 230.334355,48.316221 C228.977936,53.9331917 230.190579,59.561869 231.596441,65.0842466 C233.002304,70.6066223 234.562196,76.0041929 234.177981,81.2988702 C233.401349,92.0011958 229.109785,103.674053 224.999171,114.72424 C220.898975,125.746422 217.023769,136.220945 217.197183,144.773867 C217.196422,144.790601 217.197896,144.812473 217.197183,144.829207 C217.010877,149.20786 218.515759,157.308309 221.327647,165.858412 C224.150285,174.441201 228.239626,183.358894 233.374834,188.87986 L233.432202,188.9352 C234.990979,190.265964 237.470945,190.667223 239.6279,190.927439 C241.784853,191.187656 243.528894,191.20414 243.528894,191.20414 L243.643628,191.20414 L245.24992,191.20414 C245.24992,191.20414 245.355879,191.20425 245.364655,191.20414 C245.382002,191.20414 245.404838,191.205425 245.422022,191.20414 C245.663908,191.200793 247.212698,191.16827 249.208281,190.927439 C251.365232,190.667223 253.902569,190.265964 255.461345,188.9352 L255.461345,188.87986 L255.518712,188.87986 C260.65392,183.358894 264.743265,174.441201 267.5659,165.858412 C270.379906,157.301859 271.885418,149.150122 271.696365,144.773867 C271.695783,144.76048 271.696973,144.731875 271.696365,144.718527 C271.873936,136.163199 267.996612,125.751907 263.894375,114.72424 C259.783761,103.674053 255.43483,92.0565356 254.6582,81.35421 C254.273981,76.0595308 255.891245,70.6066223 257.297106,65.0842466 C258.702969,59.561869 259.915616,53.9331917 258.559194,48.316221 C257.533575,44.0691183 255.30583,41.104415 252.592967,39.2957986 C250.297263,37.7652941 247.689322,37.0656204 245.135185,36.9161779 C245.097022,36.9153597 245.058696,36.9167534 245.020451,36.9161779 C244.595165,36.8941936 244.179263,36.8518156 243.758365,36.8608381 L243.758363,36.8608385 Z M244.446773,41.1946111 C246.593103,41.2480328 248.801448,41.787707 250.672393,43.0350331 C252.71903,44.399487 254.420692,46.5631058 255.241196,49.9608316 C256.324964,54.4487398 255.357898,59.1121272 254.136649,63.9092932 C253.104117,67.9651846 251.863813,72.1016357 251.726732,76.3079246 C246.904022,76.0951168 242.059216,76.0313489 237.166815,76.3563566 C237.037753,72.1333051 235.793438,67.980922 234.756897,63.9092932 C233.535654,59.1121272 232.568585,54.4487398 233.652352,49.9608316 C234.472857,46.5631058 236.174521,44.399487 238.221153,43.0350331 C240.106672,41.7779923 242.291432,41.2384601 244.446773,41.1946111 L244.446773,41.1946111 Z M251.424969,85.9722373 C251.71648,88.0708139 252.169334,90.1766732 252.702024,92.3078274 C247.512396,91.8765113 242.070615,91.7640114 236.191524,92.2638304 C236.712099,90.1761333 237.179185,88.1167611 237.468578,86.0602313 C239.82759,85.9175971 242.198958,85.8479923 244.537991,85.8402463 C246.843729,85.832577 249.134156,85.8790939 251.424969,85.9722373 Z M244.341161,103.459916 C248.196546,103.454662 252.018543,103.548932 255.850938,103.765502 C257.335614,108.450748 259.071712,113.128352 260.761071,117.669702 C264.54412,127.839321 268.056097,137.350061 267.888685,144.714132 L267.888685,144.765063 C268.050964,148.303059 266.643423,155.888084 264.087292,163.660511 C261.539423,171.407813 257.819902,179.431982 253.422269,184.185757 C252.600673,184.887175 250.480247,185.438066 248.617728,185.66276 C246.853238,185.87563 245.444654,185.867877 245.29151,185.866486 L245.185916,185.866486 L243.707595,185.866486 C243.707595,185.866486 242.1383,185.887449 240.275781,185.66276 C238.413262,185.438066 236.292838,184.836244 235.471242,184.134826 C231.092322,179.375284 227.292921,171.382365 224.753422,163.660511 C222.197289,155.888085 220.842538,148.353989 221.004824,144.815994 L221.004824,144.765063 C220.837418,137.400994 224.349391,127.839321 228.132438,117.669702 C229.821797,113.128352 231.557897,108.450748 233.042573,103.765502 C236.814489,103.575583 240.58841,103.464964 244.341161,103.459916 Z" id="Shape-Copy-7" fill="#F28422" opacity="0.646852355" transform="translate(244.446988, 114.032154) rotate(744.000000) translate(-244.446988, -114.032154) "></path>
                    <path d="M558.784216,123.05261 L558.784216,123.121784 C557.179984,123.213282 555.522062,123.617894 554.087247,124.57446 C552.391709,125.704845 551.03522,127.557785 550.394211,130.212224 C549.54645,133.72283 550.304352,137.240754 551.183015,140.69224 C552.06168,144.143725 553.036612,147.517206 552.796478,150.826379 C552.311083,157.515333 549.628856,164.810869 547.059722,171.717235 C544.497099,178.606099 542.075095,185.152676 542.183479,190.498253 C542.183004,190.508711 542.183924,190.522381 542.183479,190.53284 C542.067038,193.269498 543.007589,198.332279 544.765019,203.676093 C546.529168,209.040336 549.085006,214.613894 552.294511,218.064498 L552.330366,218.099085 C553.304602,218.930813 554.85458,219.1816 556.202677,219.344235 C557.550773,219.50687 558.640798,219.517173 558.640798,219.517173 L558.712507,219.517173 L559.71644,219.517173 C559.71644,219.517173 559.782664,219.517242 559.788149,219.517173 C559.798991,219.517173 559.813264,219.517976 559.824003,219.517173 C559.975182,219.515081 560.943176,219.494754 562.190415,219.344235 C563.53851,219.1816 565.124345,218.930813 566.09858,218.099085 L566.09858,218.064498 L566.134435,218.064498 C569.34394,214.613894 571.89978,209.040336 573.663927,203.676093 C575.422681,198.328248 576.363626,193.233412 576.245468,190.498253 C576.245104,190.489886 576.245848,190.472008 576.245468,190.463665 C576.35645,185.116585 573.933122,178.609527 571.369224,171.717235 C568.80009,164.810869 566.082009,157.54992 565.596614,150.860967 C565.356478,147.551792 566.367267,144.143725 567.245931,140.69224 C568.124595,137.240754 568.8825,133.72283 568.034736,130.212224 C567.393724,127.557785 566.001384,125.704845 564.305844,124.57446 C562.871029,123.617894 561.241066,123.180598 559.644731,123.087197 C559.620878,123.086685 559.596924,123.087556 559.573021,123.087197 C559.307218,123.073457 559.047279,123.04697 558.784218,123.052609 L558.784216,123.05261 Z M559.214473,125.761218 C560.555929,125.794606 561.936144,126.131902 563.105486,126.911481 C564.384633,127.764265 565.448172,129.116527 565.960987,131.240105 C566.638342,134.045048 566.033926,136.959665 565.270646,139.957894 C564.625313,142.492826 563.850123,145.078108 563.764447,147.707039 C560.750253,147.574034 557.722249,147.534179 554.664499,147.737308 C554.583835,145.097901 553.806138,142.502662 553.1583,139.957894 C552.395023,136.959665 551.790605,134.045048 552.46796,131.240105 C552.980775,129.116527 554.044315,127.764265 555.32346,126.911481 C556.501909,126.125831 557.867384,125.788623 559.214473,125.761218 L559.214473,125.761218 Z M563.575845,153.747234 C563.758039,155.058844 564.041073,156.375006 564.374005,157.706978 C561.130487,157.437405 557.729374,157.367093 554.054942,157.67948 C554.380302,156.374669 554.67223,155.087561 554.853101,153.80223 C556.327483,153.713084 557.809588,153.669581 559.271484,153.66474 C560.71257,153.659946 562.144087,153.689019 563.575845,153.747234 Z M559.148465,164.677033 C561.558081,164.673749 563.946829,164.732668 566.342076,164.868024 C567.269999,167.796303 568.355059,170.719806 569.410909,173.558149 C571.775315,179.914161 573.9703,185.858374 573.865668,190.460918 L573.865668,190.49275 C573.967092,192.703997 573.087379,197.444638 571.489797,202.302405 C569.897379,207.144468 567.572678,212.159574 564.824158,215.130684 C564.31066,215.56907 562.985394,215.913377 561.82132,216.053811 C560.718513,216.186854 559.838149,216.182009 559.742433,216.181139 L559.676437,216.181139 L558.752487,216.181139 C558.752487,216.181139 557.771677,216.194241 556.607603,216.053811 C555.443528,215.913377 554.118263,215.537238 553.604766,215.098852 C550.867941,212.124138 548.493316,207.128564 546.906128,202.302405 C545.308545,197.444639 544.461826,192.735829 544.563255,190.524582 L544.563255,190.49275 C544.458626,185.890207 546.653609,179.914161 549.018013,173.558149 C550.073863,170.719806 551.158925,167.796303 552.086848,164.868024 C554.444295,164.749325 556.802996,164.680188 559.148465,164.677033 Z" id="Shape-Copy-8" fill="#F28422" opacity="0.702445652" filter="url(#filter-3)" transform="translate(559.214607, 171.284682) rotate(417.000000) translate(-559.214607, -171.284682) "></path>
                    <g id="Group-8" transform="translate(84.000000, 92.501040)">
                        <g id="Group" transform="translate(304.658004, 103.841996) rotate(-90.000000) translate(-304.658004, -103.841996) translate(201.158004, 3.841996)" fill="#0881CA">
                            <path d="M103.5,0 C46.4322414,0 0,44.791185 0,99.8419958 C0,154.892807 46.4322414,199.683992 103.5,199.683992 C160.567759,199.683992 207,154.892807 207,99.8419958 C207,44.791185 160.567759,0 103.5,0 Z M103.5,192.798337 C50.3581034,192.798337 7.13793103,151.105696 7.13793103,99.8419958 C7.13793103,48.5782952 50.3581034,6.88565489 103.5,6.88565489 C156.641897,6.88565489 199.862069,48.5782952 199.862069,99.8419958 C199.862069,151.105696 156.641897,192.798337 103.5,192.798337 Z" id="Shape"></path>
                            <g id="Group-9" transform="translate(144.937695, 77.018348) rotate(158.000000) translate(-144.937695, -77.018348) translate(110.937695, 45.018348)">
                                <path d="M15.2816893,29.2298023 C6.88299109,29.2298023 0.0658659434,35.835227 0.0658659434,43.9731103 C0.0658659434,52.1109936 6.88299109,58.7164183 15.2816893,58.7164183 C23.6803874,58.7164183 30.4975126,52.1109936 30.4975126,43.9731103 C30.4975126,35.835227 23.6803874,29.2298023 15.2816893,29.2298023 Z M15.2816893,53.4585002 C9.88252615,53.4585002 5.51956606,49.2046067 5.51956606,43.999532 C5.51956606,38.7680356 9.90979465,34.5405637 15.2816893,34.5405637 C20.6808524,34.5405637 25.0438125,38.7944573 25.0438125,43.999532 C25.071081,49.2046067 20.6808524,53.4585002 15.2816893,53.4585002 Z" id="Shape"></path>
                                <path d="M6.05599558,51.4181647 C7.98171414,54.1562737 11.2246925,55.9547011 14.9021318,55.9547011 C19.9181803,55.9547011 24.1269535,52.6084108 25.2830251,48.0943709 C23.7730867,44.5957768 20.207732,42.1374519 16.0499305,42.1374519 C10.6677393,42.1371933 6.27963086,46.255605 6.05599558,51.4181647 Z" id="Path"></path>
                                <path d="M43.6507644,56.442619 C45.576483,59.1807279 48.8194614,60.9791553 52.4969006,60.9791553 C57.5129491,60.9791553 61.7217224,57.632865 62.877794,53.1188252 C61.3678556,49.620231 57.8025008,47.1619062 53.6446993,47.1619062 C48.2625081,47.1616476 43.8743997,51.2800592 43.6507644,56.442619 Z" id="Path-Copy"></path>
                                <path d="M28.0943083,22.5275529 C30.0200269,25.2656618 33.2630053,27.0640892 36.9404446,27.0640892 C41.9564931,27.0640892 46.1652663,23.7177989 47.3213379,19.2037591 C45.8113995,15.7051649 42.2460447,13.2468401 38.0882433,13.2468401 C32.706052,13.2465815 28.3179436,17.3649932 28.0943083,22.5275529 Z" id="Path-Copy-2"></path>
                                <path d="M52.7758776,34.0649732 C44.3771794,34.0649732 37.5600542,40.6703979 37.5600542,48.8082812 C37.5600542,56.9461645 44.3771794,63.5780109 52.7758776,63.5780109 C61.1745757,63.5780109 67.9917009,56.9725862 67.9917009,48.8347029 C67.9917009,40.6968196 61.1745757,34.0649732 52.7758776,34.0649732 Z M52.7758776,58.2936711 C47.3767145,58.2936711 43.0137544,54.0397776 43.0137544,48.8347029 C43.0137544,43.6032065 47.403983,39.3757347 52.7758776,39.3757347 C58.1750407,39.3757347 62.5380008,43.6296282 62.5380008,48.8347029 C62.5652693,54.0397776 58.1750407,58.2936711 52.7758776,58.2936711 Z" id="Shape"></path>
                                <path d="M37.7782022,29.6789711 C46.1769004,29.6789711 52.9940256,23.0735464 52.9940256,14.9356631 C52.9940256,6.79777982 46.1769004,0.165933375 37.7782022,0.165933375 C29.3795041,0.165933375 22.5623789,6.77135812 22.5623789,14.9092414 C22.5623789,23.0471247 29.3795041,29.6789711 37.7782022,29.6789711 Z M37.7782022,5.45027317 C43.1773654,5.45027317 47.5403255,9.70416671 47.5403255,14.9092414 C47.5403255,20.1407378 43.1500969,24.3682096 37.7782022,24.3682096 C32.3790391,24.3682096 28.016079,20.1143161 28.016079,14.9092414 C28.016079,9.70416671 32.4063076,5.45027317 37.7782022,5.45027317 Z" id="Shape"></path>
                            </g>
                            <path d="M110.637931,20.6569647 C112.600862,20.6569647 114.206897,19.1076923 114.206897,17.2141372 C114.206897,15.3205821 112.600862,13.7713098 110.637931,13.7713098 C100.502069,13.7713098 90.5446552,15.2861538 80.9798276,18.2469854 C79.0882759,18.8322661 78.0889655,20.7602495 78.6956897,22.584948 C79.1953448,24.0309356 80.5872414,24.960499 82.0862069,24.960499 C82.4431034,24.960499 82.8356897,24.8916424 83.1925862,24.7883576 C92.007931,22.0340956 101.251552,20.6569647 110.637931,20.6569647 Z" id="Shape"></path>
                            <path d="M69.8803448,22.4472349 C57.1034483,28.1967568 45.5756897,36.8038254 36.5105172,47.2700208 C35.2613793,48.7160083 35.4755172,50.9194179 36.9744828,52.1244075 C37.6525862,52.6752599 38.4377586,52.9162578 39.2586207,52.9162578 C40.2936207,52.9162578 41.292931,52.5031185 42.0067241,51.6768399 C50.3937931,41.9680665 61.065,34.0151351 72.8782759,28.6787526 C74.6627586,27.8869023 75.447931,25.8212058 74.5913793,24.0997921 C73.7705172,22.4128067 71.6648276,21.6553846 69.8803448,22.4472349 Z" id="Shape"></path>
                            <path d="M32.0136207,58.9756341 C30.3005172,58.0116424 28.1234483,58.5969231 27.1241379,60.2494802 C26.4103448,61.4200416 25.7322414,62.6250312 25.0898276,63.8300208 C24.1975862,65.5170062 24.8756897,67.5827027 26.6244828,68.4778378 C27.1598276,68.7188358 27.7308621,68.8565489 28.2662069,68.8565489 C29.5510345,68.8565489 30.8001724,68.1679834 31.4425862,66.997422 C32.0493103,65.8957173 32.6560345,64.7595842 33.3341379,63.6923077 C34.2977586,62.0397505 33.7267241,59.9396258 32.0136207,58.9756341 Z" id="Shape"></path>
                            <path d="M21.1282759,82.7311435 C19.2010345,82.2835759 17.2737931,83.4541372 16.8455172,85.2788358 C15.1324138,92.2677755 14.2758621,99.4977131 14.2758621,106.727651 C14.2758621,108.621206 15.8818966,110.170478 17.8448276,110.170478 C19.8077586,110.170478 21.4137931,108.621206 21.4137931,106.727651 C21.4137931,100.014137 22.1989655,93.335052 23.805,86.8625364 C24.2332759,85.0034096 23.0555172,83.1442827 21.1282759,82.7311435 Z" id="Shape"></path>
                        </g>
                        <g id="Group-5" transform="translate(0.000000, 126.511435)">
                            <g id="Group-3">
                                <use id="Rectangle-6" stroke="#F9A929" mask="url(#mask-5)" stroke-width="16" fill="#FECC27" xlink:href="#path-4"></use>
                                <use id="Rectangle-6-Copy" stroke="#0781CB" mask="url(#mask-7)" stroke-width="16" fill="#1EABF4" xlink:href="#path-6"></use>
                                <g id="IT-BOWLING" fill-opacity="1" fill="#FFFFFF">
                                    <use filter="url(#filter-9)" xlink:href="#text-8"></use>
                                    <use xlink:href="#text-8"></use>
                                </g>
                                <g id="BATTLE" fill-opacity="1" fill="#FFFFFF">
                                    <use filter="url(#filter-11)" xlink:href="#text-10"></use>
                                    <use xlink:href="#text-10"></use>
                                </g>
                            </g>
                            <g id="Group-4" transform="translate(40.000000, 97.430353)" fill="#0881CA">
                                <text id="БИТВА-АЙТИШНИКОВ" stroke="#979797" font-family=".SFNSDisplay, .SF NS Display" font-size="35" font-weight="normal">
                                    <tspan x="83.3308105" y="34.4823285">БИТВА АЙТИШНИКОВ</tspan>
                                </text>
                                <text id="28.01.2017" font-family=".SFNSDisplay, .SF NS Display" font-size="35" font-weight="normal">
                                    <tspan x="178.128174" y="82.7151767">28.01.2017</tspan>
                                </text>
                                <path d="M50,11.0935551 C50,9.76164177 51.0860127,8.68191268 52.4147336,8.68191268 L60.5852664,8.68191268 C61.9188869,8.68191268 63,9.75235591 63,11.0935551 C63,12.4254684 61.9139873,13.5051975 60.5852664,13.5051975 L52.4147336,13.5051975 C51.0811131,13.5051975 50,12.4347543 50,11.0935551 Z M38,11.0935551 C38,9.76164177 39.0784093,8.68191268 40.4090029,8.68191268 L42.5909971,8.68191268 C43.9214527,8.68191268 45,9.75235591 45,11.0935551 C45,12.4254684 43.9215907,13.5051975 42.5909971,13.5051975 L40.4090029,13.5051975 C39.0785473,13.5051975 38,12.4347543 38,11.0935551 Z M0,20.7401247 C0,19.4082114 1.0784093,18.3284823 2.4090029,18.3284823 L4.5909971,18.3284823 C5.92145266,18.3284823 7,19.3989256 7,20.7401247 C7,22.0720381 5.9215907,23.1517672 4.5909971,23.1517672 L2.4090029,23.1517672 C1.07854734,23.1517672 0,22.0813239 0,20.7401247 Z M19,11.0935551 C19,9.76164177 20.0753102,8.68191268 21.4066858,8.68191268 L30.5933142,8.68191268 C31.9224901,8.68191268 33,9.75235591 33,11.0935551 C33,12.4254684 31.9246898,13.5051975 30.5933142,13.5051975 L21.4066858,13.5051975 C20.0775099,13.5051975 19,12.4347543 19,11.0935551 Z M35,20.7401247 C35,19.4082114 36.0742188,18.3284823 37.4198206,18.3284823 L57.5801794,18.3284823 C58.9166094,18.3284823 60,19.3989256 60,20.7401247 C60,22.0720381 58.9257812,23.1517672 57.5801794,23.1517672 L37.4198206,23.1517672 C36.0833906,23.1517672 35,22.0813239 35,20.7401247 Z M46,30.3866944 C46,29.0547811 47.0747546,27.975052 48.4139967,27.975052 L54.5860033,27.975052 C55.9192169,27.975052 57,29.0454952 57,30.3866944 C57,31.7186077 55.9252454,32.7983368 54.5860033,32.7983368 L48.4139967,32.7983368 C47.0807831,32.7983368 46,31.7278936 46,30.3866944 Z M8,30.3866944 C8,29.0547811 9.07920733,27.975052 10.4131988,27.975052 L38.5868012,27.975052 C39.9195741,27.975052 41,29.0454952 41,30.3866944 C41,31.7186077 39.9207927,32.7983368 38.5868012,32.7983368 L10.4131988,32.7983368 C9.08042592,32.7983368 8,31.7278936 8,30.3866944 Z M12,20.7401247 C12,19.4082114 13.0720768,18.3284823 14.4088827,18.3284823 L27.5911173,18.3284823 C28.9215065,18.3284823 30,19.3989256 30,20.7401247 C30,22.0720381 28.9279232,23.1517672 27.5911173,23.1517672 L14.4088827,23.1517672 C13.0784935,23.1517672 12,22.0813239 12,20.7401247 Z" id="Combined-Shape"></path>
                                <path d="M484,11.0935551 C484,9.76164177 482.913987,8.68191268 481.585266,8.68191268 L473.414734,8.68191268 C472.081113,8.68191268 471,9.75235591 471,11.0935551 C471,12.4254684 472.086013,13.5051975 473.414734,13.5051975 L481.585266,13.5051975 C482.918887,13.5051975 484,12.4347543 484,11.0935551 Z M496,11.0935551 C496,9.76164177 494.921591,8.68191268 493.590997,8.68191268 L491.409003,8.68191268 C490.078547,8.68191268 489,9.75235591 489,11.0935551 C489,12.4254684 490.078409,13.5051975 491.409003,13.5051975 L493.590997,13.5051975 C494.921453,13.5051975 496,12.4347543 496,11.0935551 Z M529,20.7401247 C529,19.4082114 527.921591,18.3284823 526.590997,18.3284823 L524.409003,18.3284823 C523.078547,18.3284823 522,19.3989256 522,20.7401247 C522,22.0720381 523.078409,23.1517672 524.409003,23.1517672 L526.590997,23.1517672 C527.921453,23.1517672 529,22.0813239 529,20.7401247 Z M515,11.0935551 C515,9.76164177 513.92469,8.68191268 512.593314,8.68191268 L503.406686,8.68191268 C502.07751,8.68191268 501,9.75235591 501,11.0935551 C501,12.4254684 502.07531,13.5051975 503.406686,13.5051975 L512.593314,13.5051975 C513.92249,13.5051975 515,12.4347543 515,11.0935551 Z M494,20.7401247 C494,19.4082114 492.925781,18.3284823 491.580179,18.3284823 L471.419821,18.3284823 C470.083391,18.3284823 469,19.3989256 469,20.7401247 C469,22.0720381 470.074219,23.1517672 471.419821,23.1517672 L491.580179,23.1517672 C492.916609,23.1517672 494,22.0813239 494,20.7401247 Z M479,30.3866944 C479,29.0547811 477.925245,27.975052 476.586003,27.975052 L470.413997,27.975052 C469.080783,27.975052 468,29.0454952 468,30.3866944 C468,31.7186077 469.074755,32.7983368 470.413997,32.7983368 L476.586003,32.7983368 C477.919217,32.7983368 479,31.7278936 479,30.3866944 Z M517,30.3866944 C517,29.0547811 515.920793,27.975052 514.586801,27.975052 L486.413199,27.975052 C485.080426,27.975052 484,29.0454952 484,30.3866944 C484,31.7186077 485.079207,32.7983368 486.413199,32.7983368 L514.586801,32.7983368 C515.919574,32.7983368 517,31.7278936 517,30.3866944 Z M517,20.7401247 C517,19.4082114 515.927923,18.3284823 514.591117,18.3284823 L501.408883,18.3284823 C500.078494,18.3284823 499,19.3989256 499,20.7401247 C499,22.0720381 500.072077,23.1517672 501.408883,23.1517672 L514.591117,23.1517672 C515.921506,23.1517672 517,22.0813239 517,20.7401247 Z" id="Combined-Shape"></path>
                            </g>
                        </g>
                    </g>
                </g>
            </g>
        </g>
    </g>
</svg>