<?xml version="1.0" encoding="UTF-8"?>
<svg width="200px" height="37px" viewBox="0 0 200 37" version="1.1" xmlns="http://www.w3.org/2000/svg" xmlns:xlink="http://www.w3.org/1999/xlink">
    <!-- Generator: sketchtool 41.2 (35397) - http://www.bohemiancoding.com/sketch -->
    <title>E4C68665-8186-4322-9CF4-6176EF9B494E</title>
    <desc>Created with sketchtool.</desc>
    <defs>
        <polygon id="path-1" points="15.9735104 20.8148325 15.9735104 0.219100782 0.0951472536 0.219100782 0.0951472536 20.8148325 15.9735104 20.8148325"></polygon>
    </defs>
    <g id="Page-1" stroke="none" stroke-width="1" fill="none" fill-rule="evenodd">
        <g id="Main-Page" transform="translate(-989.000000, -50.000000)">
            <g id="Group-20" transform="translate(250.000000, 31.000000)">
                <g id="Page-1" transform="translate(739.013388, 19.924508)">
                    <path d="M3.97051566,18.1240051 L8.88559173,18.1240051 C10.2083073,18.1240051 11.1873635,17.1647129 11.1873635,15.8100194 L11.1873635,14.2681154 C11.1873635,12.9221368 10.2027906,11.9563891 8.88559173,11.9563891 L3.97051566,11.9563891 L3.97051566,18.1240051 Z M3.97051566,9.47359117 L8.47962579,9.47359117 C9.80363941,9.47359117 10.7820465,8.51784955 10.7820465,7.17219374 L10.7820465,5.99018569 C10.7820465,4.72070517 9.79909623,3.66716222 8.47962579,3.66716222 L3.97051566,3.66716222 L3.97051566,9.47359117 Z M10.0324212,0.675668338 C12.7816965,0.675668338 14.5489951,2.63072644 14.5489951,5.27975431 L14.5489951,6.3023107 C14.5489951,8.30610807 13.5858401,9.7992728 11.966195,10.5264886 C13.8847167,11.1094232 15.0510169,12.7381541 15.0510169,15.0718292 L15.0510169,16.4639648 C15.0510169,19.2330656 13.2918312,21.2714001 10.534443,21.2714001 L9.73539431e-05,21.2714001 L9.73539431e-05,0.675668338 L10.0324212,0.675668338 Z" id="Fill-1" fill="#000000"></path>
                    <path d="M36.1212659,14.6737165 C36.1212659,19.2474615 32.5603832,21.5062524 28.6276084,21.5062524 L27.6900899,21.5062524 C23.5158774,21.5062524 20.2392682,19.1725773 20.2392682,14.6737165 L20.2392682,0.675862003 L24.2103355,0.675862003 L24.2103355,14.6737165 C24.2103355,17.084858 25.9214933,18.3756418 27.8714928,18.3756418 L28.5098101,18.3756418 C30.4013972,18.3756418 32.1495496,17.0748519 32.1495496,14.6737165 L32.1495496,0.675862003 L36.1212659,0.675862003 L36.1212659,14.6737165 Z" id="Fill-3" fill="#000000"></path>
                    <path d="M46.1222093,18.1132889 L49.7512398,18.1132889 C51.793401,18.1132889 53.4756771,16.6575663 53.4756771,14.2745063 L53.4756771,7.67243298 C53.4756771,5.38426939 51.793401,3.82267601 49.7512398,3.82267601 L46.1222093,3.82267601 L46.1222093,18.1132889 Z M49.955034,0.66043328 C54.0477938,0.66043328 57.4561554,3.40403471 57.4561554,7.77668983 L57.4561554,14.1744456 C57.4561554,18.6381237 54.0477938,21.2752089 49.955034,21.2752089 L42.12583,21.2752089 L42.12583,0.66043328 L49.955034,0.66043328 Z" id="Fill-5" fill="#000000"></path>
                    <path d="M66.9514424,18.1132889 L70.5775522,18.1132889 C72.621985,18.1132889 74.3026386,16.6575663 74.3026386,14.2745063 L74.3026386,7.67243298 C74.3026386,5.38426939 72.621985,3.82267601 70.5775522,3.82267601 L66.9514424,3.82267601 L66.9514424,18.1132889 Z M70.7829691,0.66043328 C74.8757288,0.66043328 78.2866865,3.40403471 78.2866865,7.77668983 L78.2866865,14.1744456 C78.2866865,18.6381237 74.8757288,21.2752089 70.7829691,21.2752089 L62.9570101,21.2752089 L62.9570101,0.66043328 L70.7829691,0.66043328 Z" id="Fill-7" fill="#000000"></path>
                    <polygon id="Fill-9" fill="#000000" points="95.4976629 21.2714001 95.4976629 12.5151154 87.6090729 12.5151154 87.6090729 21.2714001 83.6354095 21.2714001 83.6354095 0.671472241 87.6090729 0.671472241 87.6090729 9.37482152 95.4976629 9.37482152 95.4976629 0.671472241 99.4830088 0.671472241 99.4830088 21.2714001"></polygon>
                    <path d="M116.103274,13.240104 L113.352376,3.93703577 L110.604399,13.240104 L116.103274,13.240104 Z M118.159065,21.2714324 L116.677987,16.3836257 L110.029686,16.3836257 L108.560939,21.2714324 L104.394191,21.2714324 L110.873745,0.671504519 L115.84626,0.671504519 L122.325813,21.2714324 L118.159065,21.2714324 Z" id="Fill-11" fill="#000000"></path>
                    <path d="M126.173663,6.21167502 C126.173663,1.87129756 129.083248,0.443979266 132.686317,0.435587074 C135.156836,0.422676008 136.87416,0.543071694 138.605113,1.31095732 L138.29001,4.56422306 C136.778104,3.83377952 135.176307,3.65237905 133.047176,3.65237905 C131.994131,3.65237905 130.253118,3.97902901 130.253118,5.69975127 L130.253118,6.07449495 C130.253118,6.91920141 130.817771,7.60445622 131.523911,7.95337776 L136.035293,9.9742823 C138.67034,11.0439641 139.737988,12.2398515 139.737988,14.9944274 L139.737988,15.4753645 C139.708457,19.6407971 137.12371,21.5061233 132.94106,21.5061233 C129.719294,21.5061233 127.907212,21.1691445 126.358311,20.5829821 L126.639989,17.3513424 C128.784371,18.0775898 130.323213,18.3571144 133.219168,18.3383933 C134.629178,18.33452 135.724085,17.268066 135.724085,15.8539815 L135.724085,15.3430261 C135.724085,14.3682407 135.151644,13.6255316 134.29428,13.2017259 L129.620966,11.1643598 C127.213403,10.1714988 126.185995,9.15798018 126.173663,6.62386079 L126.173663,6.21167502 Z" id="Fill-13" fill="#000000"></path>
                    <polygon id="Fill-15" fill="#000000" points="171.548778 3.8225469 171.548778 9.4030322 179.162506 9.4030322 179.162506 12.5468767 171.548778 12.5468767 171.548778 21.2715292 167.553372 21.2715292 167.553372 0.671278575 180.276884 0.671278575 180.276884 3.8225469"></polygon>
                    <g id="Group-19" transform="translate(183.998952, 0.456729)">
                        <mask id="mask-2" fill="white">
                            <use xlink:href="#path-1"></use>
                        </mask>
                        <g id="Clip-18"></g>
                        <polygon id="Fill-17" fill="#000000" mask="url(#mask-2)" points="10.0771715 3.33712311 10.0771715 20.8148325 6.09928943 20.8148325 6.09928943 3.33712311 0.0951472536 3.33712311 0.0951472536 0.219100782 15.9735754 0.219100782 15.9735754 3.33712311"></polygon>
                    </g>
                    <path d="M159.041068,1.63970532 L155.87382,2.08513709 L158.771722,1.47863978 C158.460514,1.29756209 158.138273,1.13165489 157.807918,0.981563758 L151.423447,1.87856004 L157.105996,0.6894509 C155.911139,0.244019139 154.618603,0 153.267655,0 C147.226843,0 142.329939,4.87005392 142.329939,10.8782183 C142.329939,14.6130668 144.222825,17.9063568 147.104501,19.8662566 L151.146962,19.0302651 L147.847636,20.3255677 C149.445539,21.2351523 151.294615,21.7570821 153.267655,21.7570821 C159.308792,21.7570821 164.205046,16.8860598 164.205046,10.8782183 C164.205046,6.97907648 162.141467,3.56022632 159.041068,1.63970532" id="Fill-20" fill="#E20818"></path>
                    <path d="M151.22929,6.10402901 L151.602481,6.96390598 C151.602481,6.96390598 152.589001,7.14207868 152.662665,7.15660363 C152.736005,7.17016025 153.608621,7.23923445 153.608621,7.23923445 L154.603578,7.14207868 L155.016034,6.10402901 L155.218855,5.14990127 C155.218855,5.14990127 154.432235,4.82002354 154.157048,4.72512721 C153.882185,4.62797144 152.173299,4.62797144 152.173299,4.62797144 L151.51973,4.71027949 L151.22929,4.91653376 L151.22929,6.10402901 Z" id="Fill-22" fill="#FFFFFF"></path>
                    <path d="M149.030205,12.4870662 C148.85972,12.3698982 148.703646,12.2394965 148.494845,12.1594479 C148.646349,12.0038695 148.804883,11.8518417 148.901199,11.6442963 C148.951466,11.919302 148.94795,12.2417559 149.030205,12.4870662" id="Fill-24" fill="#000000"></path>
                    <path d="M148.307731,11.0601029 C148.185714,10.9403528 148.23861,10.7292569 148.212973,10.5927223 C148.09842,10.0349643 147.724581,9.66151173 147.390008,9.33066568 L147.31894,9.33066568 C146.874357,9.61825966 146.266219,9.94846017 146.120513,10.5452742 C145.967018,11.1711381 146.28861,11.7805404 146.684841,12.1594801 C147.057706,11.9422515 147.750218,11.8883478 148.237312,12.0429578 C148.651066,11.8018436 148.831495,11.3238114 148.917167,10.7563701 C148.589409,10.6937514 148.543977,10.9723077 148.307731,11.0601029" id="Fill-26" fill="#000000"></path>
                    <path d="M149.976248,8.72187666 C150.027196,8.66248576 150.103133,8.57694995 150.093722,8.51142629 C149.632264,8.46365535 149.304181,8.28225488 148.96474,8.11376547 C149.166263,8.97816131 148.449738,9.30933014 147.977247,9.65631503 C148.222903,9.90453027 148.337781,10.2808878 148.447791,10.6627326 C148.567212,10.5633174 148.757701,10.5339447 148.989079,10.5452419 C149.150362,9.80640617 149.561196,9.1869978 149.976248,8.72187666" id="Fill-28" fill="#000000"></path>
                    <path d="M149.034705,7.87946191 C149.422174,8.12251272 150.055948,8.46788372 150.492419,8.23128845 C151.026567,7.94240336 150.667656,7.19549822 150.587176,6.71004215 C150.533632,6.3888794 150.500531,6.07223551 150.492419,5.68167578 C150.327566,5.83660857 150.159144,6.0999943 149.834955,6.10322207 C149.531535,6.10548151 149.296912,5.902455 149.34137,5.47154819 C149.418605,5.3595447 149.642843,5.10616503 149.787576,5.28433774 C149.761615,5.51350915 149.585729,5.39505013 149.551979,5.58839333 C149.538025,5.67877079 149.587027,5.80271702 149.646088,5.84532354 C149.958594,6.06577998 150.453152,5.5667673 150.328864,5.09680451 C150.098135,4.5719697 149.446837,4.44092238 148.799433,4.44285904 C147.723348,4.44608681 147.004876,5.0403186 146.449958,5.5183508 C146.649209,5.55385623 146.803029,5.63487317 146.945814,5.72847839 C147.122674,5.84241855 147.271626,5.99702856 147.388126,6.17261905 C147.80188,6.79170464 148.401256,7.48244665 149.034705,7.87946191" id="Fill-30" fill="#000000"></path>
                    <path d="M154.419287,11.4115744 C152.853187,10.7473001 151.570062,9.80059619 150.986912,8.15992253 L150.964845,8.15992253 C150.055883,8.71961722 149.199493,9.79414065 149.104735,11.2004785 C149.036588,12.2362687 149.303986,13.1765171 149.83489,13.842728 C151.611924,13.2788372 153.222158,12.5500076 154.419287,11.4115744" id="Fill-32" fill="#000000"></path>
                    <path d="M156.041853,8.53447254 C155.633291,8.5806296 155.388608,8.34274322 155.218888,8.23138528 C155.33701,8.86886914 155.48077,9.48182198 155.854284,9.86754006 C155.947095,9.45470874 156.206706,9.2052024 156.229421,8.72200577 C156.194374,8.63259664 156.085013,8.61613503 156.041853,8.53447254" id="Fill-34" fill="#000000"></path>
                    <path d="M156.206641,8.32360257 C157.081204,8.22773791 157.98984,7.41982798 158.464279,6.85044999 C158.87998,6.34853232 159.174962,5.6910363 159.849625,5.54094517 C159.338192,4.92508734 158.534373,4.44221349 157.547204,4.44221349 C156.905317,4.44221349 156.229357,4.62135452 156.089491,5.05032468 C155.977859,5.38472127 156.105393,5.82305195 156.441913,5.86856345 C156.567175,5.88567062 156.707364,5.88663895 156.771294,5.77463545 C156.927709,5.49285145 156.618772,5.49575644 156.559711,5.28401496 C156.829381,5.1093928 157.021169,5.4008601 157.028957,5.58839333 C157.039341,5.82724804 156.847879,6.09934875 156.534074,6.10322207 C156.07716,6.10709539 155.935997,5.70523847 155.736097,5.4008601 C155.626087,6.03382509 155.206491,6.69874497 155.218823,7.43596681 C155.22726,8.02083808 155.542362,8.39751842 156.206641,8.32360257" id="Fill-36" fill="#000000"></path>
                    <path d="M153.549365,16.2746563 C153.553259,16.4893028 153.887832,16.8340283 153.854732,17.233303 C153.821307,17.6232171 153.528596,17.9605187 153.549365,18.2623149 C153.561696,18.4530759 153.800213,18.5311878 153.831691,18.6360902 C153.774577,18.8252373 153.784637,19.0476304 153.902111,19.1744817 C153.985186,19.2012721 154.095845,19.2003038 154.184437,19.2219298 C154.244796,18.4540442 154.42263,17.8046176 154.911995,17.4676388 C154.654008,17.069978 154.472929,16.594528 154.467088,15.947038 C154.134462,15.7281955 153.543524,15.834389 153.549365,16.2746563" id="Fill-38" fill="#000000"></path>
                    <path d="M159.239119,12.159577 C158.058215,11.9633288 157.05547,13.0204223 157.264781,14.1004329 C157.336174,14.4748538 157.863832,14.9503038 158.252599,14.5910534 C158.497282,14.3634959 158.33178,13.8996658 157.898879,14.0300676 C157.882654,13.9768094 157.87876,13.910963 157.8515,13.8667426 C158.245135,13.7111643 158.567701,13.9580884 158.556992,14.334446 C158.53817,15.0100175 157.78822,15.0209919 157.353048,14.689823 C157.19209,14.5658768 157.000302,14.3518759 157.012634,13.8625465 C156.927611,13.9855244 156.60894,14.4306334 156.317527,14.7204868 C156.105295,14.9306144 155.973543,15.231765 155.946933,15.5965026 C155.899229,16.2682008 156.247107,16.9899294 156.863682,17.0706235 C157.521795,17.1555138 158.20814,16.8608187 158.486248,16.6965254 C158.861385,16.4741323 159.389368,16.2272082 159.944286,15.4447976 C160.46156,14.8370092 160.626088,14.1356156 160.6011,13.6556467 C160.588769,13.399362 160.414505,12.3545341 159.239119,12.159577" id="Fill-40" fill="#000000"></path>
                    <path d="M148.799563,8.30107276 C148.750562,7.92891129 148.298839,7.58999582 147.929868,7.55223096 C147.539803,7.51252943 147.18219,7.66197501 146.875525,7.87500759 C146.551336,8.09901458 144.944023,9.15513974 144.944672,10.8736026 C144.944672,11.3490526 145.190328,11.8793746 145.508675,12.1363048 C145.732265,12.3157686 146.105455,12.4513348 146.450088,12.3231925 C146.229744,11.951031 145.803009,11.3693875 145.884137,10.6625066 C145.919834,10.3661977 146.097018,9.86492557 146.849239,9.3533246 C147.024476,9.25616883 147.16856,9.12705818 147.389878,9.07250892 C147.579394,9.17160135 147.699139,9.34170464 147.860098,9.46984697 C148.214142,9.1612725 148.890751,8.98245424 148.799563,8.30107276" id="Fill-42" fill="#000000"></path>
                    <path d="M157.545906,12.4870662 C157.717573,12.3698982 157.872037,12.2394965 158.081266,12.1594479 C157.929259,12.0038695 157.771284,11.8518417 157.675446,11.6442963 C157.624543,11.919302 157.628756,12.2417559 157.545906,12.4870662" id="Fill-44" fill="#000000"></path>
                    <path d="M157.618468,10.756241 C157.704788,11.3240051 157.884568,11.8017145 158.298323,12.0428287 C158.785417,11.8882187 159.477603,11.9424451 159.850793,12.1596738 C160.247024,11.7804113 160.568617,11.171009 160.415122,10.5454678 C160.269415,9.94833105 159.661278,9.61813055 159.215721,9.33085935 L159.145626,9.33085935 C158.812351,9.6617054 158.43689,10.0348352 158.323959,10.5925932 C158.297024,10.7291277 158.34992,10.9395781 158.228552,11.0599738 C157.991658,10.9721786 157.946226,10.6939451 157.618468,10.756241" id="Fill-46" fill="#000000"></path>
                    <path d="M157.545906,10.545371 C157.777933,10.5340738 157.968422,10.5634465 158.088492,10.6625389 C158.197204,10.2810169 158.312731,9.90465938 158.559036,9.65644414 C158.086545,9.30913648 157.369371,8.97829042 157.570894,8.11389458 C157.230155,8.28238399 156.902721,8.46378446 156.441913,8.5115554 C156.433151,8.57675628 156.508113,8.66261487 156.559711,8.72200577 C156.975088,9.18712691 157.385272,9.8062125 157.545906,10.545371" id="Fill-48" fill="#000000"></path>
                    <path d="M158.675666,9.46987924 C158.8363,9.34173692 158.956046,9.17163363 159.145561,9.0725412 C159.365906,9.12709045 159.510963,9.25587833 159.6862,9.35271132 C160.438746,9.86495785 160.615606,10.3659072 160.650978,10.6625389 C160.733404,11.3694198 160.306994,11.9507405 160.086325,12.3232247 C160.430634,12.4513671 160.804148,12.3154781 161.026764,12.1360143 C161.345761,11.8794069 161.591093,11.3484393 161.591093,10.8736348 C161.591093,9.15517202 159.984752,8.09872408 159.659915,7.87503987 C159.353574,7.66200729 158.995636,7.51256171 158.605572,7.55226323 C158.237574,7.5900281 157.785202,7.92894357 157.735876,8.30110504 C157.644688,8.98248652 158.321947,9.16130478 158.675666,9.46987924" id="Fill-50" fill="#000000"></path>
                    <path d="M153.055001,16.2043556 C153.000808,15.7999165 152.379041,15.7537594 152.139874,15.9713109 C152.154477,16.6252563 151.960094,17.0719792 151.714762,17.4677033 C152.164213,17.8250171 152.411816,18.3808385 152.397538,19.1981089 C152.509819,19.1842295 152.642221,19.2371649 152.727568,19.1745462 C152.86289,19.0744855 152.731462,18.8892117 152.797987,18.6361548 C152.84569,18.4470077 153.018007,18.4779942 153.055001,18.3333903 C153.158197,17.94509 152.751582,17.5822891 152.749959,17.1397623 C152.747363,16.6875522 153.100758,16.5358472 153.055001,16.2043556" id="Fill-52" fill="#000000"></path>
                    <path d="M150.564428,15.1058499 C150.480055,14.9099244 150.28632,14.7485361 150.140614,14.5910211 C149.983225,14.4222089 149.908262,14.2624345 149.599326,14.1940058 C149.465626,14.3247304 149.472117,14.487087 149.341338,14.6381465 C149.088867,14.9270316 148.543685,15.0387123 148.237344,14.7549916 C147.977085,14.5161369 148.018298,13.9548284 148.32983,13.8428249 C148.414528,13.8128066 148.803944,13.7492196 148.777334,13.9603156 C148.747803,14.1688293 148.460285,13.9167407 148.32983,14.1004006 C148.173091,14.43512 148.408363,14.6868858 148.659536,14.7078663 C149.29688,14.7633838 149.486071,14.0019537 149.341338,13.4926122 C149.144034,12.8005791 148.517724,12.0865972 147.460135,12.1595447 C146.862058,12.2005373 146.418124,12.5113712 146.237045,12.8370529 C145.526361,14.1191217 146.431104,15.5419211 147.176835,16.1116219 C147.478308,16.3407933 147.796006,16.5328454 148.281803,16.7426502 C148.645257,16.8991969 149.172591,17.1290138 149.717449,17.0705913 C150.434298,16.9931249 150.910683,15.9150509 150.564428,15.1058499" id="Fill-54" fill="#000000"></path>
                    <path d="M152.138511,5.7458115 C152.068417,5.81036683 152.028826,5.90590871 152.041807,6.00629225 C152.061602,6.17607276 152.215746,6.29775955 152.387088,6.27839295 C152.540583,6.26128579 152.654487,6.13508012 152.6626,5.9875712 L152.138511,5.7458115 Z" id="Fill-56" fill="#000000"></path>
                    <path d="M153.608621,5.98773259 C153.616734,6.13491874 153.730313,6.2611244 153.882834,6.27823156 C154.054502,6.29888927 154.209619,6.17623415 154.228441,6.00645363 C154.240772,5.90574732 154.201506,5.81020544 154.132385,5.74597289 L153.608621,5.98773259 Z" id="Fill-58" fill="#000000"></path>
                    <path d="M152.317545,5.50854062 C152.014126,5.26480047 152.010556,5.52258326 152.152044,5.59179342 C152.29418,5.65933184 152.662503,5.90273763 152.662503,5.90273763 C152.871814,6.03781448 152.619667,5.75261511 152.317545,5.50854062" id="Fill-60" fill="#000000"></path>
                    <path d="M153.556991,5.90279336 C153.556991,5.90279336 153.925962,5.65939206 154.06745,5.59152054 C154.208938,5.522646 154.20407,5.26486797 153.901948,5.50860362 C153.598853,5.7526736 153.34768,6.0378677 153.556991,5.90279336" id="Fill-62" fill="#000000"></path>
                    <path d="M151.32976,17.454179 C151.726315,17.4716089 152.128711,16.2544182 151.939195,15.8832251 C151.74968,15.5117092 150.871547,15.5213925 150.871547,15.5213925 C150.89978,16.7247038 150.176116,17.0716887 150.176116,17.0716887 C150.176116,17.0716887 150.517179,17.4160914 151.32976,17.454179" id="Fill-64" fill="#000000"></path>
                    <path d="M156.455412,17.0718178 C156.455412,17.0718178 155.731424,16.7248329 155.759981,15.5211988 C155.759981,15.5211988 154.881199,15.5115155 154.691359,15.8830314 C154.501843,16.2545474 154.904564,17.4714153 155.301119,17.4533398 C156.114349,17.4158977 156.455412,17.0718178 156.455412,17.0718178" id="Fill-66" fill="#000000"></path>
                    <path d="M155.877065,10.3349852 C155.45033,9.80046708 155.07422,9.07583352 155.007045,8.1601162 C155.006072,8.1559201 155.006072,8.15269234 155.006072,8.14817346 C154.726666,8.58682692 153.966332,9.49996203 152.339223,9.85792132 C152.811389,10.3017392 153.380585,10.6332308 154.066931,10.9663363 C154.541044,11.196476 155.559691,11.7203425 155.523995,12.346852 C155.507769,12.6325093 155.062537,13.0756816 154.794489,12.6970646 C154.937275,12.5986178 155.26698,12.6509076 155.312412,12.3697691 C155.365308,12.0457014 154.967779,11.6958115 154.653975,11.7148553 C154.481334,11.7258297 154.172073,11.9272423 154.136377,12.2057986 C154.079262,12.6802802 154.516706,13.2438483 154.959342,13.3994266 C155.695013,13.6557112 156.565357,13.2096339 156.771423,12.7674299 C157.159541,11.9240146 156.283031,10.8433584 155.877065,10.3349852" id="Fill-68" fill="#000000"></path>
                    <path d="M154.250703,6.73667122 C153.772046,6.64887598 153.317727,6.69793803 152.183554,6.73570289 C151.048407,6.77379054 151.430683,5.36971216 151.430683,5.36971216 C151.430683,5.36971216 151.452101,5.00368345 152.094637,5.00368345 C152.629435,5.00368345 153.166829,5.067916 153.710064,5.00368345 C154.253299,4.94009645 154.880583,5.16862231 154.893239,5.58209919 C154.906544,5.99557606 154.729359,6.82349814 154.250703,6.73667122 M153.166829,2.53573327 C150.48278,2.53573327 150.67327,5.28094858 150.67327,5.28094858 C150.674243,5.49591782 150.695337,5.70378598 150.705072,5.84516215 C150.757968,6.70374801 150.968577,7.48422192 151.222021,8.13687628 C151.47287,8.78630288 151.780509,9.27401838 152.154348,9.67329308 C152.618401,9.5735551 154.271471,9.12392724 154.998705,7.65948963 C155.019474,7.10108605 155.140193,6.60368725 155.289469,6.10306068 C155.32906,5.97007671 155.430632,5.72315258 155.5189,5.48042455 C156.006319,4.34973798 155.851201,2.53573327 153.166829,2.53573327" id="Fill-70" fill="#000000"></path>
                    <path d="M157.415971,11.6927451 C157.422462,11.5165091 157.419865,11.3360769 157.404938,11.1540309 C157.329975,10.2318581 156.952242,9.57177983 156.441783,8.955922 C156.439836,8.94107428 156.437889,8.92784043 156.41712,8.93203653 C156.316196,9.36972165 156.111753,9.7034727 155.924184,10.0549765 C156.258757,10.5694824 156.877929,11.1588726 157.030774,11.9319226 C157.162851,11.8538107 157.291683,11.7744076 157.415971,11.6927451" id="Fill-72" fill="#000000"></path>
                    <path d="M157.064816,12.2913344 C157.064816,12.362668 157.061571,12.4359383 157.052484,12.5108225 C157.002185,12.9130022 156.715964,13.2177033 156.44175,13.3752183 C155.86217,13.70671 155.124227,13.7257538 154.60241,13.4123377 C153.527622,13.8271056 152.205231,14.2618858 150.590778,14.6795587 C151.241752,15.2676578 152.137408,15.6708058 153.266714,15.6672553 C155.386758,15.6611225 157.106678,14.17635 157.381865,12.1131617 C157.281266,12.1712615 157.177422,12.2306524 157.064816,12.2913344" id="Fill-74" fill="#000000"></path>
                    <path d="M154.346726,13.2123775 C154.094579,12.9599662 153.938164,12.5968425 153.949197,12.112032 C152.786791,12.8973475 151.517296,13.5748557 149.999548,14.0064081 C150.118644,14.1794163 150.253966,14.3453235 150.40454,14.4999335 C151.082773,14.3217608 152.682947,13.8714874 154.346726,13.2123775" id="Fill-76" fill="#000000"></path>
                    <path d="M37.3945906,35.3310986 C37.5711257,35.3633762 37.8281401,35.3711229 38.1013802,35.3711229 C39.5951142,35.3711229 40.4063971,34.5402958 40.4063971,33.0865098 C40.4145099,31.816061 39.6918191,31.0091194 38.2136618,31.0091194 C37.8524786,31.0091194 37.5792386,31.0413971 37.3945906,31.0810986 L37.3945906,35.3310986 Z M36.6959138,30.5698204 C37.121675,30.5062334 37.627591,30.4581397 38.181535,30.4581397 C39.1855786,30.4581397 39.9004811,30.6898933 40.3742703,31.1288695 C40.8561723,31.5684913 41.1372007,32.1914502 41.1372007,33.0626244 C41.1372007,33.9408996 40.8642851,34.6600459 40.3583691,35.1555081 C39.8521286,35.6587169 39.0171563,35.930172 37.9647602,35.930172 C37.466957,35.930172 37.0493086,35.9062865 36.6959138,35.8662622 L36.6959138,30.5698204 Z" id="Fill-78" fill="#E20818"></path>
                    <polygon id="Fill-80" fill="#E20818" points="48.2551693 33.3578682 46.1510261 33.3578682 46.1510261 35.2993696 48.4962826 35.2993696 48.4962826 35.8823042 45.4520248 35.8823042 45.4520248 30.4980671 48.3758882 30.4980671 48.3758882 31.0810017 46.1510261 31.0810017 46.1510261 32.783003 48.2551693 32.783003"></polygon>
                    <polygon id="Fill-82" fill="#E20818" points="53.5093292 31.0892971 51.8627495 31.0892971 51.8627495 30.4979703 55.8704868 30.4979703 55.8704868 31.0892971 54.2161188 31.0892971 54.2161188 35.8825302 53.5093292 35.8825302"></polygon>
                    <path d="M62.5304051,33.6456558 L62.0004752,32.0956824 C61.8797563,31.7441786 61.7996015,31.4246298 61.7191223,31.1131503 L61.7032211,31.1131503 C61.6227419,31.4330219 61.5344743,31.7603175 61.429981,32.0879357 L60.9000511,33.6456558 L62.5304051,33.6456558 Z M60.7553182,34.1888889 L60.1932615,35.8824979 L59.4702462,35.8824979 L61.3095867,30.497938 L62.1529963,30.497938 L64.0001251,35.8824979 L63.2534204,35.8824979 L62.6748135,34.1888889 L60.7553182,34.1888889 Z" id="Fill-84" fill="#E20818"></path>
                    <polygon id="Fill-86" fill="#E20818" points="68.2026028 35.8824334 68.9012796 35.8824334 68.9012796 30.4978735 68.2026028 30.4978735"></polygon>
                    <polygon id="Fill-88" fill="#E20818" points="73.5285125 30.4979703 74.2271893 30.4979703 74.2271893 35.2992728 76.540319 35.2992728 76.540319 35.8825302 73.5285125 35.8825302"></polygon>
                    <path d="M80.629931,35.035758 C80.9430862,35.2274873 81.4009742,35.3872617 81.8828762,35.3872617 C82.5974542,35.3872617 83.0154271,35.0118725 83.0154271,34.4683166 C83.0154271,33.9654306 82.7259614,33.6775139 81.9954823,33.3979893 C81.111833,33.0865098 80.5656774,32.631072 80.5656774,31.8719013 C80.5656774,31.0333276 81.2643542,30.4103687 82.3164258,30.4103687 C82.8706942,30.4103687 83.2724415,30.5378655 83.5132303,30.6737545 L83.3204694,31.240873 C83.1439343,31.1450084 82.7824267,30.9852339 82.2924118,30.9852339 C81.5534954,30.9852339 81.272467,31.4245329 81.272467,31.7921755 C81.272467,32.2957071 81.6018478,32.542954 82.3485526,32.8308707 C83.2643287,33.1823745 83.730005,33.6216735 83.730005,34.4124763 C83.730005,35.2433033 83.111483,35.9621269 81.8345238,35.9621269 C81.3127066,35.9621269 80.742537,35.8104219 80.4533958,35.6190153 L80.629931,35.035758 Z" id="Fill-89" fill="#E20818"></path>
                    <path d="M97.763868,33.5177071 C97.7236283,32.7669287 97.6756004,31.8641224 97.6833887,31.1930698 L97.6593747,31.1930698 C97.4747268,31.8240981 97.2498392,32.4951508 96.9765991,33.2381826 L96.0209079,35.8507367 L95.4909779,35.8507367 L94.6154415,33.2859535 C94.358427,32.5274284 94.1416523,31.8321675 93.9891311,31.1930698 L93.9729054,31.1930698 C93.9570043,31.8641224 93.9167647,32.7669287 93.8684122,33.5738703 L93.7240039,35.8823688 L93.0574539,35.8823688 L93.4348626,30.4981317 L94.3263002,30.4981317 L95.2498647,33.1022936 C95.4747523,33.7655996 95.6597248,34.3566036 95.7960203,34.9156528 L95.8200342,34.9156528 C95.9566543,34.3724197 96.1494151,33.7814157 96.3905284,33.1022936 L97.3543324,30.4981317 L98.24577,30.4981317 L98.5829391,35.8823688 L97.9001635,35.8823688 L97.763868,33.5177071 Z" id="Fill-90" fill="#E20818"></path>
                    <path d="M105.717263,33.6456558 L105.187009,32.0956824 C105.066614,31.7441786 104.986135,31.4246298 104.90598,31.1131503 L104.889755,31.1131503 C104.8096,31.4330219 104.721332,31.7603175 104.616515,32.0879357 L104.086909,33.6456558 L105.717263,33.6456558 Z M103.942176,34.1888889 L103.38012,35.8824979 L102.657104,35.8824979 L104.49612,30.497938 L105.33953,30.497938 L107.186659,35.8824979 L106.439954,35.8824979 L105.861672,34.1888889 L103.942176,34.1888889 Z" id="Fill-91" fill="#E20818"></path>
                    <polygon id="Fill-92" fill="#E20818" points="112.088073 31.0892971 110.441818 31.0892971 110.441818 30.4979703 114.44923 30.4979703 114.44923 31.0892971 112.794862 31.0892971 112.794862 35.8825302 112.088073 35.8825302"></polygon>
                    <polygon id="Fill-93" fill="#E20818" points="119.157332 31.0892971 117.511077 31.0892971 117.511077 30.4979703 121.51849 30.4979703 121.51849 31.0892971 119.864122 31.0892971 119.864122 35.8825302 119.157332 35.8825302"></polygon>
                    <polygon id="Fill-94" fill="#E20818" points="128.331156 33.3578682 126.227013 33.3578682 126.227013 35.2993696 128.571945 35.2993696 128.571945 35.8823042 125.528012 35.8823042 125.528012 30.4980671 128.451551 30.4980671 128.451551 31.0810017 126.227013 31.0810017 126.227013 32.783003 128.331156 32.783003"></polygon>
                    <path d="M133.585154,33.0225032 L134.300056,33.0225032 C135.047086,33.0225032 135.520875,32.6148363 135.520875,31.9999468 C135.520875,31.3050087 135.014634,31.0012759 134.276042,30.9935293 C133.938549,30.9935293 133.69776,31.0254842 133.585154,31.0571163 L133.585154,33.0225032 Z M132.886477,30.5697236 C133.239872,30.4980671 133.745788,30.4583656 134.22769,30.4583656 C134.974719,30.4583656 135.456621,30.5939318 135.794115,30.8976646 C136.066706,31.1371649 136.219552,31.5048075 136.219552,31.920221 C136.219552,32.6309752 135.769776,33.1022291 135.199607,33.2942812 L135.199607,33.3181666 C135.617255,33.4618022 135.866157,33.8452609 135.994664,34.40431 C136.171524,35.1554113 136.299706,35.6747589 136.412312,35.8823042 L135.689297,35.8823042 C135.60103,35.7305992 135.480635,35.2674147 135.328114,34.5963621 C135.16748,33.8533303 134.878014,33.5738057 134.243591,33.5499203 L133.585154,33.5499203 L133.585154,35.8823042 L132.886477,35.8823042 L132.886477,30.5697236 Z" id="Fill-95" fill="#E20818"></path>
                </g>
            </g>
        </g>
    </g>
</svg>