<?xml version="1.0" encoding="UTF-8"?>
<svg width="82px" height="82px" viewBox="0 0 82 82" version="1.1" xmlns="http://www.w3.org/2000/svg" xmlns:xlink="http://www.w3.org/1999/xlink">
    <!-- Generator: Sketch 41.2 (35397) - http://www.bohemiancoding.com/sketch -->
    <title>Group 25@2x</title>
    <desc>Created with Sketch.</desc>
    <defs></defs>
    <g id="Page-1" stroke="none" stroke-width="1" fill="none" fill-rule="evenodd">
        <g id="Main-Page" transform="translate(-999.000000, -703.000000)" stroke="#F28422" stroke-width="0.5" fill="#F28422">
            <g id="Group-25" transform="translate(1000.000000, 704.000000)">
                <path d="M57.9895533,57.9901031 C55.8581443,57.9901031 54.1237113,59.7245361 54.1237113,61.8562199 C54.1237113,63.9879038 55.8581443,65.7223368 57.9895533,65.7223368 C60.1209622,65.7223368 61.8556701,63.987354 61.8556701,61.855945 C61.8556701,59.7245361 60.1212371,57.9901031 57.9895533,57.9901031 Z M57.9895533,63.1447423 C57.2783505,63.1447423 56.7010309,62.5674227 56.7010309,61.855945 C56.7010309,61.1444674 57.2783505,60.5671478 57.9895533,60.5671478 C58.700756,60.5671478 59.2783505,61.1444674 59.2783505,61.855945 C59.2783505,62.5674227 58.7010309,63.1447423 57.9895533,63.1447423 Z" id="Shape"></path>
                <g id="Group-24">
                    <path d="M68.2988316,52.8354639 C66.1674227,52.8354639 64.4329897,54.5698969 64.4329897,56.7015808 C64.4329897,58.8332646 66.1674227,60.5676976 68.2988316,60.5676976 C70.4302405,60.5676976 72.1646735,58.8332646 72.1646735,56.7015808 C72.1646735,54.5698969 70.4302405,52.8354639 68.2988316,52.8354639 Z M68.2988316,57.9901031 C67.5876289,57.9901031 67.0103093,57.4127835 67.0103093,56.7013058 C67.0103093,55.9898282 67.5876289,55.4125086 68.2988316,55.4125086 C69.0100344,55.4125086 69.5876289,55.9898282 69.5876289,56.7013058 C69.5876289,57.4127835 69.0103093,57.9901031 68.2988316,57.9901031 Z" id="Shape"></path>
                    <path d="M60.27189,32.6125086 C59.7602749,31.2555326 59.1598625,29.9436426 58.4305155,28.7271478 L55.1134021,23.2 C54.4665292,22.121512 54.1237113,20.8854983 54.1237113,19.6266667 C54.1237113,18.7400687 54.291134,17.8727148 54.6210309,17.0468729 L56.0206186,13.5480412 C56.4717526,12.419244 56.7010309,11.2285911 56.7010309,10.0131959 L56.7010309,7.73223368 C56.7010309,3.46804124 53.2332646,0.000274914089 48.9690722,0.000274914089 C44.7048797,0.000274914089 41.2371134,3.46804124 41.2371134,7.73223368 L41.2371134,10.0131959 C41.2371134,11.2283162 41.4663918,12.419244 41.9175258,13.5491409 L43.3171134,17.0479725 C43.6470103,17.8727148 43.814433,18.7400687 43.814433,19.6266667 C43.814433,20.8857732 43.4716151,22.121512 42.8247423,23.1989003 L41.2808247,25.7737457 L41.2371134,25.7737457 L41.2371134,25.8457732 L39.5076289,28.7271478 C38.7035052,30.067354 38.0514089,31.4925086 37.5230241,32.9720962 L37.07189,32.220756 C36.4250172,31.142268 36.0821993,29.9062543 36.0821993,28.6474227 C36.0821993,27.7608247 36.249622,26.8934708 36.5795189,26.0676289 L37.9791065,22.5687973 C38.4302405,21.44 38.6595189,20.2493471 38.6595189,19.0339519 L38.6595189,16.7529897 C38.6595189,12.4887973 35.1917526,9.02103093 30.9275601,9.02103093 C26.6633677,9.02103093 23.1958763,12.4887973 23.1958763,16.7529897 L23.1958763,19.0339519 C23.1958763,20.2490722 23.4251546,21.44 23.8762887,22.5701718 L25.2758763,26.0690034 C25.6057732,26.8937457 25.7731959,27.7610997 25.7731959,28.6476976 C25.7731959,29.9068041 25.430378,31.142543 24.7835052,32.2199313 L24.3323711,32.9712715 C23.8039863,31.4919588 23.15189,30.0665292 22.3477663,28.726323 L19.0309278,23.1986254 C18.384055,22.1212371 18.0412371,20.8854983 18.0412371,19.6263918 C18.0412371,18.7397938 18.2086598,17.8724399 18.5385567,17.0465979 L19.9381443,13.5477663 C20.3892784,12.4189691 20.6185567,11.2283162 20.6185567,10.0131959 L20.6185567,7.73223368 C20.6185567,3.46804124 17.1507904,0.000274914089 12.8865979,0.000274914089 C8.6224055,0.000274914089 5.15463918,3.46804124 5.15463918,7.73223368 L5.15463918,10.0131959 C5.15463918,11.2283162 5.38391753,12.419244 5.83505155,13.5491409 L7.23463918,17.0479725 C7.56453608,17.8727148 7.73195876,18.7400687 7.73195876,19.6266667 C7.73195876,20.8857732 7.38914089,22.121512 6.74226804,23.1989003 L5.19862543,25.7734708 L5.15463918,25.7734708 L5.15463918,25.8454983 L3.42515464,28.7268729 C1.1843299,32.4629553 -1.13686838e-13,36.7400687 -1.13686838e-13,41.0955326 C-1.13686838e-13,43.907354 0.487147766,46.6702405 1.44714777,49.3107904 L5.54116838,60.5671478 L20.2317526,60.5671478 L20.2666667,60.4717526 L23.5824055,69.5876289 L36.4508591,69.5876289 C40.7576632,75.80811 47.9340206,79.8969072 56.0566323,79.8969072 C69.2021993,79.8969072 79.8969072,69.2021993 79.8969072,56.0566323 C79.8969072,44.3521649 71.411134,34.611134 60.27189,32.6125086 Z M39.615945,34.7942268 L45.1029553,34.7942268 L45.1029553,32.2169072 L40.6028866,32.2169072 C40.9380069,31.4760137 41.3000687,30.7491409 41.7176632,30.0533333 L42.7395189,28.3510653 L45.1029553,28.3510653 L45.1029553,25.7734708 L44.2859107,25.7734708 L45.0345017,24.5261856 C45.9224742,23.0468729 46.3914777,21.3523024 46.3914777,19.6266667 C46.3914777,18.4115464 46.1621993,17.2206186 45.7110653,16.0907216 L44.3114777,12.59189 C43.9815808,11.7671478 43.8141581,10.8997938 43.8141581,10.0131959 L43.8141581,7.73223368 C43.8141581,4.88934708 46.1259107,2.5775945 48.9687973,2.5775945 C51.8116838,2.5775945 54.1234364,4.88934708 54.1234364,7.73223368 L54.1234364,10.0131959 C54.1234364,10.8997938 53.9560137,11.7671478 53.6261168,12.5929897 L52.2265292,16.0918213 C51.7753952,17.2206186 51.5461168,18.4115464 51.5461168,19.6266667 C51.5461168,21.3523024 52.0151203,23.0454983 52.9030928,24.5261856 L53.6516838,25.7734708 L47.68,25.7734708 L47.68,28.3507904 L55.1980756,28.3507904 L56.2199313,30.0530584 C56.6465979,30.7631615 57.024055,31.5131271 57.3693471,32.2823368 C56.931134,32.259244 56.4995189,32.2166323 56.0560825,32.2166323 C55.8383505,32.2166323 55.6283162,32.2435739 55.4116838,32.2487973 L55.4116838,32.2166323 L47.6797251,32.2166323 L47.6797251,33.7643986 C45.0419244,34.7593127 42.6268041,36.1973883 40.5275601,38.0054983 C40.4786254,37.9205498 40.4387629,37.8314777 40.3884536,37.7476289 L39.3085911,35.9485911 C39.4045361,35.5609622 39.4999313,35.1730584 39.615945,34.7942268 Z M7.34542955,57.9901031 L3.86859107,48.4294158 C3.01168385,46.0725773 2.57731959,43.6046735 2.57731959,41.0955326 C2.57731959,38.9498282 2.91106529,36.828866 3.53594502,34.7939519 L9.0204811,34.7939519 L9.0204811,32.2166323 L4.51161512,32.2166323 C4.8467354,31.4782131 5.21512027,30.7527148 5.635189,30.0530584 L6.65704467,28.3507904 L9.0204811,28.3507904 L9.0204811,25.7734708 L8.20343643,25.7734708 L8.95202749,24.5261856 C9.84,23.0468729 10.3090034,21.3523024 10.3090034,19.6266667 C10.3090034,18.4115464 10.0797251,17.2206186 9.62859107,16.0907216 L8.22900344,12.59189 C7.89910653,11.7671478 7.73168385,10.8997938 7.73168385,10.0131959 L7.73168385,7.73223368 C7.73168385,4.88934708 10.0434364,2.5775945 12.886323,2.5775945 C15.7292096,2.5775945 18.0409622,4.88934708 18.0409622,7.73223368 L18.0409622,10.0131959 C18.0409622,10.8997938 17.8735395,11.7671478 17.5436426,12.5929897 L16.144055,16.0918213 C15.692921,17.2206186 15.4636426,18.4115464 15.4636426,19.6266667 C15.4636426,21.3523024 15.932646,23.0454983 16.8206186,24.5261856 L17.5692096,25.7734708 L11.5980756,25.7734708 L11.5980756,28.3507904 L19.1161512,28.3507904 L20.1380069,30.0530584 C20.5556014,30.748866 20.9162887,31.4757388 21.2527835,32.2166323 L11.5980756,32.2166323 L11.5980756,34.7939519 L22.2397251,34.7939519 C22.3557388,35.1727835 22.4497595,35.5606873 22.5465292,35.9485911 L21.4666667,37.7476289 C19.225567,41.4834364 18.041512,45.7605498 18.041512,50.1162887 C18.041512,52.3147766 18.3494158,54.4821993 18.9382818,56.5852921 L18.4280412,57.9898282 L7.34542955,57.9901031 L7.34542955,57.9901031 Z M25.3866667,67.0105842 L21.9098282,57.4498969 C21.052921,55.0930584 20.6185567,52.6251546 20.6185567,50.1162887 C20.6185567,47.9705842 20.9523024,45.849622 21.5771821,43.8147079 L27.0617182,43.8147079 L27.0617182,41.2373883 L22.5528522,41.2373883 C22.8879725,40.4989691 23.2563574,39.7734708 23.6764261,39.0738144 L24.6982818,37.3715464 L27.0617182,37.3715464 L27.0617182,34.7942268 L26.2446735,34.7942268 L26.9932646,33.5469416 C27.8812371,32.0676289 28.3502405,30.3730584 28.3502405,28.6474227 C28.3502405,27.4323024 28.1209622,26.2413746 27.6698282,25.1112027 L26.2702405,21.6123711 C25.9403436,20.7876289 25.772921,19.9202749 25.772921,19.033677 L25.772921,16.7527148 C25.772921,13.9098282 28.0846735,11.5980756 30.9275601,11.5980756 C33.7704467,11.5980756 36.0821993,13.9098282 36.0821993,16.7527148 L36.0821993,19.033677 C36.0821993,19.9202749 35.9147766,20.7876289 35.5848797,21.6134708 L34.1852921,25.1123024 C33.7341581,26.2410997 33.5048797,27.4317526 33.5048797,28.6471478 C33.5048797,30.3727835 33.9738832,32.0659794 34.8618557,33.5466667 L35.6093471,34.7939519 L29.6390378,34.7939519 L29.6390378,37.3712715 L37.1571134,37.3712715 L38.1775945,39.0724399 C38.3323711,39.3314089 38.4637801,39.6021993 38.6067354,39.8674914 C38.1775945,40.3287973 37.7627491,40.8016495 37.3709966,41.2964948 L37.3709966,41.2373883 L29.6390378,41.2373883 L29.6390378,43.8147079 L35.6376632,43.8147079 C33.4804124,47.398488 32.2163574,51.577457 32.2163574,56.0569072 C32.2163574,60.0065979 33.1969759,63.7270103 34.9044674,67.0105842 L25.3866667,67.0105842 L25.3866667,67.0105842 Z M56.0566323,77.3198625 C44.3323711,77.3198625 34.793677,67.7811684 34.793677,56.0569072 C34.793677,44.332646 44.3323711,34.7939519 56.0566323,34.7939519 C67.7808935,34.7939519 77.3195876,44.332646 77.3195876,56.0569072 C77.3195876,67.7811684 67.7808935,77.3198625 56.0566323,77.3198625 Z" id="Shape"></path>
                </g>
                <path d="M67.0103093,63.1447423 C64.8789003,63.1447423 63.1444674,64.8791753 63.1444674,67.0108591 C63.1444674,69.142543 64.8789003,70.8769759 67.0103093,70.8769759 C69.1417182,70.8769759 70.8761512,69.142543 70.8761512,67.0108591 C70.8761512,64.8791753 69.1417182,63.1447423 67.0103093,63.1447423 Z M67.0103093,68.2993814 C66.2991065,68.2993814 65.721512,67.7220619 65.721512,67.0105842 C65.721512,66.2991065 66.2988316,65.7217869 67.0103093,65.7217869 C67.721512,65.7217869 68.2988316,66.2991065 68.2988316,67.0105842 C68.2988316,67.7220619 67.721512,68.2993814 67.0103093,68.2993814 Z" id="Shape"></path>
            </g>
        </g>
    </g>
</svg>