<?xml version="1.0" encoding="UTF-8"?>
<svg width="40px" height="40px" viewBox="0 0 40 40" version="1.1" xmlns="http://www.w3.org/2000/svg" xmlns:xlink="http://www.w3.org/1999/xlink">
    <!-- Generator: sketchtool 41.2 (35397) - http://www.bohemiancoding.com/sketch -->
    <title>8A35E8BB-46C2-4F8A-B55C-16F70D9A14E4</title>
    <desc>Created with sketchtool.</desc>
    <defs></defs>
    <g id="Page-1" stroke="none" stroke-width="1" fill="none" fill-rule="evenodd">
        <g id="Main-Page" transform="translate(-1100.000000, -4020.000000)">
            <g id="Group-21" transform="translate(1040.000000, 4020.000000)">
                <g id="twitter" transform="translate(60.000000, 0.000000)">
                    <path d="M20,40 C31.045695,40 40,31.045695 40,20 C40,8.954305 31.045695,0 20,0 C8.954305,0 0,8.954305 0,20 C0,31.045695 8.954305,40 20,40 Z" id="Oval-32" fill="#55ACEE"></path>
                    <path d="M30,14.894449 C29.2638889,15.2154772 28.4727778,15.432595 27.6433333,15.5299426 C28.4916667,15.0300793 29.1422222,14.2392672 29.4472222,13.2964178 C28.6538889,13.7590922 27.7772222,14.0948865 26.8405556,14.2748154 C26.0944444,13.4900191 25.0266667,13 23.8461111,13 C21.5811111,13 19.7438889,14.8085863 19.7438889,17.0388296 C19.7438889,17.3560295 19.7788889,17.6633853 19.85,17.9587093 C16.4405556,17.7897183 13.4172222,16.1834837 11.3916667,13.7383101 C11.0383333,14.3366147 10.8372222,15.0300793 10.8372222,15.770577 C10.8372222,17.1706317 11.5616667,18.4071643 12.6616667,19.1323489 C11.9905556,19.1121138 11.3566667,18.9289035 10.8022222,18.6281105 L10.8022222,18.6773311 C10.8022222,20.635767 12.2172222,22.2682527 14.095,22.6379546 C13.7511111,22.7325677 13.3894444,22.7801477 13.0138889,22.7801477 C12.7494444,22.7801477 12.4922222,22.7560842 12.2422222,22.7085042 C12.7644444,24.3130982 14.2783333,25.4812688 16.075,25.5124419 C14.67,26.5963905 12.9,27.2417282 10.9788889,27.2417282 C10.6477778,27.2417282 10.3205556,27.2236806 10,27.1859448 C11.8161111,28.3311457 13.9727778,29 16.2888889,29 C23.8383333,29 27.9638889,22.8463221 27.9638889,17.5080667 C27.9638889,17.332513 27.9605556,17.1575062 27.9527778,16.9852338 C28.755,16.4153678 29.4522222,15.7038556 30,14.894449" id="Fill-5" fill="#FFFFFF"></path>
                </g>
            </g>
        </g>
    </g>
</svg>