<?xml version="1.0" encoding="UTF-8"?>
<svg width="576px" height="226px" viewBox="0 0 576 226" version="1.1" xmlns="http://www.w3.org/2000/svg" xmlns:xlink="http://www.w3.org/1999/xlink">
    <!-- Generator: Sketch 41.2 (35397) - http://www.bohemiancoding.com/sketch -->
    <title>Group 17@2x</title>
    <desc>Created with Sketch.</desc>
    <defs>
        <rect id="path-1" x="11" y="10" width="61" height="47"></rect>
        <mask id="mask-2" maskContentUnits="userSpaceOnUse" maskUnits="objectBoundingBox" x="0" y="0" width="61" height="47" fill="white">
            <use xlink:href="#path-1"></use>
        </mask>
        <rect id="path-3" x="0" y="0" width="84" height="15" rx="7.5"></rect>
        <mask id="mask-4" maskContentUnits="userSpaceOnUse" maskUnits="objectBoundingBox" x="0" y="0" width="84" height="15" fill="white">
            <use xlink:href="#path-3"></use>
        </mask>
        <rect id="path-5" x="11" y="0" width="61" height="47"></rect>
        <mask id="mask-6" maskContentUnits="userSpaceOnUse" maskUnits="objectBoundingBox" x="0" y="0" width="61" height="47" fill="white">
            <use xlink:href="#path-5"></use>
        </mask>
        <rect id="path-7" x="0" y="0" width="84" height="15" rx="7.5"></rect>
        <mask id="mask-8" maskContentUnits="userSpaceOnUse" maskUnits="objectBoundingBox" x="0" y="0" width="84" height="15" fill="white">
            <use xlink:href="#path-7"></use>
        </mask>
        <rect id="path-9" x="11" y="9" width="73" height="68"></rect>
        <mask id="mask-10" maskContentUnits="userSpaceOnUse" maskUnits="objectBoundingBox" x="0" y="0" width="73" height="68" fill="white">
            <use xlink:href="#path-9"></use>
        </mask>
        <rect id="path-11" x="0" y="0" width="94" height="15" rx="7.5"></rect>
        <mask id="mask-12" maskContentUnits="userSpaceOnUse" maskUnits="objectBoundingBox" x="0" y="0" width="94" height="15" fill="white">
            <use xlink:href="#path-11"></use>
        </mask>
        <path d="M326.504966,58.7374497 L314.309262,58.7374497 L314.309262,56.0134228 C314.309262,54.9012081 313.408054,54 312.295839,54 L274.405638,54 C273.293423,54 272.392215,54.9012081 272.392215,56.0134228 L272.392215,58.7374497 L260.196242,58.7374497 C259.084027,58.7374497 258.182819,59.6389262 258.182819,60.7508725 L258.182819,74.9642953 C258.182819,75.1285906 258.205369,79.0378523 260.171544,82.9707383 C261.911409,86.4510067 265.477315,90.5489933 272.672215,91.12 C273.932081,98.8083221 279.386846,105.098523 286.601074,107.560805 L286.601074,120.325638 L279.14094,120.325638 C278.274094,120.325638 277.50443,120.880268 277.230604,121.702819 L274.074631,131.178523 C273.870336,131.792483 273.973423,132.467383 274.351678,132.992215 C274.730201,133.517315 275.337987,133.828188 275.984966,133.828188 L310.715973,133.827651 C311.363221,133.827651 311.970738,133.51651 312.349262,132.991678 C312.727517,132.466846 312.830604,131.791946 312.62604,131.177987 L309.469799,121.702819 C309.195705,120.880268 308.426309,120.325638 307.559732,120.325638 L300.100671,120.325638 L300.100671,107.560537 C307.314899,105.098255 312.769396,98.8077852 314.029262,91.12 C321.224161,90.5489933 324.790067,86.4507383 326.529664,82.9707383 C328.49557,79.0378523 328.518121,75.1285906 328.518121,74.9642953 L328.518121,60.7508725 C328.518389,59.6389262 327.616913,58.7374497 326.504966,58.7374497 Z M263.830336,81.2832215 C262.247517,78.1938255 262.209933,74.990604 262.209664,74.9645638 L262.209664,62.7642953 L272.392483,62.7642953 L272.392483,87.0432215 C268.427383,86.5691275 265.550067,84.6402685 263.830336,81.2832215 Z M324.491544,74.9583893 C324.491275,74.9903356 324.453423,78.1938255 322.870872,81.2832215 C321.151409,84.6402685 318.274362,86.5691275 314.309262,87.0434899 L314.309262,62.7642953 L324.491544,62.7642953 L324.491544,74.9583893 L324.491544,74.9583893 Z" id="path-13"></path>
        <mask id="mask-14" maskContentUnits="userSpaceOnUse" maskUnits="objectBoundingBox" x="0" y="0" width="70.3353021" height="79.8281879" fill="white">
            <use xlink:href="#path-13"></use>
        </mask>
        <path d="M17.350604,46.6561074 C8.0147651,46.6561074 0.419328859,39.0579866 0.419328859,29.7186577 L0.419328859,0.0268456376 L34.2826846,0.0268456376 L34.2826846,29.7189262 C34.2824161,39.058255 26.6867114,46.6561074 17.350604,46.6561074 Z" id="path-15"></path>
    </defs>
    <g id="Page-1" stroke="none" stroke-width="1" fill="none" fill-rule="evenodd">
        <g id="Main-Page" transform="translate(-432.000000, -1015.000000)">
            <g id="Group-17" transform="translate(432.000000, 1015.000000)">
                <g id="Group-15" fill="#0881CA">
                    <path d="M103.9084,102.1976 C103.72,101.6184 103.2192,101.1964 102.6168,101.1084 L97.8968,100.4224 L95.7864,96.1456 C95.5168,95.5996 94.9608,95.2536 94.3516,95.2536 C93.7424,95.2536 93.1864,95.5992 92.9168,96.1452 L90.806,100.422 L86.086,101.108 C85.4832,101.1956 84.9824,101.6176 84.7944,102.1968 C84.6064,102.776 84.7632,103.412 85.1996,103.8372 L88.6148,107.1664 L87.8084,111.8672 C87.7052,112.4676 87.952,113.0744 88.4448,113.432 C88.938,113.7904 89.5912,113.8376 90.13,113.554 L94.352,111.3348 L98.5736,113.554 C98.8076,113.6772 99.0636,113.7376 99.318,113.7376 C99.6496,113.7376 99.9796,113.6344 100.2588,113.432 C100.7512,113.074 100.9984,112.4676 100.8952,111.8672 L100.0888,107.1664 L103.504,103.8372 C103.9396,103.4128 104.0964,102.7768 103.9084,102.1976 Z M97.2524,105.4624 C96.8756,105.83 96.7032,106.3596 96.7924,106.8788 L97.1928,109.2132 L95.0964,108.1112 C94.63,107.8664 94.0736,107.8664 93.6072,108.1112 L91.5104,109.2136 L91.9108,106.8788 C92,106.3596 91.8276,105.83 91.4508,105.4624 L89.7548,103.8092 L92.0988,103.4684 C92.62,103.3928 93.0704,103.0652 93.3036,102.5932 L94.352,100.4692 L95.4,102.5932 C95.6328,103.0656 96.0836,103.3928 96.6048,103.4684 L98.9488,103.8092 L97.2524,105.4624 Z" id="Shape"></path>
                    <path d="M8.9484,12.8944 C10.5464,13.8324 12.1524,14.8044 13.7216,15.7828 C13.9852,15.9472 14.2776,16.0252 14.5668,16.0252 C15.1008,16.0252 15.6228,15.758 15.926,15.2716 C16.3936,14.5216 16.1648,13.5348 15.4152,13.0672 C13.8216,12.0736 12.1908,11.0868 10.5684,10.134 C9.806,9.6864 8.826,9.942 8.3784,10.704 C7.9312,11.4664 8.1864,12.4468 8.9484,12.8944 Z" id="Shape"></path>
                    <path d="M39.3052,30.39 C33.7456,25.7332 27.8812,21.316 21.8748,17.2608 C21.1428,16.7664 20.148,16.9592 19.6536,17.6916 C19.1592,18.424 19.352,19.4184 20.0844,19.9128 C25.9996,23.9064 31.7752,28.2568 37.2508,32.8432 C46.904,40.9284 55.8636,49.9408 63.88,59.6292 C71.9144,69.3392 79.0928,79.8404 85.2156,90.8404 C85.508,91.366 86.0532,91.6628 86.6152,91.6628 C86.8784,91.6628 87.1452,91.5976 87.3916,91.4604 C88.164,91.0308 88.4412,90.0564 88.0116,89.2844 C81.7936,78.1136 74.504,67.45 66.3456,57.5896 C58.2048,47.7508 49.1072,38.6 39.3052,30.39 Z" id="Shape"></path>
                    <path d="M31.614,37.5328 C23.542,31.162 14.0096,25.2396 2.472,19.4268 C1.6828,19.0296 0.7212,19.3464 0.3232,20.1356 C-0.0744,20.9248 0.2432,21.8868 1.032,22.2844 C12.3752,27.9992 21.7304,33.8084 29.6316,40.044 C29.9252,40.276 30.2744,40.388 30.622,40.388 C31.0948,40.388 31.5632,40.1792 31.8788,39.7792 C32.426,39.086 32.3076,38.08 31.614,37.5328 Z" id="Shape"></path>
                    <path d="M38.794,43.0972 C38.108,42.5408 37.1,42.646 36.5436,43.3328 C35.9872,44.0192 36.0928,45.0268 36.7792,45.5832 C37.9116,46.5012 39.052,47.4456 40.1684,48.3904 C40.4688,48.6448 40.836,48.7688 41.2012,48.7688 C41.6556,48.7688 42.1068,48.5764 42.4236,48.2024 C42.9944,47.5276 42.91,46.5184 42.2356,45.9472 C41.1016,44.9884 39.944,44.0292 38.794,43.0972 Z" id="Shape"></path>
                    <path d="M56.9372,59.6432 C54.138,56.7744 51.2236,53.9532 48.2752,51.2592 C47.6228,50.6632 46.6112,50.7088 46.0148,51.3612 C45.4188,52.0136 45.4644,53.0256 46.1168,53.6216 C49.0204,56.2748 51.8904,59.0524 54.6468,61.878 C64.3176,71.7904 73.0364,82.7296 80.5604,94.3916 C80.8668,94.866 81.3812,95.1244 81.9064,95.1244 C82.2032,95.1244 82.504,95.0416 82.7724,94.8688 C83.5148,94.3896 83.7284,93.3992 83.2492,92.6568 C75.6092,80.816 66.7564,69.7084 56.9372,59.6432 Z" id="Shape"></path>
                    <path d="M16.1396,2.9468 C32.4904,13.4408 47.7064,26.9844 61.3648,43.2012 C61.6812,43.5768 62.134,43.7704 62.5896,43.7704 C62.9536,43.7704 63.3192,43.6468 63.6196,43.3944 C64.2952,42.8252 64.3816,41.8156 63.8124,41.14 C49.9468,24.6772 34.4888,10.9212 17.868,0.2536 C17.1244,-0.2236 16.1344,-0.008 15.6572,0.736 C15.18,1.4796 15.396,2.4692 16.1396,2.9468 Z" id="Shape"></path>
                    <path d="M87.1176,81.684 C87.4004,82.2384 87.9616,82.5576 88.544,82.5576 C88.7884,82.5576 89.0368,82.5012 89.2692,82.3824 C90.0568,81.9812 90.3696,81.0176 89.968,80.2304 C84.04,68.6012 76.84,57.4196 68.5684,46.996 C68.0188,46.3036 67.0124,46.188 66.3204,46.7372 C65.6284,47.2864 65.512,48.2928 66.0616,48.9852 C74.2016,59.2424 81.2856,70.2436 87.1176,81.684 Z" id="Shape"></path>
                    <path d="M89.8268,87.1796 C90.2396,88.0512 90.646,88.926 91.046,89.8032 C91.3144,90.3924 91.8952,90.74 92.5028,90.74 C92.7252,90.74 92.9504,90.6936 93.1656,90.5956 C93.9696,90.2292 94.324,89.2804 93.9576,88.4764 C93.5512,87.5848 93.138,86.6956 92.7188,85.81 C92.3408,85.0112 91.3868,84.67 90.588,85.0488 C89.7892,85.4272 89.4488,86.3812 89.8268,87.1796 Z" id="Shape"></path>
                </g>
                <g id="Group-16" transform="translate(471.000000, 0.000000)" fill="#F28422">
                    <path d="M19.7055824,102.1976 C19.5171824,101.6184 19.0163824,101.1964 18.4139824,101.1084 L13.6939824,100.4224 L11.5835824,96.1456 C11.3139824,95.5996 10.7579824,95.2536 10.1487824,95.2536 C9.53958242,95.2536 8.98358242,95.5992 8.71398242,96.1452 L6.60318242,100.422 L1.88318242,101.108 C1.28038242,101.1956 0.779582423,101.6176 0.591582423,102.1968 C0.403582423,102.776 0.560382423,103.412 0.996782423,103.8372 L4.41198242,107.1664 L3.60558242,111.8672 C3.50238242,112.4676 3.74918242,113.0744 4.24198242,113.432 C4.73518242,113.7904 5.38838242,113.8376 5.92718242,113.554 L10.1491824,111.3348 L14.3707824,113.554 C14.6047824,113.6772 14.8607824,113.7376 15.1151824,113.7376 C15.4467824,113.7376 15.7767824,113.6344 16.0559824,113.432 C16.5483824,113.074 16.7955824,112.4676 16.6923824,111.8672 L15.8859824,107.1664 L19.3011824,103.8372 C19.7367824,103.4128 19.8935824,102.7768 19.7055824,102.1976 Z M13.0495824,105.4624 C12.6727824,105.83 12.5003824,106.3596 12.5895824,106.8788 L12.9899824,109.2132 L10.8935824,108.1112 C10.4271824,107.8664 9.87078242,107.8664 9.40438242,108.1112 L7.30758242,109.2136 L7.70798242,106.8788 C7.79718242,106.3596 7.62478242,105.83 7.24798242,105.4624 L5.55198242,103.8092 L7.89598242,103.4684 C8.41718242,103.3928 8.86758242,103.0652 9.10078242,102.5932 L10.1491824,100.4692 L11.1971824,102.5932 C11.4299824,103.0656 11.8807824,103.3928 12.4019824,103.4684 L14.7459824,103.8092 L13.0495824,105.4624 Z" id="Shape" transform="translate(10.148591, 104.495762) scale(-1, 1) translate(-10.148591, -104.495762) "></path>
                    <path d="M89.1217266,12.8944 C90.7197266,13.8324 92.3257266,14.8044 93.8949266,15.7828 C94.1585266,15.9472 94.4509266,16.0252 94.7401266,16.0252 C95.2741266,16.0252 95.7961266,15.758 96.0993266,15.2716 C96.5669266,14.5216 96.3381266,13.5348 95.5885266,13.0672 C93.9949266,12.0736 92.3641266,11.0868 90.7417266,10.134 C89.9793266,9.6864 88.9993266,9.942 88.5517266,10.704 C88.1045266,11.4664 88.3597266,12.4468 89.1217266,12.8944 Z" id="Shape" transform="translate(92.336663, 12.969355) scale(-1, 1) translate(-92.336663, -12.969355) "></path>
                    <path d="M36.211849,30.39 C30.652249,25.7332 24.787849,21.316 18.781449,17.2608 C18.049449,16.7664 17.054649,16.9592 16.560249,17.6916 C16.065849,18.424 16.258649,19.4184 16.991049,19.9128 C22.906249,23.9064 28.681849,28.2568 34.157449,32.8432 C43.810649,40.9284 52.770249,49.9408 60.786649,59.6292 C68.821049,69.3392 75.999449,79.8404 82.122249,90.8404 C82.414649,91.366 82.959849,91.6628 83.521849,91.6628 C83.785049,91.6628 84.051849,91.5976 84.298249,91.4604 C85.070649,91.0308 85.347849,90.0564 84.918249,89.2844 C78.700249,78.1136 71.410649,67.45 63.252249,57.5896 C55.111449,47.7508 46.013849,38.6 36.211849,30.39 Z" id="Shape" transform="translate(50.703325, 54.324764) scale(-1, 1) translate(-50.703325, -54.324764) "></path>
                    <path d="M103.739477,37.5328 C95.6674771,31.162 86.1350771,25.2396 74.5974771,19.4268 C73.8082771,19.0296 72.8466771,19.3464 72.4486771,20.1356 C72.0510771,20.9248 72.3686771,21.8868 73.1574771,22.2844 C84.5006771,27.9992 93.8558771,33.8084 101.757077,40.044 C102.050677,40.276 102.399877,40.388 102.747477,40.388 C103.220277,40.388 103.688677,40.1792 104.004277,39.7792 C104.551477,39.086 104.433077,38.08 103.739477,37.5328 Z" id="Shape" transform="translate(88.312739, 29.821736) scale(-1, 1) translate(-88.312739, -29.821736) "></path>
                    <path d="M64.3052798,43.0972 C63.6192798,42.5408 62.6112798,42.646 62.0548798,43.3328 C61.4984798,44.0192 61.6040798,45.0268 62.2904798,45.5832 C63.4228798,46.5012 64.5632798,47.4456 65.6796798,48.3904 C65.9800798,48.6448 66.3472798,48.7688 66.7124798,48.7688 C67.1668798,48.7688 67.6180798,48.5764 67.9348798,48.2024 C68.5056798,47.5276 68.4212798,46.5184 67.7468798,45.9472 C66.6128798,44.9884 65.4552798,44.0292 64.3052798,43.0972 Z" id="Shape" transform="translate(65.005640, 45.754434) scale(-1, 1) translate(-65.005640, -45.754434) "></path>
                    <path d="M32.336155,59.6432 C29.536955,56.7744 26.622555,53.9532 23.674155,51.2592 C23.021755,50.6632 22.010155,50.7088 21.413755,51.3612 C20.817755,52.0136 20.863355,53.0256 21.515755,53.6216 C24.419355,56.2748 27.289355,59.0524 30.045755,61.878 C39.716555,71.7904 48.435355,82.7296 55.959355,94.3916 C56.265755,94.866 56.780155,95.1244 57.305355,95.1244 C57.602155,95.1244 57.902955,95.0416 58.171355,94.8688 C58.913755,94.3896 59.127355,93.3992 58.648155,92.6568 C51.008155,80.816 42.155355,69.7084 32.336155,59.6432 Z" id="Shape" transform="translate(39.949478, 72.982407) scale(-1, 1) translate(-39.949478, -72.982407) "></path>
                    <path d="M41.0473271,2.9468 C57.3981271,13.4408 72.6141271,26.9844 86.2725271,43.2012 C86.5889271,43.5768 87.0417271,43.7704 87.4973271,43.7704 C87.8613271,43.7704 88.2269271,43.6468 88.5273271,43.3944 C89.2029271,42.8252 89.2893271,41.8156 88.7201271,41.14 C74.8545271,24.6772 59.3965271,10.9212 42.7757271,0.2536 C42.0321271,-0.2236 41.0421271,-0.008 40.5649271,0.736 C40.0877271,1.4796 40.3037271,2.4692 41.0473271,2.9468 Z" id="Shape" transform="translate(64.703864, 21.885157) scale(-1, 1) translate(-64.703864, -21.885157) "></path>
                    <path d="M35.7597347,81.684 C36.0425347,82.2384 36.6037347,82.5576 37.1861347,82.5576 C37.4305347,82.5576 37.6789347,82.5012 37.9113347,82.3824 C38.6989347,81.9812 39.0117347,81.0176 38.6101347,80.2304 C32.6821347,68.6012 25.4821347,57.4196 17.2105347,46.996 C16.6609347,46.3036 15.6545347,46.188 14.9625347,46.7372 C14.2705347,47.2864 14.1541347,48.2928 14.7037347,48.9852 C22.8437347,59.2424 29.9277347,70.2436 35.7597347,81.684 Z" id="Shape" transform="translate(26.571067, 64.474027) scale(-1, 1) translate(-26.571067, -64.474027) "></path>
                </g>
                <path d="M481.552184,87.1796 C481.964984,88.0512 482.371384,88.926 482.771384,89.8032 C483.039784,90.3924 483.620584,90.74 484.228184,90.74 C484.450584,90.74 484.675784,90.6936 484.890984,90.5956 C485.694984,90.2292 486.049384,89.2804 485.682984,88.4764 C485.276584,87.5848 484.863384,86.6956 484.444184,85.81 C484.066184,85.0112 483.112184,84.67 482.313384,85.0488 C481.514584,85.4272 481.174184,86.3812 481.552184,87.1796 Z" id="Shape" fill="#F8A929" transform="translate(483.612692, 87.817087) scale(-1, 1) translate(-483.612692, -87.817087) "></path>
                <circle id="Oval-2" fill="#F28422" cx="387" cy="58" r="3"></circle>
                <circle id="Oval-2-Copy" fill="#F8A929" cx="184" cy="127" r="3"></circle>
                <circle id="Oval-2-Copy-2" fill="#FECC27" cx="255" cy="109" r="3"></circle>
                <circle id="Oval-2-Copy-3" fill="#1EABF4" cx="252" cy="26" r="3"></circle>
                <circle id="Oval-2-Copy-4" fill="#FECC27" cx="456" cy="147" r="3"></circle>
                <circle id="Oval-2-Copy-5" fill="#FFFFFF" cx="125" cy="127" r="3"></circle>
                <rect id="Rectangle-11" fill="#F8A929" transform="translate(440.449234, 90.587488) rotate(-52.000000) translate(-440.449234, -90.587488) " x="437.949234" y="83.0874879" width="5" height="15" rx="2.5"></rect>
                <rect id="Rectangle-11-Copy-5" fill="#F8A929" transform="translate(176.470434, 57.898556) rotate(16.000000) translate(-176.470434, -57.898556) " x="173.970434" y="50.3985561" width="5" height="15" rx="2.5"></rect>
                <rect id="Rectangle-11-Copy" fill="#E0E0E0" transform="translate(376.795786, 96.728406) rotate(-118.000000) translate(-376.795786, -96.728406) " x="374.295786" y="89.2284057" width="5" height="15" rx="2.5"></rect>
                <rect id="Rectangle-11-Copy-2" fill="#E0E0E0" transform="translate(153.588506, 102.008287) rotate(-46.000000) translate(-153.588506, -102.008287) " x="151.088506" y="94.5082873" width="5" height="15" rx="2.5"></rect>
                <rect id="Rectangle-11-Copy-7" fill="#E0E0E0" transform="translate(476.004707, 165.855886) scale(-1, 1) rotate(12.000000) translate(-476.004707, -165.855886) " x="473.504707" y="158.355886" width="5" height="15" rx="2.5"></rect>
                <rect id="Rectangle-11-Copy-9" fill="#E0E0E0" transform="translate(333.004707, 25.855886) scale(-1, 1) rotate(12.000000) translate(-333.004707, -25.855886) " x="330.504707" y="18.3558862" width="5" height="15" rx="2.5"></rect>
                <rect id="Rectangle-11-Copy-3" fill="#1EABF4" transform="translate(211.805558, 93.905310) rotate(19.000000) translate(-211.805558, -93.905310) " x="209.305558" y="86.4053097" width="5" height="15" rx="2.5"></rect>
                <rect id="Rectangle-11-Copy-4" fill="#1EABF4" transform="translate(416.728406, 141.795786) rotate(-28.000000) translate(-416.728406, -141.795786) " x="414.228406" y="134.295786" width="5" height="15" rx="2.5"></rect>
                <rect id="Rectangle-11-Copy-8" fill="#F28422" transform="translate(140.728406, 157.795786) rotate(-28.000000) translate(-140.728406, -157.795786) " x="138.228406" y="150.295786" width="5" height="15" rx="2.5"></rect>
                <ellipse id="Oval-3" fill="#FFFFFF" cx="292.5" cy="204" rx="145.5" ry="22"></ellipse>
                <rect id="Rectangle" fill="#0881CA" x="162" y="202" width="15" height="5" rx="2.5"></rect>
                <rect id="Rectangle-Copy" fill="#0881CA" x="182" y="202" width="235" height="5" rx="2.5"></rect>
                <g id="Group-14" transform="translate(188.000000, 130.000000)">
                    <g id="Group-13" transform="translate(0.000000, 20.000000)">
                        <use id="Rectangle-2" stroke="#0881CA" mask="url(#mask-2)" stroke-width="10" fill="#C2C2C2" xlink:href="#path-1"></use>
                        <polygon id="Path-2" fill="#A3A3A3" points="37 15 67 15 67 52"></polygon>
                        <use id="Rectangle-3" stroke="#0881CA" mask="url(#mask-4)" stroke-width="8" fill="#C2C2C2" xlink:href="#path-3"></use>
                        <rect id="Rectangle-4" fill="#FFFFFF" x="16" y="15" width="7" height="37"></rect>
                        <path d="M38,26 L41,26 L41,39 L38,39 L38,26 Z M45,26 L48,26 L48,39 L45,39 L45,26 Z" id="Combined-Shape" fill="#0881CA"></path>
                    </g>
                    <g id="Group-13-Copy-2" transform="translate(125.000000, 30.000000)">
                        <use id="Rectangle-2" stroke="#0881CA" mask="url(#mask-6)" stroke-width="10" fill="#F28422" xlink:href="#path-5"></use>
                        <polygon id="Path-2" fill="#E3752C" points="37 15 67 15 67 42"></polygon>
                        <use id="Rectangle-3" stroke="#0881CA" mask="url(#mask-8)" stroke-width="8" fill="#F28422" xlink:href="#path-7"></use>
                        <rect id="Rectangle-4" fill="#FFFFFF" x="15" y="15" width="7" height="27"></rect>
                        <path d="M35,22 L38,22 L38,35 L35,35 L35,22 Z M42,22 L45,22 L45,35 L42,35 L42,22 Z M49,22 L52,22 L52,35 L49,35 L49,22 Z" id="Combined-Shape" fill="#0881CA"></path>
                    </g>
                    <g id="Group-13-Copy" transform="translate(56.000000, 0.000000)">
                        <use id="Rectangle-2" stroke="#0881CA" mask="url(#mask-10)" stroke-width="10" fill="#FECC27" xlink:href="#path-9"></use>
                        <polygon id="Path-2" fill="#F8A929" points="32 15.0449287 79 15 79 72"></polygon>
                        <use id="Rectangle-3" stroke="#0881CA" mask="url(#mask-12)" stroke-width="8" fill="#FECC27" xlink:href="#path-11"></use>
                        <rect id="Rectangle-4" fill="#FFFFFF" x="16" y="15" width="7" height="57"></rect>
                        <rect id="Combined-Shape" fill="#0881CA" x="48" y="37" width="3" height="13"></rect>
                    </g>
                </g>
                <use id="Shape" stroke="#0881CA" mask="url(#mask-14)" stroke-width="8" fill="#FECC27" xlink:href="#path-13"></use>
                <polygon id="Path" fill="#FECC27" points="307.923221 129.801074 278.777987 129.801611 280.592752 124.352752 306.108456 124.352752"></polygon>
                <path d="M296.073826,120.325906 L290.627919,120.325906 L290.627919,108.500134 C291.519732,108.616644 292.427383,108.682953 293.350604,108.682953 C294.273826,108.682953 295.181745,108.616644 296.074094,108.500134 L296.074094,120.325906 L296.073826,120.325906 Z" id="Path" fill="#FECC27"></path>
                <g id="Path-2" transform="translate(276.000000, 58.000000)">
                    <mask id="mask-16" fill="white">
                        <use xlink:href="#path-15"></use>
                    </mask>
                    <use id="Mask" fill="#FECC27" xlink:href="#path-15"></use>
                    <polygon fill="#F8A929" mask="url(#mask-16)" points="0 0.0449287065 47 0 47 57"></polygon>
                </g>
                <path d="M304.234631,73.1594631 L298.431409,71.4491275 L295.011544,66.4574497 C294.636242,65.9095302 294.014497,65.5820134 293.350336,65.5820134 C292.685906,65.5820134 292.064698,65.9097987 291.689128,66.4577181 L288.269799,71.4491275 L282.466577,73.1594631 C281.82953,73.3471141 281.326174,73.8367785 281.120805,74.4684564 C280.915436,75.1001342 281.034899,75.7922148 281.44,76.3186577 L285.129664,81.1151678 L284.962953,87.1648322 C284.944698,87.8289933 285.255034,88.4590604 285.792215,88.849396 C286.329664,89.2394631 287.02443,89.3398658 287.650738,89.1173154 L293.350336,87.0888591 L299.050738,89.1173154 C299.270336,89.1954362 299.498792,89.2338255 299.725638,89.2338255 C300.145235,89.2338255 300.560537,89.1028188 300.909262,88.849396 C301.446443,88.4590604 301.756779,87.8287248 301.738523,87.1648322 L301.571812,81.1151678 L305.261477,76.3183893 C305.666309,75.7922148 305.785503,75.1001342 305.580403,74.4684564 C305.375034,73.837047 304.871678,73.3471141 304.234631,73.1594631 Z" id="Shape" fill="#0881CA"></path>
                <path d="M297.943356,79.227651 C297.661208,79.5946309 297.513826,80.0477852 297.526711,80.510604 L297.632215,84.3385235 L294.025235,83.0550336 C293.806711,82.9774497 293.578523,82.9385235 293.350067,82.9385235 C293.121611,82.9385235 292.893423,82.9774497 292.674899,83.0550336 L289.068725,84.338255 L289.174228,80.510604 C289.187114,80.0475168 289.039732,79.5943624 288.757315,79.2273826 L286.422282,76.1916779 L290.095034,75.1092617 C290.539329,74.978255 290.925101,74.6979866 291.186846,74.3157047 L293.350067,71.1578523 L295.513826,74.3159732 C295.775839,74.6979866 296.161342,74.978255 296.605638,75.1092617 L300.278389,76.1916779 L297.943356,79.227651 Z" id="Path" fill="#FFFFFF"></path>
                <g id="adobe-reader-symbol" transform="translate(173.000000, 6.000000)"></g>
            </g>
        </g>
    </g>
</svg>